<?xml version="1.0" standalone="no"?>
<!DOCTYPE svg PUBLIC "-//W3C//DTD SVG 20010904//EN"
 "http://www.w3.org/TR/2001/REC-SVG-20010904/DTD/svg10.dtd">
<svg version="1.0" xmlns="http://www.w3.org/2000/svg"
 width="960.000000pt" height="960.000000pt" viewBox="0 0 960.000000 960.000000"
 preserveAspectRatio="xMidYMid meet">
<metadata>
Created by potrace 1.14, written by Peter Selinger 2001-2017
</metadata>
<g transform="translate(0.000000,960.000000) scale(0.100000,-0.100000)"
fill="#000000" stroke="none">
<path d="M0 4800 l0 -4800 4800 0 4800 0 0 4800 0 4800 -4800 0 -4800 0 0
-4800z m1804 3676 c354 -86 605 -326 692 -663 31 -121 35 -268 10 -428 -19
-125 -12 -234 25 -346 29 -88 39 -105 104 -177 102 -111 240 -203 359 -237 77
-23 218 -17 298 12 31 12 112 57 180 101 406 263 871 397 1393 404 145 1 152
0 212 -27 72 -32 134 -93 166 -163 16 -36 21 -67 22 -132 0 -77 -3 -92 -33
-152 -19 -39 -49 -80 -70 -98 -72 -59 -110 -71 -285 -86 -353 -30 -602 -96
-892 -238 -252 -124 -440 -258 -635 -455 -337 -340 -550 -756 -631 -1236 -26
-155 -36 -451 -20 -605 80 -774 539 -1427 1252 -1779 402 -200 890 -274 1338
-206 433 67 835 250 1156 528 325 280 588 716 700 1156 37 148 55 270 65 461
11 205 23 249 87 320 65 73 128 102 228 108 108 5 179 -21 251 -92 74 -75 94
-134 94 -284 -1 -770 -366 -1581 -950 -2109 -507 -458 -1098 -711 -1785 -764
-680 -52 -1457 204 -2072 682 -127 99 -361 329 -457 449 -356 446 -573 1003
-627 1611 -14 157 -6 454 15 605 57 388 181 740 376 1064 71 118 96 184 110
293 23 170 -24 302 -155 432 -77 77 -196 145 -291 165 -64 14 -229 16 -410 5
-170 -9 -238 1 -379 56 -126 49 -265 138 -353 226 -191 191 -272 409 -272 730
0 123 3 143 30 224 67 202 180 374 308 473 31 24 94 62 139 85 239 119 460
147 707 87z m6231 8 c50 -8 136 -30 192 -49 191 -64 315 -139 466 -284 200
-191 309 -381 368 -641 28 -123 36 -349 16 -465 -44 -249 -168 -490 -354 -686
-106 -111 -190 -175 -313 -238 -168 -86 -328 -131 -522 -146 -77 -6 -88 -5
-88 9 0 19 4 19 -171 6 -538 -39 -1020 -289 -1377 -715 -249 -297 -400 -642
-462 -1055 -25 -165 -54 -263 -111 -368 -100 -186 -244 -319 -453 -418 -144
-67 -237 -89 -386 -87 -157 1 -245 23 -395 97 -446 221 -645 692 -479 1134 80
212 203 379 352 481 151 102 263 140 502 171 372 47 665 166 950 385 454 349
740 944 740 1538 0 487 245 948 622 1172 264 157 577 212 903 159z"/>
</g>
</svg>
