<svg width="420" height="332" viewBox="0 0 420 332" fill="none" xmlns="http://www.w3.org/2000/svg">
<path d="M209.5 59.4409C279.789 59.4409 336.77 116.422 336.77 186.711C336.77 257 279.789 313.981 209.5 313.981C172.191 313.981 138.631 297.927 115.352 272.351" stroke="#FB1E01" stroke-width="35.6832"/>
<path d="M84.4492 162.922C82.9921 170.629 82.2297 178.581 82.2297 186.711C82.2297 220.273 95.2208 250.801 116.449 273.54" stroke="#FB6A01" stroke-width="35.6832"/>
<path d="M98.9141 123.671C92.0603 135.668 87.1026 148.888 84.449 162.922" stroke="#FFBB38" stroke-width="35.6832"/>
<path d="M121.128 95.1245C112.769 103.192 104.196 114.773 98.2874 124.861" stroke="#FFF338" stroke-width="35.6832"/>
<path d="M209.5 59.4409C174.561 59.4409 142.911 73.5197 119.912 96.3136" stroke="#CECECE" stroke-width="35.6832"/>
<path d="M363.177 254.144C365.139 254.144 366.835 254.805 368.265 256.128C369.694 257.429 370.409 259.093 370.409 261.12C370.409 263.232 369.694 264.971 368.265 266.336C366.835 267.701 365.022 268.384 362.825 268.384C360.585 268.384 358.75 267.701 357.321 266.336C355.891 264.971 355.177 263.232 355.177 261.12C355.177 259.179 355.955 256.821 357.513 254.048L361.769 246.528H364.681C362.099 251.115 360.563 253.888 360.073 254.848C361.054 254.379 362.089 254.144 363.177 254.144ZM359.241 264.512C360.179 265.408 361.363 265.856 362.793 265.856C364.222 265.856 365.406 265.419 366.345 264.544C367.283 263.648 367.753 262.507 367.753 261.12C367.753 260.224 367.539 259.413 367.113 258.688C366.686 257.963 366.089 257.408 365.321 257.024C364.574 256.619 363.731 256.416 362.793 256.416C361.854 256.416 361.001 256.619 360.233 257.024C359.486 257.429 358.899 257.995 358.473 258.72C358.046 259.424 357.833 260.224 357.833 261.12C357.833 262.485 358.302 263.616 359.241 264.512ZM381.023 254.752C382.772 255.008 384.191 255.755 385.279 256.992C386.367 258.208 386.911 259.691 386.911 261.44C386.911 263.445 386.228 265.109 384.863 266.432C383.497 267.733 381.801 268.384 379.775 268.384C377.812 268.384 376.18 267.765 374.879 266.528C373.577 265.291 372.873 263.712 372.767 261.792H375.359C375.444 263.008 375.892 263.989 376.703 264.736C377.513 265.483 378.537 265.856 379.775 265.856C380.628 265.856 381.396 265.664 382.079 265.28C382.761 264.896 383.295 264.363 383.679 263.68C384.063 262.976 384.255 262.197 384.255 261.344C384.255 260.043 383.796 258.976 382.879 258.144C381.983 257.291 380.841 256.864 379.455 256.864H377.055V256.352L381.983 249.152H373.471V246.72H386.079V247.328L381.023 254.752ZM394.628 255.168C393.114 255.168 391.876 254.699 390.916 253.76C389.956 252.8 389.476 251.584 389.476 250.112C389.476 248.619 389.956 247.403 390.916 246.464C391.876 245.525 393.103 245.056 394.596 245.056C396.111 245.056 397.338 245.525 398.276 246.464C399.236 247.403 399.716 248.619 399.716 250.112C399.716 251.584 399.236 252.8 398.276 253.76C397.338 254.699 396.122 255.168 394.628 255.168ZM392.964 268.128L406.564 245.568H409.444L395.844 268.128H392.964ZM392.58 252.192C393.114 252.725 393.786 252.992 394.596 252.992C395.428 252.992 396.111 252.725 396.644 252.192C397.199 251.637 397.476 250.944 397.476 250.112C397.476 249.28 397.199 248.597 396.644 248.064C396.111 247.509 395.428 247.232 394.596 247.232C393.786 247.232 393.114 247.509 392.58 248.064C392.047 248.597 391.78 249.28 391.78 250.112C391.78 250.944 392.047 251.637 392.58 252.192ZM411.908 266.784C410.97 267.701 409.754 268.16 408.26 268.16C406.767 268.16 405.54 267.701 404.58 266.784C403.642 265.845 403.172 264.64 403.172 263.168C403.172 261.675 403.642 260.469 404.58 259.552C405.54 258.613 406.767 258.144 408.26 258.144C409.754 258.144 410.97 258.613 411.908 259.552C412.868 260.469 413.348 261.675 413.348 263.168C413.348 264.64 412.868 265.845 411.908 266.784ZM406.212 265.184C406.746 265.717 407.428 265.984 408.26 265.984C409.092 265.984 409.764 265.717 410.276 265.184C410.81 264.651 411.076 263.968 411.076 263.136C411.076 262.603 410.959 262.123 410.724 261.696C410.49 261.269 410.148 260.939 409.7 260.704C409.274 260.448 408.794 260.32 408.26 260.32C407.428 260.32 406.746 260.587 406.212 261.12C405.7 261.653 405.444 262.336 405.444 263.168C405.444 263.979 405.7 264.651 406.212 265.184Z" fill="white"/>
<path d="M3.19138 229.72H9.87938V251H7.25538V232.152H3.19138V229.72ZM21.1131 237.56C22.4998 237.56 23.7478 237.859 24.8571 238.456C25.9878 239.053 26.8625 239.885 27.4811 240.952C28.1211 241.997 28.4411 243.16 28.4411 244.44C28.4411 246.424 27.7585 248.077 26.3931 249.4C25.0278 250.723 23.3425 251.384 21.3371 251.384C19.3531 251.384 17.6998 250.765 16.3771 249.528C15.0545 248.269 14.3611 246.691 14.2971 244.792H16.8891C16.9318 245.581 17.1451 246.285 17.5291 246.904C17.9345 247.523 18.4678 248.003 19.1291 248.344C19.7905 248.685 20.5265 248.856 21.3371 248.856C22.6171 248.856 23.6731 248.44 24.5051 247.608C25.3371 246.776 25.7531 245.72 25.7531 244.44C25.7531 243.587 25.5505 242.819 25.1451 242.136C24.7398 241.432 24.1745 240.888 23.4491 240.504C22.7238 240.12 21.9131 239.928 21.0171 239.928H15.6091L15.2251 239.48L16.3131 229.72H26.9691V232.152H18.4891L17.9131 237.56H21.1131ZM35.9096 238.168C34.395 238.168 33.1576 237.699 32.1976 236.76C31.2376 235.8 30.7576 234.584 30.7576 233.112C30.7576 231.619 31.2376 230.403 32.1976 229.464C33.1576 228.525 34.3843 228.056 35.8776 228.056C37.3923 228.056 38.619 228.525 39.5576 229.464C40.5176 230.403 40.9976 231.619 40.9976 233.112C40.9976 234.584 40.5176 235.8 39.5576 236.76C38.619 237.699 37.403 238.168 35.9096 238.168ZM34.2456 251.128L47.8456 228.568H50.7256L37.1256 251.128H34.2456ZM33.8616 235.192C34.395 235.725 35.067 235.992 35.8776 235.992C36.7096 235.992 37.3923 235.725 37.9256 235.192C38.4803 234.637 38.7576 233.944 38.7576 233.112C38.7576 232.28 38.4803 231.597 37.9256 231.064C37.3923 230.509 36.7096 230.232 35.8776 230.232C35.067 230.232 34.395 230.509 33.8616 231.064C33.3283 231.597 33.0616 232.28 33.0616 233.112C33.0616 233.944 33.3283 234.637 33.8616 235.192ZM53.1896 249.784C52.251 250.701 51.035 251.16 49.5416 251.16C48.0483 251.16 46.8216 250.701 45.8616 249.784C44.923 248.845 44.4536 247.64 44.4536 246.168C44.4536 244.675 44.923 243.469 45.8616 242.552C46.8216 241.613 48.0483 241.144 49.5416 241.144C51.035 241.144 52.251 241.613 53.1896 242.552C54.1496 243.469 54.6296 244.675 54.6296 246.168C54.6296 247.64 54.1496 248.845 53.1896 249.784ZM47.4936 248.184C48.027 248.717 48.7096 248.984 49.5416 248.984C50.3736 248.984 51.0456 248.717 51.5576 248.184C52.091 247.651 52.3576 246.968 52.3576 246.136C52.3576 245.603 52.2403 245.123 52.0056 244.696C51.771 244.269 51.4296 243.939 50.9816 243.704C50.555 243.448 50.075 243.32 49.5416 243.32C48.7096 243.32 48.027 243.587 47.4936 244.12C46.9816 244.653 46.7256 245.336 46.7256 246.168C46.7256 246.979 46.9816 247.651 47.4936 248.184Z" fill="white"/>
<path d="M20.8163 128.56C22.2029 128.56 23.4509 128.859 24.5603 129.456C25.6909 130.053 26.5656 130.885 27.1843 131.952C27.8243 132.997 28.1443 134.16 28.1443 135.44C28.1443 137.424 27.4616 139.077 26.0963 140.4C24.7309 141.723 23.0456 142.384 21.0403 142.384C19.0563 142.384 17.4029 141.765 16.0803 140.528C14.7576 139.269 14.0643 137.691 14.0003 135.792H16.5923C16.6349 136.581 16.8483 137.285 17.2323 137.904C17.6376 138.523 18.1709 139.003 18.8323 139.344C19.4936 139.685 20.2296 139.856 21.0403 139.856C22.3203 139.856 23.3763 139.44 24.2083 138.608C25.0403 137.776 25.4563 136.72 25.4563 135.44C25.4563 134.587 25.2536 133.819 24.8483 133.136C24.4429 132.432 23.8776 131.888 23.1523 131.504C22.4269 131.12 21.6163 130.928 20.7203 130.928H15.3123L14.9283 130.48L16.0163 120.72H26.6723V123.152H18.1923L17.6163 128.56H20.8163ZM35.6128 129.168C34.0981 129.168 32.8608 128.699 31.9008 127.76C30.9408 126.8 30.4608 125.584 30.4608 124.112C30.4608 122.619 30.9408 121.403 31.9008 120.464C32.8608 119.525 34.0874 119.056 35.5808 119.056C37.0954 119.056 38.3221 119.525 39.2608 120.464C40.2208 121.403 40.7008 122.619 40.7008 124.112C40.7008 125.584 40.2208 126.8 39.2608 127.76C38.3221 128.699 37.1061 129.168 35.6128 129.168ZM33.9488 142.128L47.5487 119.568H50.4288L36.8288 142.128H33.9488ZM33.5648 126.192C34.0981 126.725 34.7701 126.992 35.5808 126.992C36.4128 126.992 37.0954 126.725 37.6288 126.192C38.1834 125.637 38.4608 124.944 38.4608 124.112C38.4608 123.28 38.1834 122.597 37.6288 122.064C37.0954 121.509 36.4128 121.232 35.5808 121.232C34.7701 121.232 34.0981 121.509 33.5648 122.064C33.0314 122.597 32.7648 123.28 32.7648 124.112C32.7648 124.944 33.0314 125.637 33.5648 126.192ZM52.8928 140.784C51.9541 141.701 50.7381 142.16 49.2448 142.16C47.7514 142.16 46.5248 141.701 45.5648 140.784C44.6261 139.845 44.1568 138.64 44.1568 137.168C44.1568 135.675 44.6261 134.469 45.5648 133.552C46.5248 132.613 47.7514 132.144 49.2448 132.144C50.7381 132.144 51.9541 132.613 52.8928 133.552C53.8528 134.469 54.3328 135.675 54.3328 137.168C54.3328 138.64 53.8528 139.845 52.8928 140.784ZM47.1968 139.184C47.7301 139.717 48.4128 139.984 49.2448 139.984C50.0768 139.984 50.7488 139.717 51.2608 139.184C51.7941 138.651 52.0608 137.968 52.0608 137.136C52.0608 136.603 51.9434 136.123 51.7088 135.696C51.4741 135.269 51.1328 134.939 50.6848 134.704C50.2581 134.448 49.7781 134.32 49.2448 134.32C48.4128 134.32 47.7301 134.587 47.1968 135.12C46.6848 135.653 46.4288 136.336 46.4288 137.168C46.4288 137.979 46.6848 138.651 47.1968 139.184Z" fill="white"/>
<path d="M56.1333 84.152V86.52H53.8933V91H51.3333V86.52H40.4213V85.88L47.9093 69.72H50.6613L44.0052 84.152H51.3653L51.7813 77.592H53.8933V84.152H56.1333ZM62.4878 78.168C60.9731 78.168 59.7358 77.6987 58.7758 76.76C57.8158 75.8 57.3358 74.584 57.3358 73.112C57.3358 71.6187 57.8158 70.4027 58.7758 69.464C59.7358 68.5253 60.9624 68.056 62.4558 68.056C63.9704 68.056 65.1971 68.5253 66.1358 69.464C67.0958 70.4027 67.5758 71.6187 67.5758 73.112C67.5758 74.584 67.0958 75.8 66.1358 76.76C65.1971 77.6987 63.9811 78.168 62.4878 78.168ZM60.8238 91.128L74.4237 68.568H77.3038L63.7038 91.128H60.8238ZM60.4398 75.192C60.9731 75.7253 61.6451 75.992 62.4558 75.992C63.2878 75.992 63.9704 75.7253 64.5038 75.192C65.0584 74.6373 65.3358 73.944 65.3358 73.112C65.3358 72.28 65.0584 71.5973 64.5038 71.064C63.9704 70.5093 63.2878 70.232 62.4558 70.232C61.6451 70.232 60.9731 70.5093 60.4398 71.064C59.9064 71.5973 59.6398 72.28 59.6398 73.112C59.6398 73.944 59.9064 74.6373 60.4398 75.192ZM79.7678 89.784C78.8291 90.7013 77.6131 91.16 76.1198 91.16C74.6264 91.16 73.3998 90.7013 72.4398 89.784C71.5011 88.8453 71.0318 87.64 71.0318 86.168C71.0318 84.6747 71.5011 83.4693 72.4398 82.552C73.3998 81.6133 74.6264 81.144 76.1198 81.144C77.6131 81.144 78.8291 81.6133 79.7678 82.552C80.7278 83.4693 81.2078 84.6747 81.2078 86.168C81.2078 87.64 80.7278 88.8453 79.7678 89.784ZM74.0718 88.184C74.6051 88.7173 75.2878 88.984 76.1198 88.984C76.9518 88.984 77.6238 88.7173 78.1358 88.184C78.6691 87.6507 78.9358 86.968 78.9358 86.136C78.9358 85.6027 78.8184 85.1227 78.5838 84.696C78.3491 84.2693 78.0078 83.9387 77.5598 83.704C77.1331 83.448 76.6531 83.32 76.1198 83.32C75.2878 83.32 74.6051 83.5867 74.0718 84.12C73.5598 84.6533 73.3038 85.336 73.3038 86.168C73.3038 86.9787 73.5598 87.6507 74.0718 88.184Z" fill="white"/>
<path d="M108.551 15.72H115.239V37H112.615V18.152H108.551V15.72ZM127.945 23.752C129.694 24.008 131.113 24.7547 132.201 25.992C133.289 27.208 133.833 28.6907 133.833 30.44C133.833 32.4453 133.15 34.1093 131.785 35.432C130.419 36.7333 128.723 37.384 126.697 37.384C124.734 37.384 123.102 36.7653 121.801 35.528C120.499 34.2907 119.795 32.712 119.689 30.792H122.281C122.366 32.008 122.814 32.9893 123.625 33.736C124.435 34.4827 125.459 34.856 126.697 34.856C127.55 34.856 128.318 34.664 129.001 34.28C129.683 33.896 130.217 33.3627 130.601 32.68C130.985 31.976 131.177 31.1973 131.177 30.344C131.177 29.0427 130.718 27.976 129.801 27.144C128.905 26.2907 127.763 25.864 126.377 25.864H123.977V25.352L128.905 18.152H120.393V15.72H133.001V16.328L127.945 23.752ZM141.55 24.168C140.036 24.168 138.798 23.6987 137.838 22.76C136.878 21.8 136.398 20.584 136.398 19.112C136.398 17.6187 136.878 16.4027 137.838 15.464C138.798 14.5253 140.025 14.056 141.518 14.056C143.033 14.056 144.26 14.5253 145.198 15.464C146.158 16.4027 146.638 17.6187 146.638 19.112C146.638 20.584 146.158 21.8 145.198 22.76C144.26 23.6987 143.044 24.168 141.55 24.168ZM139.886 37.128L153.486 14.568H156.366L142.766 37.128H139.886ZM139.502 21.192C140.036 21.7253 140.708 21.992 141.518 21.992C142.35 21.992 143.033 21.7253 143.566 21.192C144.121 20.6373 144.398 19.944 144.398 19.112C144.398 18.28 144.121 17.5973 143.566 17.064C143.033 16.5093 142.35 16.232 141.518 16.232C140.708 16.232 140.036 16.5093 139.502 17.064C138.969 17.5973 138.702 18.28 138.702 19.112C138.702 19.944 138.969 20.6373 139.502 21.192ZM158.83 35.784C157.892 36.7013 156.676 37.16 155.182 37.16C153.689 37.16 152.462 36.7013 151.502 35.784C150.564 34.8453 150.094 33.64 150.094 32.168C150.094 30.6747 150.564 29.4693 151.502 28.552C152.462 27.6133 153.689 27.144 155.182 27.144C156.676 27.144 157.892 27.6133 158.83 28.552C159.79 29.4693 160.27 30.6747 160.27 32.168C160.27 33.64 159.79 34.8453 158.83 35.784ZM153.134 34.184C153.668 34.7173 154.35 34.984 155.182 34.984C156.014 34.984 156.686 34.7173 157.198 34.184C157.732 33.6507 157.998 32.968 157.998 32.136C157.998 31.6027 157.881 31.1227 157.646 30.696C157.412 30.2693 157.07 29.9387 156.622 29.704C156.196 29.448 155.716 29.32 155.182 29.32C154.35 29.32 153.668 29.5867 153.134 30.12C152.622 30.6533 152.366 31.336 152.366 32.168C152.366 32.9787 152.622 33.6507 153.134 34.184Z" fill="white"/>
</svg>
