<svg width="1146" height="307" viewBox="0 0 1146 307" fill="none" xmlns="http://www.w3.org/2000/svg">
<path d="M258.7 244.36H264.364V253H263.004V245.544H259.836L259.388 249.912C259.27 251.053 258.977 251.864 258.508 252.344C258.038 252.813 257.334 253.048 256.396 253.048H256.156V251.768H256.46C256.95 251.768 257.324 251.629 257.58 251.352C257.836 251.064 257.996 250.611 258.06 249.992L258.7 244.36ZM267.039 242.856V241.304H268.511V242.856H267.039ZM267.103 253V244.36H268.463V253H267.103ZM276.748 253L273.788 249.128H272.556V253H271.196V244.36H272.556V247.864H273.804L276.476 244.36H278.124L274.972 248.504L278.444 253H276.748ZM286.189 244.36H286.941V253H285.661V246.824L280.621 253H279.837V244.36H281.133V250.488L286.189 244.36ZM295.58 255.128C294.065 252.963 293.308 250.504 293.308 247.752C293.308 244.989 294.065 242.515 295.58 240.328H297.084C296.369 241.299 295.782 242.429 295.324 243.72C294.876 245.011 294.652 246.355 294.652 247.752C294.652 249.149 294.876 250.493 295.324 251.784C295.782 253.075 296.369 254.189 297.084 255.128H295.58ZM303.951 248.52C304.389 248.68 304.735 248.947 304.991 249.32C305.258 249.693 305.391 250.115 305.391 250.584C305.391 251.277 305.135 251.853 304.623 252.312C304.122 252.771 303.493 253 302.735 253H298.399V244.36H302.687C303.402 244.36 303.983 244.568 304.431 244.984C304.879 245.389 305.103 245.912 305.103 246.552C305.103 246.84 305.055 247.112 304.959 247.368C304.863 247.624 304.73 247.853 304.559 248.056C304.389 248.248 304.186 248.403 303.951 248.52ZM303.759 246.792C303.759 246.44 303.642 246.163 303.407 245.96C303.173 245.747 302.869 245.64 302.495 245.64H299.727V247.928H302.495C302.879 247.928 303.183 247.827 303.407 247.624C303.642 247.411 303.759 247.133 303.759 246.792ZM302.575 251.72C302.842 251.72 303.082 251.667 303.295 251.56C303.519 251.443 303.69 251.288 303.807 251.096C303.925 250.904 303.983 250.691 303.983 250.456C303.983 250.211 303.925 249.992 303.807 249.8C303.69 249.597 303.519 249.443 303.295 249.336C303.082 249.229 302.837 249.176 302.559 249.176H299.727V251.72H302.575ZM318.43 244.36V245.592H315.214V253H313.886V245.592H310.67V244.36H318.43ZM323.678 253.192C322.825 253.192 322.046 253 321.342 252.616C320.638 252.221 320.089 251.683 319.694 251C319.299 250.307 319.102 249.533 319.102 248.68C319.102 247.379 319.534 246.301 320.398 245.448C321.273 244.595 322.366 244.168 323.678 244.168C324.542 244.168 325.321 244.365 326.014 244.76C326.718 245.144 327.267 245.683 327.662 246.376C328.067 247.059 328.27 247.827 328.27 248.68C328.27 249.971 327.833 251.048 326.958 251.912C326.083 252.765 324.99 253.192 323.678 253.192ZM321.39 250.984C321.998 251.581 322.761 251.88 323.678 251.88C324.606 251.88 325.369 251.581 325.966 250.984C326.574 250.376 326.878 249.608 326.878 248.68C326.878 247.752 326.574 246.989 325.966 246.392C325.369 245.784 324.606 245.48 323.678 245.48C322.761 245.48 321.998 245.784 321.39 246.392C320.793 246.989 320.494 247.752 320.494 248.68C320.494 249.608 320.793 250.376 321.39 250.984ZM341.01 253H339.698L338.466 246.584L335.41 252.824H335.106L332.066 246.584L330.834 253H329.522L331.17 244.36H332.306L335.266 250.408L338.21 244.36H339.346L341.01 253ZM348.875 244.36H350.331L346.219 253.352C345.899 254.056 345.585 254.6 345.275 254.984C344.966 255.368 344.619 255.645 344.235 255.816C343.851 255.997 343.382 256.088 342.827 256.088H342.011V254.856H342.715C343.291 254.856 343.723 254.739 344.011 254.504C344.299 254.269 344.619 253.789 344.971 253.064L345.275 252.408L341.435 244.36H342.923L345.995 250.904L348.875 244.36ZM249.269 268.36H250.581V277H249.269V273.688C248.607 273.944 247.919 274.072 247.205 274.072C246.181 274.072 245.354 273.779 244.725 273.192C244.106 272.595 243.797 271.763 243.797 270.696V268.36H245.125V270.6C245.125 271.293 245.311 271.827 245.685 272.2C246.069 272.573 246.613 272.76 247.317 272.76C247.989 272.76 248.639 272.605 249.269 272.296V268.36ZM259.666 268.36H260.418V277H259.138V270.824L254.098 277H253.314V268.36H254.61V274.488L259.666 268.36ZM266.981 277.192C266.138 277.192 265.37 277 264.677 276.616C263.994 276.221 263.456 275.677 263.061 274.984C262.677 274.291 262.485 273.523 262.485 272.68C262.485 271.389 262.912 270.317 263.765 269.464C264.629 268.6 265.701 268.168 266.981 268.168C268.005 268.168 268.89 268.451 269.637 269.016C270.394 269.581 270.906 270.333 271.173 271.272H269.829C269.573 270.717 269.189 270.28 268.677 269.96C268.176 269.64 267.61 269.48 266.981 269.48C266.096 269.48 265.354 269.789 264.757 270.408C264.17 271.016 263.877 271.773 263.877 272.68C263.877 273.277 264.01 273.821 264.277 274.312C264.544 274.792 264.912 275.176 265.381 275.464C265.861 275.741 266.394 275.88 266.981 275.88C267.61 275.88 268.17 275.72 268.661 275.4C269.162 275.069 269.546 274.616 269.813 274.04H271.189C270.922 275 270.405 275.768 269.637 276.344C268.88 276.909 267.994 277.192 266.981 277.192ZM274.489 268.36H280.153V277H278.793V269.544H275.625L275.177 273.912C275.059 275.053 274.766 275.864 274.297 276.344C273.827 276.813 273.123 277.048 272.185 277.048H271.945V275.768H272.249C272.739 275.768 273.113 275.629 273.369 275.352C273.625 275.064 273.785 274.611 273.849 273.992L274.489 268.36ZM282.828 266.856V265.304H284.3V266.856H282.828ZM282.892 277V268.36H284.252V277H282.892ZM296.725 272.52C297.162 272.68 297.509 272.947 297.765 273.32C298.032 273.693 298.165 274.115 298.165 274.584C298.165 275.277 297.909 275.853 297.397 276.312C296.896 276.771 296.266 277 295.509 277H291.173V268.36H295.461C296.176 268.36 296.757 268.568 297.205 268.984C297.653 269.389 297.877 269.912 297.877 270.552C297.877 270.84 297.829 271.112 297.733 271.368C297.637 271.624 297.504 271.853 297.333 272.056C297.162 272.248 296.96 272.403 296.725 272.52ZM296.533 270.792C296.533 270.44 296.416 270.163 296.181 269.96C295.946 269.747 295.642 269.64 295.269 269.64H292.501V271.928H295.269C295.653 271.928 295.957 271.827 296.181 271.624C296.416 271.411 296.533 271.133 296.533 270.792ZM295.349 275.72C295.616 275.72 295.856 275.667 296.069 275.56C296.293 275.443 296.464 275.288 296.581 275.096C296.698 274.904 296.757 274.691 296.757 274.456C296.757 274.211 296.698 273.992 296.581 273.8C296.464 273.597 296.293 273.443 296.069 273.336C295.856 273.229 295.61 273.176 295.333 273.176H292.501V275.72H295.349ZM300.296 266.856V265.304H301.768V266.856H300.296ZM300.36 277V268.36H301.72V277H300.36ZM311.11 268.36V269.592H307.894V277H306.566V269.592H303.35V268.36H311.11ZM319.83 268.36H320.918V277H319.782L319.638 275.688C319.232 276.168 318.736 276.541 318.15 276.808C317.574 277.064 316.939 277.192 316.246 277.192C314.976 277.192 313.915 276.765 313.062 275.912C312.208 275.048 311.782 273.971 311.782 272.68C311.782 271.389 312.208 270.317 313.062 269.464C313.915 268.6 314.976 268.168 316.246 268.168C316.95 268.168 317.59 268.301 318.166 268.568C318.752 268.835 319.248 269.208 319.654 269.688L319.83 268.36ZM314.07 274.968C314.678 275.576 315.44 275.88 316.358 275.88C317.275 275.88 318.032 275.576 318.63 274.968C319.227 274.36 319.526 273.597 319.526 272.68C319.526 271.763 319.227 271 318.63 270.392C318.032 269.784 317.275 269.48 316.358 269.48C315.44 269.48 314.678 269.789 314.07 270.408C313.472 271.016 313.174 271.773 313.174 272.68C313.174 273.587 313.472 274.349 314.07 274.968ZM334.393 277H333.081L331.849 270.584L328.793 276.824H328.489L325.449 270.584L324.217 277H322.905L324.553 268.36H325.689L328.649 274.408L331.593 268.36H332.729L334.393 277ZM336.328 266.856V265.304H337.8V266.856H336.328ZM336.392 277V268.36H337.752V277H336.392ZM346.437 268.36H347.765V277H346.437V273.176H341.813V277H340.485V268.36H341.813V271.896H346.437V268.36ZM356.869 268.36H357.621V277H356.341V270.824L351.301 277H350.517V268.36H351.813V274.488L356.869 268.36ZM360.184 279.128V278.36C360.739 278.168 361.016 277.715 361.016 277H360.104V275.32H361.752V276.872C361.752 278.077 361.229 278.829 360.184 279.128ZM285.093 294.072C286.138 294.072 286.997 294.397 287.669 295.048C288.341 295.688 288.677 296.509 288.677 297.512C288.677 298.525 288.335 299.363 287.653 300.024C286.97 300.675 286.106 301 285.061 301H281.013V289.8H287.861V291.128H282.405V294.072H285.093ZM284.965 299.624C285.626 299.624 286.17 299.427 286.597 299.032C287.023 298.637 287.237 298.136 287.237 297.528C287.237 296.909 287.023 296.408 286.597 296.024C286.181 295.64 285.642 295.448 284.981 295.448H282.405V299.624H284.965ZM298.368 301L297.248 298.312H291.872L290.768 301H289.28L293.856 289.8H295.168L299.888 301H298.368ZM294.544 291.736L292.4 297.032H296.72L294.544 291.736ZM310.388 299.688H311.556V303.288H310.26V301H301.828V303.288H300.532V299.688H301.396C301.588 299.571 301.748 299.432 301.876 299.272C302.004 299.112 302.127 298.867 302.244 298.536C302.372 298.195 302.473 297.821 302.548 297.416C302.633 297.011 302.724 296.424 302.82 295.656C302.916 294.877 303.007 294.056 303.092 293.192C303.177 292.328 303.279 291.197 303.396 289.8H310.388V299.688ZM304.692 291.112C304.457 294.109 304.228 296.184 304.004 297.336C303.78 298.477 303.439 299.261 302.98 299.688H308.98V291.112H304.692ZM319.876 292.36H320.628V301H319.348V294.824L314.308 301H313.524V292.36H314.82V298.488L319.876 292.36ZM323.471 303.128H321.951C322.676 302.189 323.263 301.075 323.711 299.784C324.17 298.493 324.399 297.149 324.399 295.752C324.399 294.355 324.17 293.011 323.711 291.72C323.252 290.429 322.671 289.299 321.967 288.328H323.471C324.986 290.515 325.743 292.989 325.743 295.752C325.743 298.504 324.986 300.963 323.471 303.128Z" fill="#8D96A5"/>
<path d="M130.454 243.36H137.782V252H136.438V244.608H131.814V252H130.454V243.36ZM145.108 243.168C146.399 243.168 147.46 243.595 148.292 244.448C149.135 245.301 149.556 246.379 149.556 247.68C149.556 248.971 149.135 250.048 148.292 250.912C147.46 251.765 146.399 252.192 145.108 252.192C143.807 252.192 142.735 251.744 141.892 250.848V255.088H140.532V243.36H141.46L141.732 244.688C142.138 244.208 142.628 243.835 143.204 243.568C143.791 243.301 144.426 243.168 145.108 243.168ZM145.012 250.88C145.93 250.88 146.687 250.576 147.284 249.968C147.882 249.36 148.18 248.597 148.18 247.68C148.18 246.763 147.882 246 147.284 245.392C146.687 244.784 145.93 244.48 145.012 244.48C144.095 244.48 143.332 244.789 142.724 245.408C142.127 246.016 141.828 246.773 141.828 247.68C141.828 248.277 141.962 248.821 142.228 249.312C142.506 249.803 142.89 250.187 143.38 250.464C143.871 250.741 144.415 250.88 145.012 250.88ZM155.514 252.192C154.661 252.192 153.882 252 153.178 251.616C152.474 251.221 151.925 250.683 151.53 250C151.135 249.307 150.938 248.533 150.938 247.68C150.938 246.379 151.37 245.301 152.234 244.448C153.109 243.595 154.202 243.168 155.514 243.168C156.378 243.168 157.157 243.365 157.85 243.76C158.554 244.144 159.103 244.683 159.498 245.376C159.903 246.059 160.106 246.827 160.106 247.68C160.106 248.971 159.669 250.048 158.794 250.912C157.919 251.765 156.826 252.192 155.514 252.192ZM153.226 249.984C153.834 250.581 154.597 250.88 155.514 250.88C156.442 250.88 157.205 250.581 157.802 249.984C158.41 249.376 158.714 248.608 158.714 247.68C158.714 246.752 158.41 245.989 157.802 245.392C157.205 244.784 156.442 244.48 155.514 244.48C154.597 244.48 153.834 244.784 153.226 245.392C152.629 245.989 152.33 246.752 152.33 247.68C152.33 248.608 152.629 249.376 153.226 249.984ZM169.217 250.72H170.385V254.288H169.137V252H162.177V254.288H160.929V250.72H161.857C162.113 250.485 162.311 250.155 162.449 249.728C162.588 249.291 162.711 248.629 162.817 247.744C162.935 246.848 163.073 245.387 163.233 243.36H169.217V250.72ZM164.449 244.56C164.353 245.989 164.252 247.104 164.145 247.904C164.049 248.693 163.937 249.301 163.809 249.728C163.681 250.144 163.516 250.475 163.313 250.72H167.889V244.56H164.449ZM178.43 243.36H179.886L175.774 252.352C175.454 253.056 175.139 253.6 174.83 253.984C174.521 254.368 174.174 254.645 173.79 254.816C173.406 254.997 172.937 255.088 172.382 255.088H171.566V253.856H172.27C172.846 253.856 173.278 253.739 173.566 253.504C173.854 253.269 174.174 252.789 174.526 252.064L174.83 251.408L170.99 243.36H172.478L175.55 249.904L178.43 243.36ZM187.053 252L184.093 248.128H182.861V252H181.501V243.36H182.861V246.864H184.109L186.781 243.36H188.429L185.277 247.504L188.749 252H187.053ZM196.798 243.36V244.592H193.582V252H192.254V244.592H189.038V243.36H196.798ZM204.791 243.36H205.543V252H204.263V245.824L199.223 252H198.439V243.36H199.735V249.488L204.791 243.36ZM127.214 276H125.678L123.214 272.4L120.718 276H119.23L122.398 271.504L119.486 267.36H121.006L123.214 270.56L125.47 267.36H126.958L124.03 271.456L127.214 276ZM135.791 267.36H136.879V276H135.743L135.599 274.688C135.193 275.168 134.697 275.541 134.111 275.808C133.535 276.064 132.9 276.192 132.207 276.192C130.937 276.192 129.876 275.765 129.023 274.912C128.169 274.048 127.743 272.971 127.743 271.68C127.743 270.389 128.169 269.317 129.023 268.464C129.876 267.6 130.937 267.168 132.207 267.168C132.911 267.168 133.551 267.301 134.127 267.568C134.713 267.835 135.209 268.208 135.615 268.688L135.791 267.36ZM130.031 273.968C130.639 274.576 131.401 274.88 132.319 274.88C133.236 274.88 133.993 274.576 134.591 273.968C135.188 273.36 135.487 272.597 135.487 271.68C135.487 270.763 135.188 270 134.591 269.392C133.993 268.784 133.236 268.48 132.319 268.48C131.401 268.48 130.639 268.789 130.031 269.408C129.433 270.016 129.135 270.773 129.135 271.68C129.135 272.587 129.433 273.349 130.031 273.968ZM144.194 267.168C145.485 267.168 146.546 267.595 147.378 268.448C148.221 269.301 148.642 270.379 148.642 271.68C148.642 272.971 148.221 274.048 147.378 274.912C146.546 275.765 145.485 276.192 144.194 276.192C142.893 276.192 141.821 275.744 140.978 274.848V279.088H139.618V267.36H140.546L140.818 268.688C141.224 268.208 141.714 267.835 142.29 267.568C142.877 267.301 143.512 267.168 144.194 267.168ZM144.098 274.88C145.016 274.88 145.773 274.576 146.37 273.968C146.968 273.36 147.266 272.597 147.266 271.68C147.266 270.763 146.968 270 146.37 269.392C145.773 268.784 145.016 268.48 144.098 268.48C143.181 268.48 142.418 268.789 141.81 269.408C141.213 270.016 140.914 270.773 140.914 271.68C140.914 272.277 141.048 272.821 141.314 273.312C141.592 273.803 141.976 274.187 142.466 274.464C142.957 274.741 143.501 274.88 144.098 274.88ZM155.464 267.36H156.776V276H155.464V272.688C154.803 272.944 154.115 273.072 153.4 273.072C152.376 273.072 151.549 272.779 150.92 272.192C150.301 271.595 149.992 270.763 149.992 269.696V267.36H151.32V269.6C151.32 270.293 151.507 270.827 151.88 271.2C152.264 271.573 152.808 271.76 153.512 271.76C154.184 271.76 154.835 271.605 155.464 271.296V267.36ZM165.813 267.36H167.269L163.157 276.352C162.837 277.056 162.522 277.6 162.213 277.984C161.903 278.368 161.557 278.645 161.173 278.816C160.789 278.997 160.319 279.088 159.765 279.088H158.949V277.856H159.653C160.229 277.856 160.661 277.739 160.949 277.504C161.237 277.269 161.557 276.789 161.909 276.064L162.213 275.408L158.373 267.36H159.861L162.933 273.904L165.813 267.36ZM174.436 271.52C174.873 271.68 175.22 271.947 175.476 272.32C175.742 272.693 175.876 273.115 175.876 273.584C175.876 274.277 175.62 274.853 175.108 275.312C174.606 275.771 173.977 276 173.22 276H168.884V267.36H173.172C173.886 267.36 174.468 267.568 174.916 267.984C175.364 268.389 175.588 268.912 175.588 269.552C175.588 269.84 175.54 270.112 175.444 270.368C175.348 270.624 175.214 270.853 175.044 271.056C174.873 271.248 174.67 271.403 174.436 271.52ZM174.244 269.792C174.244 269.44 174.126 269.163 173.892 268.96C173.657 268.747 173.353 268.64 172.98 268.64H170.212V270.928H172.98C173.364 270.928 173.668 270.827 173.892 270.624C174.126 270.411 174.244 270.133 174.244 269.792ZM173.06 274.72C173.326 274.72 173.566 274.667 173.78 274.56C174.004 274.443 174.174 274.288 174.292 274.096C174.409 273.904 174.468 273.691 174.468 273.456C174.468 273.211 174.409 272.992 174.292 272.8C174.174 272.597 174.004 272.443 173.78 272.336C173.566 272.229 173.321 272.176 173.044 272.176H170.212V274.72H173.06ZM185.431 267.36H186.519V276H185.383L185.239 274.688C184.834 275.168 184.338 275.541 183.751 275.808C183.175 276.064 182.541 276.192 181.847 276.192C180.578 276.192 179.517 275.765 178.663 274.912C177.81 274.048 177.383 272.971 177.383 271.68C177.383 270.389 177.81 269.317 178.663 268.464C179.517 267.6 180.578 267.168 181.847 267.168C182.551 267.168 183.191 267.301 183.767 267.568C184.354 267.835 184.85 268.208 185.255 268.688L185.431 267.36ZM179.671 273.968C180.279 274.576 181.042 274.88 181.959 274.88C182.877 274.88 183.634 274.576 184.231 273.968C184.829 273.36 185.127 272.597 185.127 271.68C185.127 270.763 184.829 270 184.231 269.392C183.634 268.784 182.877 268.48 181.959 268.48C181.042 268.48 180.279 268.789 179.671 269.408C179.074 270.016 178.775 270.773 178.775 271.68C178.775 272.587 179.074 273.349 179.671 273.968ZM195.211 267.36H196.539V276H195.211V272.176H190.587V276H189.259V267.36H190.587V270.896H195.211V267.36ZM205.242 267.36H206.57V276H205.242V272.176H200.618V276H199.29V267.36H200.618V270.896H205.242V267.36ZM211.577 267.36H215.545V276H214.201V272.688H212.041L209.993 276H208.489L210.649 272.496C210.084 272.315 209.636 272.005 209.305 271.568C208.975 271.131 208.809 270.619 208.809 270.032C208.809 269.264 209.071 268.629 209.593 268.128C210.116 267.616 210.777 267.36 211.577 267.36ZM211.689 271.376H214.201V268.672H211.689C211.241 268.672 210.879 268.8 210.601 269.056C210.324 269.301 210.185 269.627 210.185 270.032C210.185 270.427 210.324 270.752 210.601 271.008C210.879 271.253 211.241 271.376 211.689 271.376Z" fill="#8D96A5"/>
<path d="M0 224L1146 224" stroke="#BEBEBE"/>
<path d="M268 131C268 126.582 271.582 123 276 123H330C334.418 123 338 126.582 338 131V224H268V131Z" fill="url(#paint0_linear_10096_20978)"/>
<path d="M133 52C133 47.5817 136.582 44 141 44H195C199.418 44 203 47.5817 203 52V224H133V52Z" fill="url(#paint1_linear_10096_20978)"/>
<path d="M287.219 98.552C287.235 99.816 286.987 100.84 286.475 101.624C285.963 102.392 285.283 102.992 284.435 103.424C283.603 103.856 282.659 104.144 281.603 104.288C280.547 104.448 279.491 104.528 278.435 104.528C277.059 104.528 275.867 104.368 274.859 104.048C273.851 103.728 273.011 103.304 272.339 102.776C271.683 102.248 271.187 101.648 270.851 100.976C270.531 100.288 270.371 99.584 270.371 98.864H272.939C272.939 99.312 273.059 99.752 273.299 100.184C273.555 100.6 273.931 100.976 274.427 101.312C274.923 101.648 275.539 101.92 276.275 102.128C277.027 102.336 277.907 102.44 278.915 102.44C280.083 102.44 281.043 102.344 281.795 102.152C282.547 101.944 283.139 101.672 283.571 101.336C284.019 101 284.323 100.624 284.483 100.208C284.659 99.776 284.747 99.336 284.747 98.888C284.747 98.408 284.675 97.992 284.531 97.64C284.387 97.272 284.139 96.968 283.787 96.728C283.435 96.488 282.955 96.312 282.347 96.2C281.739 96.072 280.963 96.008 280.019 96.008H274.043V93.056L283.859 89.264L271.475 89.36V87.2H285.875V90.8L277.307 93.944L279.851 93.896V93.872H279.899L279.971 93.896H280.019L280.067 93.872V93.896C280.979 93.896 281.859 93.952 282.707 94.064C283.571 94.176 284.331 94.392 284.987 94.712C285.659 95.032 286.195 95.504 286.595 96.128C286.995 96.736 287.203 97.544 287.219 98.552ZM306.985 98.552C307.001 99.816 306.753 100.84 306.241 101.624C305.729 102.392 305.049 102.992 304.201 103.424C303.369 103.856 302.425 104.144 301.369 104.288C300.313 104.448 299.257 104.528 298.201 104.528C296.825 104.528 295.633 104.368 294.625 104.048C293.617 103.728 292.777 103.304 292.105 102.776C291.449 102.248 290.953 101.648 290.617 100.976C290.297 100.288 290.137 99.584 290.137 98.864H292.705C292.705 99.312 292.825 99.752 293.065 100.184C293.321 100.6 293.697 100.976 294.193 101.312C294.689 101.648 295.305 101.92 296.041 102.128C296.793 102.336 297.673 102.44 298.681 102.44C299.849 102.44 300.809 102.344 301.561 102.152C302.313 101.944 302.905 101.672 303.337 101.336C303.785 101 304.089 100.624 304.249 100.208C304.425 99.776 304.513 99.336 304.513 98.888C304.513 98.408 304.441 97.992 304.297 97.64C304.153 97.272 303.905 96.968 303.553 96.728C303.201 96.488 302.721 96.312 302.113 96.2C301.505 96.072 300.729 96.008 299.785 96.008H293.809V93.056L303.625 89.264L291.241 89.36V87.2H305.641V90.8L297.073 93.944L299.617 93.896V93.872H299.665L299.737 93.896H299.785L299.833 93.872V93.896C300.745 93.896 301.625 93.952 302.473 94.064C303.337 94.176 304.097 94.392 304.753 94.712C305.425 95.032 305.961 95.504 306.361 96.128C306.761 96.736 306.969 97.544 306.985 98.552ZM328.07 87.2L320.606 104H318.35L325.79 87.2H328.07ZM321.35 92.504C321.35 94.072 320.91 95.32 320.03 96.248C319.15 97.16 317.878 97.616 316.214 97.616C314.55 97.616 313.262 97.16 312.35 96.248C311.454 95.32 311.006 94.072 311.006 92.504C311.006 90.952 311.454 89.76 312.35 88.928C313.262 88.096 314.55 87.68 316.214 87.68C317.878 87.68 319.15 88.096 320.03 88.928C320.91 89.76 321.35 90.952 321.35 92.504ZM313.046 92.72C313.062 93.68 313.302 94.44 313.766 95C314.23 95.544 315.014 95.816 316.118 95.816H316.214C317.318 95.816 318.102 95.552 318.566 95.024C319.046 94.48 319.286 93.704 319.286 92.696C319.302 91.704 319.07 90.92 318.59 90.344C318.126 89.768 317.342 89.48 316.238 89.48H316.142C315.038 89.48 314.238 89.768 313.742 90.344C313.262 90.904 313.03 91.696 313.046 92.72ZM335.534 98.264C335.534 99.832 335.094 101.08 334.214 102.008C333.334 102.92 332.062 103.376 330.398 103.376C328.734 103.376 327.454 102.92 326.558 102.008C325.662 101.08 325.214 99.832 325.214 98.264C325.214 96.712 325.662 95.52 326.558 94.688C327.454 93.856 328.734 93.44 330.398 93.44C332.062 93.44 333.334 93.856 334.214 94.688C335.094 95.52 335.534 96.712 335.534 98.264ZM327.254 98.48C327.27 99.44 327.502 100.2 327.95 100.76C328.414 101.304 329.198 101.576 330.302 101.576H330.422C331.526 101.576 332.31 101.312 332.774 100.784C333.238 100.24 333.478 99.464 333.494 98.456C333.494 97.464 333.262 96.68 332.798 96.104C332.334 95.528 331.55 95.24 330.446 95.24H330.35C329.23 95.24 328.43 95.528 327.95 96.104C327.47 96.664 327.238 97.456 327.254 98.48Z" fill="#8D96A5"/>
<path d="M151.417 19.288C151.417 20.376 151.217 21.32 150.817 22.12C150.417 22.904 149.865 23.552 149.161 24.064C148.473 24.56 147.665 24.928 146.737 25.168C145.809 25.408 144.825 25.528 143.785 25.528C142.569 25.528 141.465 25.424 140.473 25.216C139.497 25.008 138.657 24.688 137.953 24.256C137.249 23.824 136.705 23.272 136.321 22.6C135.937 21.912 135.745 21.088 135.745 20.128H138.289C138.289 20.624 138.385 21.072 138.577 21.472C138.769 21.872 139.073 22.216 139.489 22.504C139.921 22.792 140.473 23.016 141.145 23.176C141.833 23.336 142.665 23.416 143.641 23.416C144.633 23.416 145.465 23.328 146.137 23.152C146.809 22.96 147.353 22.688 147.769 22.336C148.185 21.968 148.481 21.52 148.657 20.992C148.849 20.448 148.945 19.816 148.945 19.096C148.945 18.456 148.809 17.92 148.537 17.488C148.265 17.04 147.889 16.68 147.409 16.408C146.945 16.136 146.385 15.944 145.729 15.832C145.089 15.704 144.393 15.64 143.641 15.64C142.489 15.64 141.593 15.752 140.953 15.976C140.329 16.2 139.857 16.448 139.537 16.72C139.169 17.04 138.945 17.4 138.865 17.8L138.841 17.752V17.8H136.489V8.2H150.145V10.336H138.841V14.872C139.257 14.552 139.865 14.248 140.665 13.96C141.465 13.672 142.545 13.528 143.905 13.528C144.929 13.528 145.897 13.624 146.809 13.816C147.721 13.992 148.513 14.304 149.185 14.752C149.873 15.184 150.417 15.768 150.817 16.504C151.217 17.24 151.417 18.168 151.417 19.288ZM172.323 20.032C172.323 20.976 172.171 21.8 171.867 22.504C171.579 23.192 171.107 23.768 170.451 24.232C169.811 24.68 168.987 25.016 167.979 25.24C166.987 25.464 165.779 25.576 164.355 25.576L163.851 25.552C161.019 25.552 158.955 25.104 157.659 24.208C156.363 23.296 155.715 21.904 155.715 20.032C155.715 19.44 155.795 18.912 155.955 18.448C156.115 17.984 156.331 17.584 156.603 17.248C156.891 16.896 157.219 16.592 157.587 16.336C157.955 16.08 158.347 15.872 158.763 15.712C158.203 15.344 157.755 14.896 157.419 14.368C157.083 13.84 156.915 13.216 156.915 12.496C156.915 11.744 157.043 11.072 157.299 10.48C157.555 9.872 157.955 9.36 158.499 8.944C159.059 8.528 159.779 8.208 160.659 7.984C161.539 7.76 162.603 7.648 163.851 7.648C164.731 7.648 165.603 7.696 166.467 7.792C167.331 7.888 168.107 8.104 168.795 8.44C169.483 8.776 170.035 9.264 170.451 9.904C170.883 10.544 171.099 11.408 171.099 12.496C171.099 13.216 170.939 13.84 170.619 14.368C170.299 14.88 169.875 15.32 169.347 15.688C169.747 15.848 170.123 16.056 170.475 16.312C170.843 16.568 171.163 16.872 171.435 17.224C171.707 17.56 171.923 17.96 172.083 18.424C172.243 18.888 172.323 19.424 172.323 20.032ZM159.411 12.568C159.411 13.128 159.563 13.568 159.867 13.888C160.171 14.208 160.555 14.448 161.019 14.608C161.483 14.752 161.979 14.848 162.507 14.896C163.051 14.928 163.547 14.944 163.995 14.944H164.259C164.723 14.944 165.211 14.928 165.723 14.896C166.235 14.848 166.707 14.752 167.139 14.608C167.571 14.448 167.923 14.208 168.195 13.888C168.483 13.568 168.627 13.128 168.627 12.568C168.627 12.008 168.531 11.544 168.339 11.176C168.163 10.808 167.891 10.52 167.523 10.312C167.155 10.088 166.699 9.936 166.155 9.856C165.611 9.76 164.979 9.712 164.259 9.712H163.995C163.275 9.712 162.627 9.76 162.051 9.856C161.491 9.936 161.011 10.088 160.611 10.312C160.227 10.52 159.931 10.808 159.723 11.176C159.515 11.544 159.411 12.008 159.411 12.568ZM158.211 20.272C158.211 21.04 158.411 21.64 158.811 22.072C159.227 22.504 159.731 22.824 160.323 23.032C160.915 23.24 161.539 23.368 162.195 23.416C162.867 23.448 163.459 23.464 163.971 23.464H164.211C164.723 23.464 165.299 23.44 165.939 23.392C166.595 23.344 167.211 23.216 167.787 23.008C168.363 22.8 168.843 22.48 169.227 22.048C169.627 21.616 169.827 21.016 169.827 20.248C169.827 19.608 169.731 19.08 169.539 18.664C169.347 18.248 169.035 17.92 168.603 17.68C168.171 17.424 167.611 17.248 166.923 17.152C166.235 17.04 165.395 16.984 164.403 16.984H164.091C163.067 16.984 162.179 17.032 161.427 17.128C160.691 17.224 160.083 17.4 159.603 17.656C159.123 17.896 158.771 18.232 158.547 18.664C158.323 19.08 158.211 19.616 158.211 20.272ZM193.633 8.2L186.169 25H183.913L191.353 8.2H193.633ZM186.913 13.504C186.913 15.072 186.473 16.32 185.593 17.248C184.713 18.16 183.441 18.616 181.777 18.616C180.113 18.616 178.825 18.16 177.913 17.248C177.017 16.32 176.569 15.072 176.569 13.504C176.569 11.952 177.017 10.76 177.913 9.928C178.825 9.096 180.113 8.68 181.777 8.68C183.441 8.68 184.713 9.096 185.593 9.928C186.473 10.76 186.913 11.952 186.913 13.504ZM178.609 13.72C178.625 14.68 178.865 15.44 179.329 16C179.793 16.544 180.577 16.816 181.681 16.816H181.777C182.881 16.816 183.665 16.552 184.129 16.024C184.609 15.48 184.849 14.704 184.849 13.696C184.865 12.704 184.633 11.92 184.153 11.344C183.689 10.768 182.905 10.48 181.801 10.48H181.705C180.601 10.48 179.801 10.768 179.305 11.344C178.825 11.904 178.593 12.696 178.609 13.72ZM201.097 19.264C201.097 20.832 200.657 22.08 199.777 23.008C198.897 23.92 197.625 24.376 195.961 24.376C194.297 24.376 193.017 23.92 192.121 23.008C191.225 22.08 190.777 20.832 190.777 19.264C190.777 17.712 191.225 16.52 192.121 15.688C193.017 14.856 194.297 14.44 195.961 14.44C197.625 14.44 198.897 14.856 199.777 15.688C200.657 16.52 201.097 17.712 201.097 19.264ZM192.817 19.48C192.833 20.44 193.065 21.2 193.513 21.76C193.977 22.304 194.761 22.576 195.865 22.576H195.985C197.089 22.576 197.873 22.312 198.337 21.784C198.801 21.24 199.041 20.464 199.057 19.456C199.057 18.464 198.825 17.68 198.361 17.104C197.897 16.528 197.113 16.24 196.009 16.24H195.913C194.793 16.24 193.993 16.528 193.513 17.104C193.033 17.664 192.801 18.456 192.817 19.48Z" fill="#8D96A5"/>
<path d="M423.592 253.192C422.739 253.192 421.96 253 421.256 252.616C420.552 252.221 420.003 251.683 419.608 251C419.213 250.307 419.016 249.533 419.016 248.68C419.016 247.379 419.448 246.301 420.312 245.448C421.187 244.595 422.28 244.168 423.592 244.168C424.456 244.168 425.235 244.365 425.928 244.76C426.632 245.144 427.181 245.683 427.576 246.376C427.981 247.059 428.184 247.827 428.184 248.68C428.184 249.971 427.747 251.048 426.872 251.912C425.997 252.765 424.904 253.192 423.592 253.192ZM421.304 250.984C421.912 251.581 422.675 251.88 423.592 251.88C424.52 251.88 425.283 251.581 425.88 250.984C426.488 250.376 426.792 249.608 426.792 248.68C426.792 247.752 426.488 246.989 425.88 246.392C425.283 245.784 424.52 245.48 423.592 245.48C422.675 245.48 421.912 245.784 421.304 246.392C420.707 246.989 420.408 247.752 420.408 248.68C420.408 249.608 420.707 250.376 421.304 250.984ZM437.296 251.72H438.464V255.288H437.216V253H430.256V255.288H429.008V251.72H429.936C430.192 251.485 430.389 251.155 430.528 250.728C430.666 250.291 430.789 249.629 430.896 248.744C431.013 247.848 431.152 246.387 431.312 244.36H437.296V251.72ZM432.528 245.56C432.432 246.989 432.33 248.104 432.224 248.904C432.128 249.693 432.016 250.301 431.888 250.728C431.76 251.144 431.594 251.475 431.392 251.72H435.968V245.56H432.528ZM442.726 244.36H446.694V253H445.35V249.688H443.19L441.142 253H439.638L441.798 249.496C441.232 249.315 440.784 249.005 440.454 248.568C440.123 248.131 439.958 247.619 439.958 247.032C439.958 246.264 440.219 245.629 440.742 245.128C441.264 244.616 441.926 244.36 442.726 244.36ZM442.838 248.376H445.35V245.672H442.838C442.39 245.672 442.027 245.8 441.75 246.056C441.472 246.301 441.334 246.627 441.334 247.032C441.334 247.427 441.472 247.752 441.75 248.008C442.027 248.253 442.39 248.376 442.838 248.376ZM454.799 244.36V245.576H450.751V253H449.423V244.36H454.799ZM454.997 255.128V254.36C455.551 254.168 455.829 253.715 455.829 253H454.917V251.32H456.565V252.872C456.565 254.077 456.042 254.829 454.997 255.128ZM419.092 272.52C419.529 272.68 419.876 272.947 420.132 273.32C420.399 273.693 420.532 274.115 420.532 274.584C420.532 275.277 420.276 275.853 419.764 276.312C419.263 276.771 418.633 277 417.876 277H413.54V268.36H417.828C418.543 268.36 419.124 268.568 419.572 268.984C420.02 269.389 420.244 269.912 420.244 270.552C420.244 270.84 420.196 271.112 420.1 271.368C420.004 271.624 419.871 271.853 419.7 272.056C419.529 272.248 419.327 272.403 419.092 272.52ZM418.9 270.792C418.9 270.44 418.783 270.163 418.548 269.96C418.313 269.747 418.009 269.64 417.636 269.64H414.868V271.928H417.636C418.02 271.928 418.324 271.827 418.548 271.624C418.783 271.411 418.9 271.133 418.9 270.792ZM417.716 275.72C417.983 275.72 418.223 275.667 418.436 275.56C418.66 275.443 418.831 275.288 418.948 275.096C419.065 274.904 419.124 274.691 419.124 274.456C419.124 274.211 419.065 273.992 418.948 273.8C418.831 273.597 418.66 273.443 418.436 273.336C418.223 273.229 417.977 273.176 417.7 273.176H414.868V275.72H417.716ZM427.224 272.44C428.013 272.867 428.408 273.571 428.408 274.552C428.408 275.064 428.264 275.523 427.976 275.928C427.698 276.323 427.304 276.632 426.792 276.856C426.29 277.08 425.725 277.192 425.096 277.192C424.178 277.192 423.421 276.957 422.824 276.488C422.237 276.019 421.906 275.389 421.832 274.6H423.064C423.149 275.005 423.373 275.325 423.736 275.56C424.098 275.784 424.552 275.896 425.096 275.896C425.672 275.896 426.146 275.763 426.52 275.496C426.893 275.229 427.08 274.877 427.08 274.44C427.08 274.035 426.92 273.699 426.6 273.432C426.29 273.165 425.896 273.032 425.416 273.032H424.136V271.928H425.416C425.864 271.928 426.221 271.816 426.488 271.592C426.765 271.357 426.904 271.059 426.904 270.696C426.904 270.301 426.738 269.981 426.408 269.736C426.077 269.491 425.64 269.368 425.096 269.368C424.616 269.368 424.216 269.475 423.896 269.688C423.576 269.901 423.373 270.189 423.288 270.552H422.056C422.098 270.083 422.253 269.667 422.52 269.304C422.797 268.941 423.16 268.664 423.608 268.472C424.066 268.269 424.573 268.168 425.128 268.168C426.013 268.168 426.744 268.397 427.32 268.856C427.896 269.315 428.184 269.891 428.184 270.584C428.184 271.416 427.864 272.035 427.224 272.44ZM436.703 268.36H438.159L434.047 277.352C433.727 278.056 433.413 278.6 433.103 278.984C432.794 279.368 432.447 279.645 432.063 279.816C431.679 279.997 431.21 280.088 430.655 280.088H429.839V278.856H430.543C431.119 278.856 431.551 278.739 431.839 278.504C432.127 278.269 432.447 277.789 432.799 277.064L433.103 276.408L429.263 268.36H430.751L433.823 274.904L436.703 268.36ZM446.43 268.36V269.592H443.214V277H441.886V269.592H438.67V268.36H446.43ZM454.727 268.36V269.592H451.511V277H450.183V269.592H446.967V268.36H454.727ZM458.515 268.36H462.483V277H461.139V273.688H458.979L456.931 277H455.427L457.587 273.496C457.021 273.315 456.573 273.005 456.243 272.568C455.912 272.131 455.747 271.619 455.747 271.032C455.747 270.264 456.008 269.629 456.531 269.128C457.053 268.616 457.715 268.36 458.515 268.36ZM458.627 272.376H461.139V269.672H458.627C458.179 269.672 457.816 269.8 457.539 270.056C457.261 270.301 457.123 270.627 457.123 271.032C457.123 271.427 457.261 271.752 457.539 272.008C457.816 272.253 458.179 272.376 458.627 272.376Z" fill="#8D96A5"/>
<path d="M518.864 248.44C519.654 248.867 520.048 249.571 520.048 250.552C520.048 251.064 519.904 251.523 519.616 251.928C519.339 252.323 518.944 252.632 518.432 252.856C517.931 253.08 517.366 253.192 516.736 253.192C515.819 253.192 515.062 252.957 514.464 252.488C513.878 252.019 513.547 251.389 513.472 250.6H514.704C514.79 251.005 515.014 251.325 515.376 251.56C515.739 251.784 516.192 251.896 516.736 251.896C517.312 251.896 517.787 251.763 518.16 251.496C518.534 251.229 518.72 250.877 518.72 250.44C518.72 250.035 518.56 249.699 518.24 249.432C517.931 249.165 517.536 249.032 517.056 249.032H515.776V247.928H517.056C517.504 247.928 517.862 247.816 518.128 247.592C518.406 247.357 518.544 247.059 518.544 246.696C518.544 246.301 518.379 245.981 518.048 245.736C517.718 245.491 517.28 245.368 516.736 245.368C516.256 245.368 515.856 245.475 515.536 245.688C515.216 245.901 515.014 246.189 514.928 246.552H513.696C513.739 246.083 513.894 245.667 514.16 245.304C514.438 244.941 514.8 244.664 515.248 244.472C515.707 244.269 516.214 244.168 516.768 244.168C517.654 244.168 518.384 244.397 518.96 244.856C519.536 245.315 519.824 245.891 519.824 246.584C519.824 247.416 519.504 248.035 518.864 248.44ZM529.541 244.36H530.629V253H529.493L529.349 251.688C528.943 252.168 528.447 252.541 527.861 252.808C527.285 253.064 526.65 253.192 525.957 253.192C524.687 253.192 523.626 252.765 522.773 251.912C521.919 251.048 521.493 249.971 521.493 248.68C521.493 247.389 521.919 246.317 522.773 245.464C523.626 244.6 524.687 244.168 525.957 244.168C526.661 244.168 527.301 244.301 527.877 244.568C528.463 244.835 528.959 245.208 529.365 245.688L529.541 244.36ZM523.781 250.968C524.389 251.576 525.151 251.88 526.069 251.88C526.986 251.88 527.743 251.576 528.341 250.968C528.938 250.36 529.237 249.597 529.237 248.68C529.237 247.763 528.938 247 528.341 246.392C527.743 245.784 526.986 245.48 526.069 245.48C525.151 245.48 524.389 245.789 523.781 246.408C523.183 247.016 522.885 247.773 522.885 248.68C522.885 249.587 523.183 250.349 523.781 250.968ZM537.176 253.192C536.334 253.192 535.566 253 534.872 252.616C534.19 252.221 533.651 251.677 533.256 250.984C532.872 250.291 532.68 249.523 532.68 248.68C532.68 247.389 533.107 246.317 533.96 245.464C534.824 244.6 535.896 244.168 537.176 244.168C538.2 244.168 539.086 244.451 539.832 245.016C540.59 245.581 541.102 246.333 541.368 247.272H540.024C539.768 246.717 539.384 246.28 538.872 245.96C538.371 245.64 537.806 245.48 537.176 245.48C536.291 245.48 535.55 245.789 534.952 246.408C534.366 247.016 534.072 247.773 534.072 248.68C534.072 249.277 534.206 249.821 534.472 250.312C534.739 250.792 535.107 251.176 535.576 251.464C536.056 251.741 536.59 251.88 537.176 251.88C537.806 251.88 538.366 251.72 538.856 251.4C539.358 251.069 539.742 250.616 540.008 250.04H541.384C541.118 251 540.6 251.768 539.832 252.344C539.075 252.909 538.19 253.192 537.176 253.192ZM547.178 253.192C546.325 253.192 545.546 253 544.842 252.616C544.138 252.221 543.589 251.683 543.194 251C542.799 250.307 542.602 249.533 542.602 248.68C542.602 247.379 543.034 246.301 543.898 245.448C544.773 244.595 545.866 244.168 547.178 244.168C548.042 244.168 548.821 244.365 549.514 244.76C550.218 245.144 550.767 245.683 551.162 246.376C551.567 247.059 551.77 247.827 551.77 248.68C551.77 249.971 551.333 251.048 550.458 251.912C549.583 252.765 548.49 253.192 547.178 253.192ZM544.89 250.984C545.498 251.581 546.261 251.88 547.178 251.88C548.106 251.88 548.869 251.581 549.466 250.984C550.074 250.376 550.378 249.608 550.378 248.68C550.378 247.752 550.074 246.989 549.466 246.392C548.869 245.784 548.106 245.48 547.178 245.48C546.261 245.48 545.498 245.784 544.89 246.392C544.293 246.989 543.994 247.752 543.994 248.68C543.994 249.608 544.293 250.376 544.89 250.984ZM558.077 244.808C559.304 244.808 560.312 245.197 561.101 245.976C561.89 246.744 562.285 247.731 562.285 248.936C562.285 250.184 561.874 251.208 561.053 252.008C560.232 252.797 559.176 253.192 557.885 253.192C556.53 253.192 555.448 252.765 554.637 251.912C553.837 251.048 553.437 249.896 553.437 248.456C553.437 246.237 553.837 244.579 554.637 243.48C555.437 242.381 556.824 241.592 558.797 241.112L561.357 240.504V241.848L558.829 242.456C557.709 242.712 556.834 243.133 556.205 243.72C555.576 244.307 555.17 245.085 554.989 246.056C555.746 245.224 556.776 244.808 558.077 244.808ZM557.885 251.88C558.738 251.88 559.453 251.603 560.029 251.048C560.605 250.483 560.893 249.784 560.893 248.952C560.893 248.109 560.605 247.405 560.029 246.84C559.453 246.275 558.738 245.992 557.885 245.992C557.021 245.992 556.301 246.275 555.725 246.84C555.149 247.395 554.861 248.093 554.861 248.936C554.861 249.352 554.936 249.741 555.085 250.104C555.245 250.467 555.458 250.776 555.725 251.032C555.992 251.288 556.312 251.496 556.685 251.656C557.058 251.805 557.458 251.88 557.885 251.88ZM570.72 244.36H571.472V253H570.192V246.824L565.152 253H564.368V244.36H565.664V250.488L570.72 244.36ZM583.791 244.36V245.576H579.743V253H578.415V244.36H583.791ZM585.382 242.856V241.304H586.854V242.856H585.382ZM585.446 253V244.36H586.806V253H585.446ZM594.916 244.36V245.576H590.868V253H589.54V244.36H594.916ZM596.507 242.856V241.304H597.979V242.856H596.507ZM596.571 253V244.36H597.931V253H596.571ZM607.401 249.864H608.745C608.5 250.856 607.988 251.661 607.209 252.28C606.43 252.888 605.518 253.192 604.473 253.192C603.641 253.192 602.878 252.995 602.185 252.6C601.502 252.195 600.964 251.645 600.569 250.952C600.174 250.259 599.977 249.491 599.977 248.648C599.977 247.379 600.404 246.317 601.257 245.464C602.121 244.6 603.193 244.168 604.473 244.168C605.156 244.168 605.79 244.301 606.377 244.568C606.964 244.835 607.46 245.213 607.865 245.704C608.27 246.184 608.553 246.744 608.713 247.384H607.401C607.177 246.776 606.798 246.291 606.265 245.928C605.732 245.565 605.129 245.384 604.457 245.384C604.137 245.384 603.828 245.427 603.529 245.512C603.23 245.597 602.958 245.72 602.713 245.88C602.468 246.04 602.249 246.232 602.057 246.456C601.865 246.669 601.705 246.915 601.577 247.192C601.46 247.469 601.374 247.768 601.321 248.088H605.225V249.208H601.321C601.396 249.741 601.577 250.216 601.865 250.632C602.153 251.048 602.521 251.373 602.969 251.608C603.417 251.843 603.913 251.96 604.457 251.96C605.14 251.96 605.748 251.773 606.281 251.4C606.814 251.016 607.188 250.504 607.401 249.864ZM616.586 244.36H617.914V253H616.586V249.176H611.962V253H610.634V244.36H611.962V247.896H616.586V244.36ZM627.017 244.36H627.769V253H626.489V246.824L621.449 253H620.665V244.36H621.961V250.488L627.017 244.36ZM630.332 255.128V254.36C630.887 254.168 631.164 253.715 631.164 253H630.252V251.32H631.9V252.872C631.9 254.077 631.378 254.829 630.332 255.128ZM537.467 275.72H538.635V279.288H537.387V277H530.427V279.288H529.179V275.72H530.107C530.363 275.485 530.561 275.155 530.699 274.728C530.838 274.291 530.961 273.629 531.067 272.744C531.185 271.848 531.323 270.387 531.483 268.36H537.467V275.72ZM532.699 269.56C532.603 270.989 532.502 272.104 532.395 272.904C532.299 273.693 532.187 274.301 532.059 274.728C531.931 275.144 531.766 275.475 531.563 275.72H536.139V269.56H532.699ZM544.373 277.192C543.52 277.192 542.741 277 542.037 276.616C541.333 276.221 540.784 275.683 540.389 275C539.995 274.307 539.797 273.533 539.797 272.68C539.797 271.379 540.229 270.301 541.093 269.448C541.968 268.595 543.061 268.168 544.373 268.168C545.237 268.168 546.016 268.365 546.709 268.76C547.413 269.144 547.963 269.683 548.357 270.376C548.763 271.059 548.965 271.827 548.965 272.68C548.965 273.971 548.528 275.048 547.653 275.912C546.779 276.765 545.685 277.192 544.373 277.192ZM542.085 274.984C542.693 275.581 543.456 275.88 544.373 275.88C545.301 275.88 546.064 275.581 546.661 274.984C547.269 274.376 547.573 273.608 547.573 272.68C547.573 271.752 547.269 270.989 546.661 270.392C546.064 269.784 545.301 269.48 544.373 269.48C543.456 269.48 542.693 269.784 542.085 270.392C541.488 270.989 541.189 271.752 541.189 272.68C541.189 273.608 541.488 274.376 542.085 274.984ZM556.408 268.36V269.576H552.36V277H551.032V268.36H556.408ZM558.879 268.36H564.543V277H563.183V269.544H560.015L559.567 273.912C559.45 275.053 559.157 275.864 558.687 276.344C558.218 276.813 557.514 277.048 556.575 277.048H556.335V275.768H556.639C557.13 275.768 557.503 275.629 557.759 275.352C558.015 275.064 558.175 274.611 558.239 273.992L558.879 268.36ZM569.538 268.36H573.506V277H572.162V273.688H570.002L567.954 277H566.45L568.61 273.496C568.045 273.315 567.597 273.005 567.266 272.568C566.936 272.131 566.77 271.619 566.77 271.032C566.77 270.264 567.032 269.629 567.554 269.128C568.077 268.616 568.738 268.36 569.538 268.36ZM569.65 272.376H572.162V269.672H569.65C569.202 269.672 568.84 269.8 568.562 270.056C568.285 270.301 568.146 270.627 568.146 271.032C568.146 271.427 568.285 271.752 568.562 272.008C568.84 272.253 569.202 272.376 569.65 272.376ZM583.467 275.72H584.635V279.288H583.387V277H576.427V279.288H575.179V275.72H576.107C576.363 275.485 576.561 275.155 576.699 274.728C576.838 274.291 576.961 273.629 577.067 272.744C577.185 271.848 577.323 270.387 577.483 268.36H583.467V275.72ZM578.699 269.56C578.603 270.989 578.502 272.104 578.395 272.904C578.299 273.693 578.187 274.301 578.059 274.728C577.931 275.144 577.766 275.475 577.563 275.72H582.139V269.56H578.699ZM592.68 268.36H594.136L590.024 277.352C589.704 278.056 589.389 278.6 589.08 278.984C588.771 279.368 588.424 279.645 588.04 279.816C587.656 279.997 587.187 280.088 586.632 280.088H585.816V278.856H586.52C587.096 278.856 587.528 278.739 587.816 278.504C588.104 278.269 588.424 277.789 588.776 277.064L589.08 276.408L585.24 268.36H586.728L589.8 274.904L592.68 268.36ZM604.013 272.44C604.802 272.867 605.197 273.571 605.197 274.552C605.197 275.064 605.053 275.523 604.765 275.928C604.487 276.323 604.093 276.632 603.581 276.856C603.079 277.08 602.514 277.192 601.885 277.192C600.967 277.192 600.21 276.957 599.613 276.488C599.026 276.019 598.695 275.389 598.621 274.6H599.853C599.938 275.005 600.162 275.325 600.525 275.56C600.887 275.784 601.341 275.896 601.885 275.896C602.461 275.896 602.935 275.763 603.309 275.496C603.682 275.229 603.869 274.877 603.869 274.44C603.869 274.035 603.709 273.699 603.389 273.432C603.079 273.165 602.685 273.032 602.205 273.032H600.925V271.928H602.205C602.653 271.928 603.01 271.816 603.277 271.592C603.554 271.357 603.693 271.059 603.693 270.696C603.693 270.301 603.527 269.981 603.197 269.736C602.866 269.491 602.429 269.368 601.885 269.368C601.405 269.368 601.005 269.475 600.685 269.688C600.365 269.901 600.162 270.189 600.077 270.552H598.845C598.887 270.083 599.042 269.667 599.309 269.304C599.586 268.941 599.949 268.664 600.397 268.472C600.855 268.269 601.362 268.168 601.917 268.168C602.802 268.168 603.533 268.397 604.109 268.856C604.685 269.315 604.973 269.891 604.973 270.584C604.973 271.416 604.653 272.035 604.013 272.44ZM614.689 268.36H615.777V277H614.641L614.497 275.688C614.092 276.168 613.596 276.541 613.009 276.808C612.433 277.064 611.798 277.192 611.105 277.192C609.836 277.192 608.774 276.765 607.921 275.912C607.068 275.048 606.641 273.971 606.641 272.68C606.641 271.389 607.068 270.317 607.921 269.464C608.774 268.6 609.836 268.168 611.105 268.168C611.809 268.168 612.449 268.301 613.025 268.568C613.612 268.835 614.108 269.208 614.513 269.688L614.689 268.36ZM608.929 274.968C609.537 275.576 610.3 275.88 611.217 275.88C612.134 275.88 612.892 275.576 613.489 274.968C614.086 274.36 614.385 273.597 614.385 272.68C614.385 271.763 614.086 271 613.489 270.392C612.892 269.784 612.134 269.48 611.217 269.48C610.3 269.48 609.537 269.789 608.929 270.408C608.332 271.016 608.033 271.773 608.033 272.68C608.033 273.587 608.332 274.349 608.929 274.968ZM550.551 301.192C549.709 301.192 548.941 301 548.247 300.616C547.565 300.221 547.026 299.677 546.631 298.984C546.247 298.291 546.055 297.523 546.055 296.68C546.055 295.389 546.482 294.317 547.335 293.464C548.199 292.6 549.271 292.168 550.551 292.168C551.575 292.168 552.461 292.451 553.207 293.016C553.965 293.581 554.477 294.333 554.743 295.272H553.399C553.143 294.717 552.759 294.28 552.247 293.96C551.746 293.64 551.181 293.48 550.551 293.48C549.666 293.48 548.925 293.789 548.327 294.408C547.741 295.016 547.447 295.773 547.447 296.68C547.447 297.277 547.581 297.821 547.847 298.312C548.114 298.792 548.482 299.176 548.951 299.464C549.431 299.741 549.965 299.88 550.551 299.88C551.181 299.88 551.741 299.72 552.231 299.4C552.733 299.069 553.117 298.616 553.383 298.04H554.759C554.493 299 553.975 299.768 553.207 300.344C552.45 300.909 551.565 301.192 550.551 301.192ZM560.553 301.192C559.7 301.192 558.921 301 558.217 300.616C557.513 300.221 556.964 299.683 556.569 299C556.174 298.307 555.977 297.533 555.977 296.68C555.977 295.379 556.409 294.301 557.273 293.448C558.148 292.595 559.241 292.168 560.553 292.168C561.417 292.168 562.196 292.365 562.889 292.76C563.593 293.144 564.142 293.683 564.537 294.376C564.942 295.059 565.145 295.827 565.145 296.68C565.145 297.971 564.708 299.048 563.833 299.912C562.958 300.765 561.865 301.192 560.553 301.192ZM558.265 298.984C558.873 299.581 559.636 299.88 560.553 299.88C561.481 299.88 562.244 299.581 562.841 298.984C563.449 298.376 563.753 297.608 563.753 296.68C563.753 295.752 563.449 294.989 562.841 294.392C562.244 293.784 561.481 293.48 560.553 293.48C559.636 293.48 558.873 293.784 558.265 294.392C557.668 294.989 557.369 295.752 557.369 296.68C557.369 297.608 557.668 298.376 558.265 298.984ZM571.452 292.808C572.679 292.808 573.687 293.197 574.476 293.976C575.265 294.744 575.66 295.731 575.66 296.936C575.66 298.184 575.249 299.208 574.428 300.008C573.607 300.797 572.551 301.192 571.26 301.192C569.905 301.192 568.823 300.765 568.012 299.912C567.212 299.048 566.812 297.896 566.812 296.456C566.812 294.237 567.212 292.579 568.012 291.48C568.812 290.381 570.199 289.592 572.172 289.112L574.732 288.504V289.848L572.204 290.456C571.084 290.712 570.209 291.133 569.58 291.72C568.951 292.307 568.545 293.085 568.364 294.056C569.121 293.224 570.151 292.808 571.452 292.808ZM571.26 299.88C572.113 299.88 572.828 299.603 573.404 299.048C573.98 298.483 574.268 297.784 574.268 296.952C574.268 296.109 573.98 295.405 573.404 294.84C572.828 294.275 572.113 293.992 571.26 293.992C570.396 293.992 569.676 294.275 569.1 294.84C568.524 295.395 568.236 296.093 568.236 296.936C568.236 297.352 568.311 297.741 568.46 298.104C568.62 298.467 568.833 298.776 569.1 299.032C569.367 299.288 569.687 299.496 570.06 299.656C570.433 299.805 570.833 299.88 571.26 299.88ZM581.631 301.192C580.778 301.192 579.999 301 579.295 300.616C578.591 300.221 578.042 299.683 577.647 299C577.253 298.307 577.055 297.533 577.055 296.68C577.055 295.379 577.487 294.301 578.351 293.448C579.226 292.595 580.319 292.168 581.631 292.168C582.495 292.168 583.274 292.365 583.967 292.76C584.671 293.144 585.221 293.683 585.615 294.376C586.021 295.059 586.223 295.827 586.223 296.68C586.223 297.971 585.786 299.048 584.911 299.912C584.037 300.765 582.943 301.192 581.631 301.192ZM579.343 298.984C579.951 299.581 580.714 299.88 581.631 299.88C582.559 299.88 583.322 299.581 583.919 298.984C584.527 298.376 584.831 297.608 584.831 296.68C584.831 295.752 584.527 294.989 583.919 294.392C583.322 293.784 582.559 293.48 581.631 293.48C580.714 293.48 579.951 293.784 579.343 294.392C578.746 294.989 578.447 295.752 578.447 296.68C578.447 297.608 578.746 298.376 579.343 298.984ZM595.522 292.168C596.791 292.168 597.842 292.6 598.674 293.464C599.517 294.317 599.938 295.395 599.938 296.696C599.938 297.987 599.522 299.059 598.69 299.912C597.858 300.765 596.802 301.192 595.522 301.192C594.359 301.192 593.367 300.835 592.546 300.12C591.735 299.395 591.261 298.461 591.122 297.32H589.65V301.016H588.29V292.36H589.65V296.04H591.138C591.202 295.485 591.357 294.968 591.602 294.488C591.858 294.008 592.178 293.597 592.562 293.256C592.946 292.915 593.389 292.648 593.89 292.456C594.402 292.264 594.946 292.168 595.522 292.168ZM595.522 299.88C595.949 299.88 596.349 299.8 596.722 299.64C597.106 299.469 597.431 299.245 597.698 298.968C597.965 298.691 598.173 298.355 598.322 297.96C598.482 297.565 598.562 297.144 598.562 296.696C598.562 295.779 598.269 295.016 597.682 294.408C597.106 293.789 596.386 293.48 595.522 293.48C594.647 293.48 593.922 293.789 593.346 294.408C592.77 295.016 592.482 295.779 592.482 296.696C592.482 297.293 592.61 297.837 592.866 298.328C593.133 298.808 593.495 299.187 593.954 299.464C594.423 299.741 594.946 299.88 595.522 299.88Z" fill="#8D96A5"/>
<path d="M669.837 244.36H677.165V253H675.821V245.608H671.197V253H669.837V244.36ZM683.803 253.192C682.95 253.192 682.171 253 681.467 252.616C680.763 252.221 680.214 251.683 679.819 251C679.424 250.307 679.227 249.533 679.227 248.68C679.227 247.379 679.659 246.301 680.523 245.448C681.398 244.595 682.491 244.168 683.803 244.168C684.667 244.168 685.446 244.365 686.139 244.76C686.843 245.144 687.392 245.683 687.787 246.376C688.192 247.059 688.395 247.827 688.395 248.68C688.395 249.971 687.958 251.048 687.083 251.912C686.208 252.765 685.115 253.192 683.803 253.192ZM681.515 250.984C682.123 251.581 682.886 251.88 683.803 251.88C684.731 251.88 685.494 251.581 686.091 250.984C686.699 250.376 687.003 249.608 687.003 248.68C687.003 247.752 686.699 246.989 686.091 246.392C685.494 245.784 684.731 245.48 683.803 245.48C682.886 245.48 682.123 245.784 681.515 246.392C680.918 246.989 680.619 247.752 680.619 248.68C680.619 249.608 680.918 250.376 681.515 250.984ZM694.702 244.808C695.929 244.808 696.937 245.197 697.726 245.976C698.515 246.744 698.91 247.731 698.91 248.936C698.91 250.184 698.499 251.208 697.678 252.008C696.857 252.797 695.801 253.192 694.51 253.192C693.155 253.192 692.073 252.765 691.262 251.912C690.462 251.048 690.062 249.896 690.062 248.456C690.062 246.237 690.462 244.579 691.262 243.48C692.062 242.381 693.449 241.592 695.422 241.112L697.982 240.504V241.848L695.454 242.456C694.334 242.712 693.459 243.133 692.83 243.72C692.201 244.307 691.795 245.085 691.614 246.056C692.371 245.224 693.401 244.808 694.702 244.808ZM694.51 251.88C695.363 251.88 696.078 251.603 696.654 251.048C697.23 250.483 697.518 249.784 697.518 248.952C697.518 248.109 697.23 247.405 696.654 246.84C696.078 246.275 695.363 245.992 694.51 245.992C693.646 245.992 692.926 246.275 692.35 246.84C691.774 247.395 691.486 248.093 691.486 248.936C691.486 249.352 691.561 249.741 691.71 250.104C691.87 250.467 692.083 250.776 692.35 251.032C692.617 251.288 692.937 251.496 693.31 251.656C693.683 251.805 694.083 251.88 694.51 251.88ZM706.907 244.36H708.363L704.251 253.352C703.931 254.056 703.616 254.6 703.307 254.984C702.997 255.368 702.651 255.645 702.267 255.816C701.883 255.997 701.413 256.088 700.859 256.088H700.043V254.856H700.747C701.323 254.856 701.755 254.739 702.043 254.504C702.331 254.269 702.651 253.789 703.003 253.064L703.307 252.408L699.467 244.36H700.955L704.027 250.904L706.907 244.36ZM716.634 244.36V245.592H713.418V253H712.09V245.592H708.874V244.36H716.634ZM721.881 253.192C721.028 253.192 720.249 253 719.545 252.616C718.841 252.221 718.292 251.683 717.897 251C717.503 250.307 717.305 249.533 717.305 248.68C717.305 247.379 717.737 246.301 718.601 245.448C719.476 244.595 720.569 244.168 721.881 244.168C722.745 244.168 723.524 244.365 724.217 244.76C724.921 245.144 725.471 245.683 725.865 246.376C726.271 247.059 726.473 247.827 726.473 248.68C726.473 249.971 726.036 251.048 725.161 251.912C724.287 252.765 723.193 253.192 721.881 253.192ZM719.593 250.984C720.201 251.581 720.964 251.88 721.881 251.88C722.809 251.88 723.572 251.581 724.169 250.984C724.777 250.376 725.081 249.608 725.081 248.68C725.081 247.752 724.777 246.989 724.169 246.392C723.572 245.784 722.809 245.48 721.881 245.48C720.964 245.48 720.201 245.784 719.593 246.392C718.996 246.989 718.697 247.752 718.697 248.68C718.697 249.608 718.996 250.376 719.593 250.984ZM734.092 248.52C734.529 248.68 734.876 248.947 735.132 249.32C735.399 249.693 735.532 250.115 735.532 250.584C735.532 251.277 735.276 251.853 734.764 252.312C734.263 252.771 733.633 253 732.876 253H728.54V244.36H732.828C733.543 244.36 734.124 244.568 734.572 244.984C735.02 245.389 735.244 245.912 735.244 246.552C735.244 246.84 735.196 247.112 735.1 247.368C735.004 247.624 734.871 247.853 734.7 248.056C734.529 248.248 734.327 248.403 734.092 248.52ZM733.9 246.792C733.9 246.44 733.783 246.163 733.548 245.96C733.313 245.747 733.009 245.64 732.636 245.64H729.868V247.928H732.636C733.02 247.928 733.324 247.827 733.548 247.624C733.783 247.411 733.9 247.133 733.9 246.792ZM732.716 251.72C732.983 251.72 733.223 251.667 733.436 251.56C733.66 251.443 733.831 251.288 733.948 251.096C734.065 250.904 734.124 250.691 734.124 250.456C734.124 250.211 734.065 249.992 733.948 249.8C733.831 249.597 733.66 249.443 733.436 249.336C733.223 249.229 732.977 249.176 732.7 249.176H729.868V251.72H732.716ZM745.088 244.36H746.176V253H745.04L744.896 251.688C744.49 252.168 743.994 252.541 743.408 252.808C742.832 253.064 742.197 253.192 741.504 253.192C740.234 253.192 739.173 252.765 738.32 251.912C737.466 251.048 737.04 249.971 737.04 248.68C737.04 247.389 737.466 246.317 738.32 245.464C739.173 244.6 740.234 244.168 741.504 244.168C742.208 244.168 742.848 244.301 743.424 244.568C744.01 244.835 744.506 245.208 744.912 245.688L745.088 244.36ZM739.328 250.968C739.936 251.576 740.698 251.88 741.616 251.88C742.533 251.88 743.29 251.576 743.888 250.968C744.485 250.36 744.784 249.597 744.784 248.68C744.784 247.763 744.485 247 743.888 246.392C743.29 245.784 742.533 245.48 741.616 245.48C740.698 245.48 739.936 245.789 739.328 246.408C738.73 247.016 738.432 247.773 738.432 248.68C738.432 249.587 738.73 250.349 739.328 250.968ZM697.073 277H695.537L693.073 273.4L690.577 277H689.089L692.257 272.504L689.345 268.36H690.865L693.073 271.56L695.329 268.36H696.817L693.889 272.456L697.073 277ZM698.476 266.856V265.304H699.948V266.856H698.476ZM698.54 277V268.36H699.9V277H698.54ZM713.37 277H712.058L710.826 270.584L707.77 276.824H707.466L704.426 270.584L703.194 277H701.882L703.53 268.36H704.666L707.626 274.408L710.57 268.36H711.706L713.37 277ZM715.304 266.856V265.304H716.776V266.856H715.304ZM715.368 277V268.36H716.728V277H715.368ZM721.718 268.36H725.686V277H724.342V273.688H722.182L720.134 277H718.63L720.79 273.496C720.225 273.315 719.777 273.005 719.446 272.568C719.115 272.131 718.95 271.619 718.95 271.032C718.95 270.264 719.211 269.629 719.734 269.128C720.257 268.616 720.918 268.36 721.718 268.36ZM721.83 272.376H724.342V269.672H721.83C721.382 269.672 721.019 269.8 720.742 270.056C720.465 270.301 720.326 270.627 720.326 271.032C720.326 271.427 720.465 271.752 720.742 272.008C721.019 272.253 721.382 272.376 721.83 272.376Z" fill="#8D96A5"/>
<path d="M804.376 244.36V245.592H801.16V253H799.832V245.592H796.616V244.36H804.376ZM809.623 253.192C808.77 253.192 807.991 253 807.287 252.616C806.583 252.221 806.034 251.683 805.639 251C805.245 250.307 805.047 249.533 805.047 248.68C805.047 247.379 805.479 246.301 806.343 245.448C807.218 244.595 808.311 244.168 809.623 244.168C810.487 244.168 811.266 244.365 811.959 244.76C812.663 245.144 813.213 245.683 813.607 246.376C814.013 247.059 814.215 247.827 814.215 248.68C814.215 249.971 813.778 251.048 812.903 251.912C812.029 252.765 810.935 253.192 809.623 253.192ZM807.335 250.984C807.943 251.581 808.706 251.88 809.623 251.88C810.551 251.88 811.314 251.581 811.911 250.984C812.519 250.376 812.823 249.608 812.823 248.68C812.823 247.752 812.519 246.989 811.911 246.392C811.314 245.784 810.551 245.48 809.623 245.48C808.706 245.48 807.943 245.784 807.335 246.392C806.738 246.989 806.439 247.752 806.439 248.68C806.439 249.608 806.738 250.376 807.335 250.984ZM821.834 248.52C822.272 248.68 822.618 248.947 822.874 249.32C823.141 249.693 823.274 250.115 823.274 250.584C823.274 251.277 823.018 251.853 822.506 252.312C822.005 252.771 821.376 253 820.618 253H816.282V244.36H820.57C821.285 244.36 821.866 244.568 822.314 244.984C822.762 245.389 822.986 245.912 822.986 246.552C822.986 246.84 822.938 247.112 822.842 247.368C822.746 247.624 822.613 247.853 822.442 248.056C822.272 248.248 822.069 248.403 821.834 248.52ZM821.642 246.792C821.642 246.44 821.525 246.163 821.29 245.96C821.056 245.747 820.752 245.64 820.378 245.64H817.61V247.928H820.378C820.762 247.928 821.066 247.827 821.29 247.624C821.525 247.411 821.642 247.133 821.642 246.792ZM820.458 251.72C820.725 251.72 820.965 251.667 821.178 251.56C821.402 251.443 821.573 251.288 821.69 251.096C821.808 250.904 821.866 250.691 821.866 250.456C821.866 250.211 821.808 249.992 821.69 249.8C821.573 249.597 821.402 249.443 821.178 249.336C820.965 249.229 820.72 249.176 820.442 249.176H817.61V251.72H820.458ZM832.83 244.36H833.918V253H832.782L832.638 251.688C832.232 252.168 831.736 252.541 831.15 252.808C830.574 253.064 829.939 253.192 829.246 253.192C827.976 253.192 826.915 252.765 826.062 251.912C825.208 251.048 824.782 249.971 824.782 248.68C824.782 247.389 825.208 246.317 826.062 245.464C826.915 244.6 827.976 244.168 829.246 244.168C829.95 244.168 830.59 244.301 831.166 244.568C831.752 244.835 832.248 245.208 832.654 245.688L832.83 244.36ZM827.07 250.968C827.678 251.576 828.44 251.88 829.358 251.88C830.275 251.88 831.032 251.576 831.63 250.968C832.227 250.36 832.526 249.597 832.526 248.68C832.526 247.763 832.227 247 831.63 246.392C831.032 245.784 830.275 245.48 829.358 245.48C828.44 245.48 827.678 245.789 827.07 246.408C826.472 247.016 826.174 247.773 826.174 248.68C826.174 249.587 826.472 250.349 827.07 250.968ZM841.233 244.168C842.524 244.168 843.585 244.595 844.417 245.448C845.26 246.301 845.681 247.379 845.681 248.68C845.681 249.971 845.26 251.048 844.417 251.912C843.585 252.765 842.524 253.192 841.233 253.192C839.932 253.192 838.86 252.744 838.017 251.848V256.088H836.657V244.36H837.585L837.857 245.688C838.263 245.208 838.753 244.835 839.329 244.568C839.916 244.301 840.551 244.168 841.233 244.168ZM841.137 251.88C842.055 251.88 842.812 251.576 843.409 250.968C844.007 250.36 844.305 249.597 844.305 248.68C844.305 247.763 844.007 247 843.409 246.392C842.812 245.784 842.055 245.48 841.137 245.48C840.22 245.48 839.457 245.789 838.849 246.408C838.252 247.016 837.953 247.773 837.953 248.68C837.953 249.277 838.087 249.821 838.353 250.312C838.631 250.803 839.015 251.187 839.505 251.464C839.996 251.741 840.54 251.88 841.137 251.88ZM854.103 244.36H854.855V253H853.575V246.824L848.535 253H847.751V244.36H849.047V250.488L854.103 244.36ZM869.03 251.72H870.198V255.288H868.95V253H861.99V255.288H860.742V251.72H861.67C861.926 251.485 862.123 251.155 862.262 250.728C862.401 250.291 862.523 249.629 862.63 248.744C862.747 247.848 862.886 246.387 863.046 244.36H869.03V251.72ZM864.262 245.56C864.166 246.989 864.065 248.104 863.958 248.904C863.862 249.693 863.75 250.301 863.622 250.728C863.494 251.144 863.329 251.475 863.126 251.72H867.702V245.56H864.262ZM873.676 244.36H879.34V253H877.98V245.544H874.812L874.364 249.912C874.247 251.053 873.953 251.864 873.484 252.344C873.015 252.813 872.311 253.048 871.372 253.048H871.132V251.768H871.436C871.927 251.768 872.3 251.629 872.556 251.352C872.812 251.064 872.972 250.611 873.036 249.992L873.676 244.36ZM884.335 244.36H888.303V253H886.959V249.688H884.799L882.751 253H881.247L883.407 249.496C882.842 249.315 882.394 249.005 882.063 248.568C881.732 248.131 881.567 247.619 881.567 247.032C881.567 246.264 881.828 245.629 882.351 245.128C882.874 244.616 883.535 244.36 884.335 244.36ZM884.447 248.376H886.959V245.672H884.447C883.999 245.672 883.636 245.8 883.359 246.056C883.082 246.301 882.943 246.627 882.943 247.032C882.943 247.427 883.082 247.752 883.359 248.008C883.636 248.253 883.999 248.376 884.447 248.376ZM779.475 275.72H780.643V279.288H779.395V277H772.435V279.288H771.187V275.72H772.115C772.371 275.485 772.569 275.155 772.707 274.728C772.846 274.291 772.969 273.629 773.075 272.744C773.193 271.848 773.331 270.387 773.491 268.36H779.475V275.72ZM774.707 269.56C774.611 270.989 774.51 272.104 774.403 272.904C774.307 273.693 774.195 274.301 774.067 274.728C773.939 275.144 773.774 275.475 773.571 275.72H778.147V269.56H774.707ZM786.381 277.192C785.528 277.192 784.749 277 784.045 276.616C783.341 276.221 782.792 275.683 782.397 275C782.003 274.307 781.805 273.533 781.805 272.68C781.805 271.379 782.237 270.301 783.101 269.448C783.976 268.595 785.069 268.168 786.381 268.168C787.245 268.168 788.024 268.365 788.717 268.76C789.421 269.144 789.971 269.683 790.365 270.376C790.771 271.059 790.973 271.827 790.973 272.68C790.973 273.971 790.536 275.048 789.661 275.912C788.787 276.765 787.693 277.192 786.381 277.192ZM784.093 274.984C784.701 275.581 785.464 275.88 786.381 275.88C787.309 275.88 788.072 275.581 788.669 274.984C789.277 274.376 789.581 273.608 789.581 272.68C789.581 271.752 789.277 270.989 788.669 270.392C788.072 269.784 787.309 269.48 786.381 269.48C785.464 269.48 784.701 269.784 784.093 270.392C783.496 270.989 783.197 271.752 783.197 272.68C783.197 273.608 783.496 274.376 784.093 274.984ZM803.714 277H802.402L801.17 270.584L798.114 276.824H797.81L794.77 270.584L793.538 277H792.226L793.874 268.36H795.01L797.97 274.408L800.914 268.36H802.05L803.714 277ZM813.009 268.36H814.097V277H812.961L812.817 275.688C812.412 276.168 811.916 276.541 811.329 276.808C810.753 277.064 810.119 277.192 809.425 277.192C808.156 277.192 807.095 276.765 806.241 275.912C805.388 275.048 804.961 273.971 804.961 272.68C804.961 271.389 805.388 270.317 806.241 269.464C807.095 268.6 808.156 268.168 809.425 268.168C810.129 268.168 810.769 268.301 811.345 268.568C811.932 268.835 812.428 269.208 812.833 269.688L813.009 268.36ZM807.249 274.968C807.857 275.576 808.62 275.88 809.537 275.88C810.455 275.88 811.212 275.576 811.809 274.968C812.407 274.36 812.705 273.597 812.705 272.68C812.705 271.763 812.407 271 811.809 270.392C811.212 269.784 810.455 269.48 809.537 269.48C808.62 269.48 807.857 269.789 807.249 270.408C806.652 271.016 806.353 271.773 806.353 272.68C806.353 273.587 806.652 274.349 807.249 274.968ZM826.245 268.36H827.589V277H816.837V268.36H818.165V275.736H821.557V268.36H822.869V275.736H826.245V268.36ZM836.289 268.36H837.617V277H836.289V273.176H831.665V277H830.337V268.36H831.665V271.896H836.289V268.36ZM840.304 266.856V265.304H841.776V266.856H840.304ZM840.368 277V268.36H841.728V277H840.368ZM851.198 277H849.662L847.198 273.4L844.702 277H843.214L846.382 272.504L843.47 268.36H844.99L847.198 271.56L849.454 268.36H850.942L848.014 272.456L851.198 277ZM863.509 268.36V269.592H860.293V277H858.965V269.592H855.749V268.36H863.509ZM870.701 272.52C871.139 272.68 871.485 272.947 871.741 273.32C872.008 273.693 872.141 274.115 872.141 274.584C872.141 275.277 871.885 275.853 871.373 276.312C870.872 276.771 870.243 277 869.485 277H865.149V268.36H869.437C870.152 268.36 870.733 268.568 871.181 268.984C871.629 269.389 871.853 269.912 871.853 270.552C871.853 270.84 871.805 271.112 871.709 271.368C871.613 271.624 871.48 271.853 871.309 272.056C871.139 272.248 870.936 272.403 870.701 272.52ZM870.509 270.792C870.509 270.44 870.392 270.163 870.157 269.96C869.923 269.747 869.619 269.64 869.245 269.64H866.477V271.928H869.245C869.629 271.928 869.933 271.827 870.157 271.624C870.392 271.411 870.509 271.133 870.509 270.792ZM869.325 275.72C869.592 275.72 869.832 275.667 870.045 275.56C870.269 275.443 870.44 275.288 870.557 275.096C870.675 274.904 870.733 274.691 870.733 274.456C870.733 274.211 870.675 273.992 870.557 273.8C870.44 273.597 870.269 273.443 870.045 273.336C869.832 273.229 869.587 273.176 869.309 273.176H866.477V275.72H869.325ZM881.697 268.36H882.785V277H881.649L881.505 275.688C881.1 276.168 880.604 276.541 880.017 276.808C879.441 277.064 878.806 277.192 878.113 277.192C876.844 277.192 875.782 276.765 874.929 275.912C874.076 275.048 873.649 273.971 873.649 272.68C873.649 271.389 874.076 270.317 874.929 269.464C875.782 268.6 876.844 268.168 878.113 268.168C878.817 268.168 879.457 268.301 880.033 268.568C880.62 268.835 881.116 269.208 881.521 269.688L881.697 268.36ZM875.937 274.968C876.545 275.576 877.308 275.88 878.225 275.88C879.142 275.88 879.9 275.576 880.497 274.968C881.094 274.36 881.393 273.597 881.393 272.68C881.393 271.763 881.094 271 880.497 270.392C879.9 269.784 879.142 269.48 878.225 269.48C877.308 269.48 876.545 269.789 875.937 270.408C875.34 271.016 875.041 271.773 875.041 272.68C875.041 273.587 875.34 274.349 875.937 274.968ZM890.1 268.168C891.391 268.168 892.452 268.595 893.284 269.448C894.127 270.301 894.548 271.379 894.548 272.68C894.548 273.971 894.127 275.048 893.284 275.912C892.452 276.765 891.391 277.192 890.1 277.192C888.799 277.192 887.727 276.744 886.884 275.848V280.088H885.524V268.36H886.452L886.724 269.688C887.13 269.208 887.62 268.835 888.196 268.568C888.783 268.301 889.418 268.168 890.1 268.168ZM890.004 275.88C890.922 275.88 891.679 275.576 892.276 274.968C892.874 274.36 893.172 273.597 893.172 272.68C893.172 271.763 892.874 271 892.276 270.392C891.679 269.784 890.922 269.48 890.004 269.48C889.087 269.48 888.324 269.789 887.716 270.408C887.119 271.016 886.82 271.773 886.82 272.68C886.82 273.277 886.954 273.821 887.22 274.312C887.498 274.803 887.882 275.187 888.372 275.464C888.863 275.741 889.407 275.88 890.004 275.88ZM902.97 268.36H903.722V277H902.442V270.824L897.402 277H896.618V268.36H897.914V274.488L902.97 268.36ZM912.43 268.36H913.758V277H912.43V273.176H907.806V277H906.478V268.36H907.806V271.896H912.43V268.36Z" fill="#8D96A5"/>
<path d="M956.087 244.36V245.592H952.871V253H951.543V245.592H948.327V244.36H956.087ZM961.334 253.192C960.481 253.192 959.702 253 958.998 252.616C958.294 252.221 957.745 251.683 957.35 251C956.956 250.307 956.758 249.533 956.758 248.68C956.758 247.379 957.19 246.301 958.054 245.448C958.929 244.595 960.022 244.168 961.334 244.168C962.198 244.168 962.977 244.365 963.67 244.76C964.374 245.144 964.924 245.683 965.318 246.376C965.724 247.059 965.926 247.827 965.926 248.68C965.926 249.971 965.489 251.048 964.614 251.912C963.74 252.765 962.646 253.192 961.334 253.192ZM959.046 250.984C959.654 251.581 960.417 251.88 961.334 251.88C962.262 251.88 963.025 251.581 963.622 250.984C964.23 250.376 964.534 249.608 964.534 248.68C964.534 247.752 964.23 246.989 963.622 246.392C963.025 245.784 962.262 245.48 961.334 245.48C960.417 245.48 959.654 245.784 959.046 246.392C958.449 246.989 958.15 247.752 958.15 248.68C958.15 249.608 958.449 250.376 959.046 250.984ZM973.545 248.52C973.983 248.68 974.329 248.947 974.585 249.32C974.852 249.693 974.985 250.115 974.985 250.584C974.985 251.277 974.729 251.853 974.217 252.312C973.716 252.771 973.087 253 972.329 253H967.993V244.36H972.281C972.996 244.36 973.577 244.568 974.025 244.984C974.473 245.389 974.697 245.912 974.697 246.552C974.697 246.84 974.649 247.112 974.553 247.368C974.457 247.624 974.324 247.853 974.153 248.056C973.983 248.248 973.78 248.403 973.545 248.52ZM973.353 246.792C973.353 246.44 973.236 246.163 973.001 245.96C972.767 245.747 972.463 245.64 972.089 245.64H969.321V247.928H972.089C972.473 247.928 972.777 247.827 973.001 247.624C973.236 247.411 973.353 247.133 973.353 246.792ZM972.169 251.72C972.436 251.72 972.676 251.667 972.889 251.56C973.113 251.443 973.284 251.288 973.401 251.096C973.519 250.904 973.577 250.691 973.577 250.456C973.577 250.211 973.519 249.992 973.401 249.8C973.284 249.597 973.113 249.443 972.889 249.336C972.676 249.229 972.431 249.176 972.153 249.176H969.321V251.72H972.169ZM984.541 244.36H985.629V253H984.493L984.349 251.688C983.943 252.168 983.447 252.541 982.861 252.808C982.285 253.064 981.65 253.192 980.957 253.192C979.687 253.192 978.626 252.765 977.773 251.912C976.919 251.048 976.493 249.971 976.493 248.68C976.493 247.389 976.919 246.317 977.773 245.464C978.626 244.6 979.687 244.168 980.957 244.168C981.661 244.168 982.301 244.301 982.877 244.568C983.463 244.835 983.959 245.208 984.365 245.688L984.541 244.36ZM978.781 250.968C979.389 251.576 980.151 251.88 981.069 251.88C981.986 251.88 982.743 251.576 983.341 250.968C983.938 250.36 984.237 249.597 984.237 248.68C984.237 247.763 983.938 247 983.341 246.392C982.743 245.784 981.986 245.48 981.069 245.48C980.151 245.48 979.389 245.789 978.781 246.408C978.183 247.016 977.885 247.773 977.885 248.68C977.885 249.587 978.183 250.349 978.781 250.968ZM992.944 244.168C994.235 244.168 995.296 244.595 996.128 245.448C996.971 246.301 997.392 247.379 997.392 248.68C997.392 249.971 996.971 251.048 996.128 251.912C995.296 252.765 994.235 253.192 992.944 253.192C991.643 253.192 990.571 252.744 989.728 251.848V256.088H988.368V244.36H989.296L989.568 245.688C989.974 245.208 990.464 244.835 991.04 244.568C991.627 244.301 992.262 244.168 992.944 244.168ZM992.848 251.88C993.766 251.88 994.523 251.576 995.12 250.968C995.718 250.36 996.016 249.597 996.016 248.68C996.016 247.763 995.718 247 995.12 246.392C994.523 245.784 993.766 245.48 992.848 245.48C991.931 245.48 991.168 245.789 990.56 246.408C989.963 247.016 989.664 247.773 989.664 248.68C989.664 249.277 989.798 249.821 990.064 250.312C990.342 250.803 990.726 251.187 991.216 251.464C991.707 251.741 992.251 251.88 992.848 251.88ZM1005.81 244.36H1006.57V253H1005.29V246.824L1000.25 253H999.462V244.36H1000.76V250.488L1005.81 244.36ZM948.655 275.72H949.823V279.288H948.575V277H941.615V279.288H940.367V275.72H941.295C941.551 275.485 941.748 275.155 941.887 274.728C942.026 274.291 942.148 273.629 942.255 272.744C942.372 271.848 942.511 270.387 942.671 268.36H948.655V275.72ZM943.887 269.56C943.791 270.989 943.69 272.104 943.583 272.904C943.487 273.693 943.375 274.301 943.247 274.728C943.119 275.144 942.954 275.475 942.751 275.72H947.327V269.56H943.887ZM953.301 268.36H958.965V277H957.605V269.544H954.437L953.989 273.912C953.872 275.053 953.578 275.864 953.109 276.344C952.64 276.813 951.936 277.048 950.997 277.048H950.757V275.768H951.061C951.552 275.768 951.925 275.629 952.181 275.352C952.437 275.064 952.597 274.611 952.661 273.992L953.301 268.36ZM963.96 268.36H967.928V277H966.584V273.688H964.424L962.376 277H960.872L963.032 273.496C962.467 273.315 962.019 273.005 961.688 272.568C961.357 272.131 961.192 271.619 961.192 271.032C961.192 270.264 961.453 269.629 961.976 269.128C962.499 268.616 963.16 268.36 963.96 268.36ZM964.072 272.376H966.584V269.672H964.072C963.624 269.672 963.261 269.8 962.984 270.056C962.707 270.301 962.568 270.627 962.568 271.032C962.568 271.427 962.707 271.752 962.984 272.008C963.261 272.253 963.624 272.376 964.072 272.376ZM982.077 275.72H983.245V279.288H981.997V277H975.037V279.288H973.789V275.72H974.717C974.973 275.485 975.17 275.155 975.309 274.728C975.447 274.291 975.57 273.629 975.677 272.744C975.794 271.848 975.933 270.387 976.093 268.36H982.077V275.72ZM977.309 269.56C977.213 270.989 977.111 272.104 977.005 272.904C976.909 273.693 976.797 274.301 976.669 274.728C976.541 275.144 976.375 275.475 976.173 275.72H980.749V269.56H977.309ZM985.187 266.856V265.304H986.659V266.856H985.187ZM985.251 277V268.36H986.611V277H985.251ZM996.001 268.36V269.592H992.785V277H991.457V269.592H988.241V268.36H996.001ZM1005.44 272.712C1005.44 272.829 1005.43 272.995 1005.41 273.208H998.032C998.139 274.008 998.47 274.653 999.024 275.144C999.579 275.624 1000.26 275.864 1001.07 275.864C1001.67 275.864 1002.2 275.736 1002.66 275.48C1003.13 275.213 1003.5 274.84 1003.78 274.36H1005.2C1004.84 275.256 1004.29 275.955 1003.57 276.456C1002.84 276.947 1002.01 277.192 1001.07 277.192C999.824 277.192 998.779 276.76 997.936 275.896C997.094 275.032 996.672 273.96 996.672 272.68C996.672 271.389 997.094 270.317 997.936 269.464C998.779 268.6 999.824 268.168 1001.07 268.168C1002.36 268.168 1003.41 268.605 1004.22 269.48C1005.04 270.355 1005.44 271.432 1005.44 272.712ZM1001.07 269.464C1000.56 269.464 1000.09 269.565 999.664 269.768C999.248 269.971 998.902 270.264 998.624 270.648C998.347 271.021 998.16 271.453 998.064 271.944H1004.06C1003.97 271.443 1003.78 271.005 1003.5 270.632C1003.23 270.248 1002.88 269.96 1002.46 269.768C1002.05 269.565 1001.58 269.464 1001.07 269.464ZM1013.13 265.592V266.616H1008.94V265.592H1013.13ZM1013.82 268.36H1014.57V277H1013.29V270.824L1008.25 277H1007.47V268.36H1008.77V274.488L1013.82 268.36Z" fill="#8D96A5"/>
<path d="M403 139C403 134.582 406.582 131 411 131H465C469.418 131 473 134.582 473 139V224H403V139Z" fill="url(#paint2_linear_10096_20978)"/>
<path d="M421.598 106.552C421.614 107.816 421.366 108.84 420.854 109.624C420.342 110.392 419.662 110.992 418.814 111.424C417.982 111.856 417.038 112.144 415.982 112.288C414.926 112.448 413.87 112.528 412.814 112.528C411.438 112.528 410.246 112.368 409.238 112.048C408.23 111.728 407.39 111.304 406.718 110.776C406.062 110.248 405.566 109.648 405.23 108.976C404.91 108.288 404.75 107.584 404.75 106.864H407.318C407.318 107.312 407.438 107.752 407.678 108.184C407.934 108.6 408.31 108.976 408.806 109.312C409.302 109.648 409.918 109.92 410.654 110.128C411.406 110.336 412.286 110.44 413.294 110.44C414.462 110.44 415.422 110.344 416.174 110.152C416.926 109.944 417.518 109.672 417.95 109.336C418.398 109 418.702 108.624 418.862 108.208C419.038 107.776 419.126 107.336 419.126 106.888C419.126 106.408 419.054 105.992 418.91 105.64C418.766 105.272 418.518 104.968 418.166 104.728C417.814 104.488 417.334 104.312 416.726 104.2C416.118 104.072 415.342 104.008 414.398 104.008H408.422V101.056L418.238 97.264L405.854 97.36V95.2H420.254V98.8L411.686 101.944L414.23 101.896V101.872H414.278L414.35 101.896H414.398L414.446 101.872V101.896C415.358 101.896 416.238 101.952 417.086 102.064C417.95 102.176 418.71 102.392 419.366 102.712C420.038 103.032 420.574 103.504 420.974 104.128C421.374 104.736 421.582 105.544 421.598 106.552ZM442.036 103.336C442.068 104.776 441.916 106.064 441.58 107.2C441.244 108.336 440.732 109.304 440.044 110.104C439.372 110.888 438.508 111.496 437.452 111.928C436.412 112.344 435.18 112.552 433.756 112.552C430.94 112.552 428.852 111.824 427.492 110.368C426.132 108.912 425.412 106.744 425.332 103.864C425.332 102.408 425.484 101.112 425.788 99.976C426.092 98.84 426.58 97.88 427.252 97.096C427.924 96.296 428.788 95.688 429.844 95.272C430.916 94.856 432.22 94.648 433.756 94.648C436.604 94.648 438.684 95.392 439.996 96.88C441.308 98.352 441.988 100.504 442.036 103.336ZM427.804 103.6C427.804 105.952 428.284 107.696 429.244 108.832C430.22 109.952 431.676 110.512 433.612 110.512H433.924C435.86 110.512 437.276 109.936 438.172 108.784C439.084 107.616 439.54 105.888 439.54 103.6C439.54 101.312 439.084 99.592 438.172 98.44C437.276 97.272 435.86 96.688 433.924 96.688H433.612C431.66 96.688 430.204 97.248 429.244 98.368C428.284 99.488 427.804 101.232 427.804 103.6ZM463.692 95.2L456.228 112H453.972L461.412 95.2H463.692ZM456.972 100.504C456.972 102.072 456.532 103.32 455.652 104.248C454.772 105.16 453.5 105.616 451.836 105.616C450.172 105.616 448.884 105.16 447.972 104.248C447.076 103.32 446.628 102.072 446.628 100.504C446.628 98.952 447.076 97.76 447.972 96.928C448.884 96.096 450.172 95.68 451.836 95.68C453.5 95.68 454.772 96.096 455.652 96.928C456.532 97.76 456.972 98.952 456.972 100.504ZM448.668 100.72C448.684 101.68 448.924 102.44 449.388 103C449.852 103.544 450.636 103.816 451.74 103.816H451.836C452.94 103.816 453.724 103.552 454.188 103.024C454.668 102.48 454.908 101.704 454.908 100.696C454.924 99.704 454.692 98.92 454.212 98.344C453.748 97.768 452.964 97.48 451.86 97.48H451.764C450.66 97.48 449.86 97.768 449.364 98.344C448.884 98.904 448.652 99.696 448.668 100.72ZM471.156 106.264C471.156 107.832 470.716 109.08 469.836 110.008C468.956 110.92 467.684 111.376 466.02 111.376C464.356 111.376 463.076 110.92 462.18 110.008C461.284 109.08 460.836 107.832 460.836 106.264C460.836 104.712 461.284 103.52 462.18 102.688C463.076 101.856 464.356 101.44 466.02 101.44C467.684 101.44 468.956 101.856 469.836 102.688C470.716 103.52 471.156 104.712 471.156 106.264ZM462.876 106.48C462.892 107.44 463.124 108.2 463.572 108.76C464.036 109.304 464.82 109.576 465.924 109.576H466.044C467.148 109.576 467.932 109.312 468.396 108.784C468.86 108.24 469.1 107.464 469.116 106.456C469.116 105.464 468.884 104.68 468.42 104.104C467.956 103.528 467.172 103.24 466.068 103.24H465.972C464.852 103.24 464.052 103.528 463.572 104.104C463.092 104.664 462.86 105.456 462.876 106.48Z" fill="#8D96A5"/>
<path d="M538 142C538 137.582 541.582 134 546 134H600C604.418 134 608 137.582 608 142V224H538V142Z" fill="url(#paint3_linear_10096_20978)"/>
<path d="M556.327 112.888V115H541.255V111.496C543.031 110.696 544.663 109.992 546.151 109.384C547.655 108.776 548.959 108.184 550.063 107.608C551.167 107.016 552.031 106.4 552.655 105.76C553.295 105.104 553.639 104.336 553.687 103.456C553.703 103.248 553.671 102.944 553.591 102.544C553.511 102.144 553.311 101.744 552.991 101.344C552.687 100.944 552.215 100.592 551.575 100.288C550.935 99.968 550.063 99.8 548.959 99.784C547.135 99.752 545.799 100.136 544.951 100.936C544.103 101.736 543.687 102.888 543.703 104.392H541.159C541.159 103.576 541.255 102.776 541.447 101.992C541.639 101.192 542.015 100.48 542.575 99.856C543.135 99.232 543.919 98.728 544.927 98.344C545.951 97.944 547.295 97.744 548.959 97.744C550.079 97.744 551.031 97.848 551.815 98.056C552.615 98.248 553.279 98.512 553.807 98.848C554.351 99.168 554.775 99.536 555.079 99.952C555.399 100.368 555.639 100.784 555.799 101.2C555.959 101.616 556.063 102.016 556.111 102.4C556.159 102.768 556.183 103.08 556.183 103.336C556.183 104.632 555.839 105.728 555.151 106.624C554.463 107.504 553.527 108.288 552.343 108.976C551.175 109.664 549.823 110.312 548.287 110.92C546.751 111.512 545.127 112.168 543.415 112.888H556.327ZM576.433 105.472C576.433 106.96 576.345 108.32 576.169 109.552C575.993 110.784 575.617 111.848 575.041 112.744C574.481 113.624 573.657 114.312 572.569 114.808C571.497 115.304 570.057 115.552 568.249 115.552C567.097 115.552 566.089 115.4 565.225 115.096C564.361 114.808 563.633 114.44 563.041 113.992C562.465 113.528 562.033 113.016 561.745 112.456C561.457 111.896 561.313 111.36 561.313 110.848H563.833C563.977 111.328 564.241 111.76 564.625 112.144C564.945 112.464 565.401 112.76 565.993 113.032C566.601 113.304 567.409 113.44 568.417 113.44C569.537 113.44 570.449 113.296 571.153 113.008C571.873 112.704 572.433 112.304 572.833 111.808C573.249 111.296 573.537 110.72 573.697 110.08C573.873 109.424 573.969 108.744 573.985 108.04C573.873 108.12 573.665 108.24 573.361 108.4C573.057 108.544 572.657 108.696 572.161 108.856C571.665 109.016 571.065 109.152 570.361 109.264C569.673 109.376 568.889 109.432 568.009 109.432C566.937 109.432 565.945 109.336 565.033 109.144C564.137 108.936 563.369 108.608 562.729 108.16C562.089 107.712 561.585 107.144 561.217 106.456C560.865 105.752 560.689 104.904 560.689 103.912C560.689 102.76 560.889 101.792 561.289 101.008C561.689 100.208 562.233 99.56 562.921 99.064C563.625 98.568 564.449 98.208 565.393 97.984C566.337 97.76 567.345 97.648 568.417 97.648C569.505 97.648 570.537 97.744 571.513 97.936C572.489 98.112 573.345 98.48 574.081 99.04C574.833 99.6 575.417 100.392 575.833 101.416C576.265 102.44 576.465 103.792 576.433 105.472ZM563.161 103.936C563.161 105.136 563.625 106.008 564.553 106.552C565.497 107.08 566.881 107.344 568.705 107.344C569.505 107.344 570.233 107.272 570.889 107.128C571.545 106.968 572.105 106.744 572.569 106.456C573.033 106.168 573.393 105.808 573.649 105.376C573.905 104.944 574.033 104.44 574.033 103.864C574.033 103.08 573.913 102.432 573.673 101.92C573.433 101.392 573.081 100.968 572.617 100.648C572.169 100.328 571.609 100.104 570.937 99.976C570.281 99.832 569.537 99.76 568.705 99.76C567.921 99.76 567.185 99.816 566.497 99.928C565.825 100.04 565.241 100.248 564.745 100.552C564.249 100.856 563.857 101.28 563.569 101.824C563.297 102.368 563.161 103.072 563.161 103.936ZM597.906 98.2L590.442 115H588.186L595.626 98.2H597.906ZM591.186 103.504C591.186 105.072 590.746 106.32 589.866 107.248C588.986 108.16 587.714 108.616 586.05 108.616C584.386 108.616 583.098 108.16 582.186 107.248C581.29 106.32 580.842 105.072 580.842 103.504C580.842 101.952 581.29 100.76 582.186 99.928C583.098 99.096 584.386 98.68 586.05 98.68C587.714 98.68 588.986 99.096 589.866 99.928C590.746 100.76 591.186 101.952 591.186 103.504ZM582.882 103.72C582.898 104.68 583.138 105.44 583.602 106C584.066 106.544 584.85 106.816 585.954 106.816H586.05C587.154 106.816 587.938 106.552 588.402 106.024C588.882 105.48 589.122 104.704 589.122 103.696C589.138 102.704 588.906 101.92 588.426 101.344C587.962 100.768 587.178 100.48 586.074 100.48H585.978C584.874 100.48 584.074 100.768 583.578 101.344C583.098 101.904 582.866 102.696 582.882 103.72ZM605.37 109.264C605.37 110.832 604.93 112.08 604.05 113.008C603.17 113.92 601.898 114.376 600.234 114.376C598.57 114.376 597.29 113.92 596.394 113.008C595.498 112.08 595.05 110.832 595.05 109.264C595.05 107.712 595.498 106.52 596.394 105.688C597.29 104.856 598.57 104.44 600.234 104.44C601.898 104.44 603.17 104.856 604.05 105.688C604.93 106.52 605.37 107.712 605.37 109.264ZM597.09 109.48C597.106 110.44 597.338 111.2 597.786 111.76C598.25 112.304 599.034 112.576 600.138 112.576H600.258C601.362 112.576 602.146 112.312 602.61 111.784C603.074 111.24 603.314 110.464 603.33 109.456C603.33 108.464 603.098 107.68 602.634 107.104C602.17 106.528 601.386 106.24 600.282 106.24H600.186C599.066 106.24 598.266 106.528 597.786 107.104C597.306 107.664 597.074 108.456 597.09 109.48Z" fill="#8D96A5"/>
<path d="M808 188C808 183.582 811.582 180 816 180H870C874.418 180 878 183.582 878 188V224H808V188Z" fill="url(#paint4_linear_10096_20978)"/>
<path d="M827.333 158.888V161H814.205V158.888H820.421V145.856L816.701 152.84H814.229L818.909 144.2H822.773V158.888H827.333ZM845.173 146.312L835.669 161H832.813L842.317 146.312H830.365V144.2H845.173V146.312ZM865.82 144.2L858.356 161H856.1L863.54 144.2H865.82ZM859.1 149.504C859.1 151.072 858.66 152.32 857.78 153.248C856.9 154.16 855.628 154.616 853.964 154.616C852.3 154.616 851.012 154.16 850.1 153.248C849.204 152.32 848.756 151.072 848.756 149.504C848.756 147.952 849.204 146.76 850.1 145.928C851.012 145.096 852.3 144.68 853.964 144.68C855.628 144.68 856.9 145.096 857.78 145.928C858.66 146.76 859.1 147.952 859.1 149.504ZM850.796 149.72C850.812 150.68 851.052 151.44 851.516 152C851.98 152.544 852.764 152.816 853.868 152.816H853.964C855.068 152.816 855.852 152.552 856.316 152.024C856.796 151.48 857.036 150.704 857.036 149.696C857.052 148.704 856.82 147.92 856.34 147.344C855.876 146.768 855.092 146.48 853.988 146.48H853.892C852.788 146.48 851.988 146.768 851.492 147.344C851.012 147.904 850.78 148.696 850.796 149.72ZM873.284 155.264C873.284 156.832 872.844 158.08 871.964 159.008C871.084 159.92 869.812 160.376 868.148 160.376C866.484 160.376 865.204 159.92 864.308 159.008C863.412 158.08 862.964 156.832 862.964 155.264C862.964 153.712 863.412 152.52 864.308 151.688C865.204 150.856 866.484 150.44 868.148 150.44C869.812 150.44 871.084 150.856 871.964 151.688C872.844 152.52 873.284 153.712 873.284 155.264ZM865.004 155.48C865.02 156.44 865.252 157.2 865.7 157.76C866.164 158.304 866.948 158.576 868.052 158.576H868.172C869.276 158.576 870.06 158.312 870.524 157.784C870.988 157.24 871.228 156.464 871.244 155.456C871.244 154.464 871.012 153.68 870.548 153.104C870.084 152.528 869.3 152.24 868.196 152.24H868.1C866.98 152.24 866.18 152.528 865.7 153.104C865.22 153.664 864.988 154.456 865.004 155.48Z" fill="#8D96A5"/>
<path d="M673 188C673 183.582 676.582 180 681 180H735C739.418 180 743 183.582 743 188V224H673V188Z" fill="url(#paint5_linear_10096_20978)"/>
<path d="M692.333 158.888V161H679.205V158.888H685.421V145.856L681.701 152.84H679.229L683.909 144.2H687.773V158.888H692.333ZM710.173 146.312L700.669 161H697.813L707.317 146.312H695.365V144.2H710.173V146.312ZM730.82 144.2L723.356 161H721.1L728.54 144.2H730.82ZM724.1 149.504C724.1 151.072 723.66 152.32 722.78 153.248C721.9 154.16 720.628 154.616 718.964 154.616C717.3 154.616 716.012 154.16 715.1 153.248C714.204 152.32 713.756 151.072 713.756 149.504C713.756 147.952 714.204 146.76 715.1 145.928C716.012 145.096 717.3 144.68 718.964 144.68C720.628 144.68 721.9 145.096 722.78 145.928C723.66 146.76 724.1 147.952 724.1 149.504ZM715.796 149.72C715.812 150.68 716.052 151.44 716.516 152C716.98 152.544 717.764 152.816 718.868 152.816H718.964C720.068 152.816 720.852 152.552 721.316 152.024C721.796 151.48 722.036 150.704 722.036 149.696C722.052 148.704 721.82 147.92 721.34 147.344C720.876 146.768 720.092 146.48 718.988 146.48H718.892C717.788 146.48 716.988 146.768 716.492 147.344C716.012 147.904 715.78 148.696 715.796 149.72ZM738.284 155.264C738.284 156.832 737.844 158.08 736.964 159.008C736.084 159.92 734.812 160.376 733.148 160.376C731.484 160.376 730.204 159.92 729.308 159.008C728.412 158.08 727.964 156.832 727.964 155.264C727.964 153.712 728.412 152.52 729.308 151.688C730.204 150.856 731.484 150.44 733.148 150.44C734.812 150.44 736.084 150.856 736.964 151.688C737.844 152.52 738.284 153.712 738.284 155.264ZM730.004 155.48C730.02 156.44 730.252 157.2 730.7 157.76C731.164 158.304 731.948 158.576 733.052 158.576H733.172C734.276 158.576 735.06 158.312 735.524 157.784C735.988 157.24 736.228 156.464 736.244 155.456C736.244 154.464 736.012 153.68 735.548 153.104C735.084 152.528 734.3 152.24 733.196 152.24H733.1C731.98 152.24 731.18 152.528 730.7 153.104C730.22 153.664 729.988 154.456 730.004 155.48Z" fill="#8D96A5"/>
<path d="M943 197C943 192.582 946.582 189 951 189H1005C1009.42 189 1013 192.582 1013 197V224H943V197Z" fill="url(#paint6_linear_10096_20978)"/>
<path d="M960.345 167.888V170H947.217V167.888H953.433V154.856L949.713 161.84H947.241L951.921 153.2H955.785V167.888H960.345ZM979.625 153.2V170H977.273V163.664H964.985V153.2H967.337V161.504H977.273V153.2H979.625ZM1001.81 153.2L994.345 170H992.089L999.529 153.2H1001.81ZM995.089 158.504C995.089 160.072 994.649 161.32 993.769 162.248C992.889 163.16 991.617 163.616 989.953 163.616C988.289 163.616 987.001 163.16 986.089 162.248C985.193 161.32 984.745 160.072 984.745 158.504C984.745 156.952 985.193 155.76 986.089 154.928C987.001 154.096 988.289 153.68 989.953 153.68C991.617 153.68 992.889 154.096 993.769 154.928C994.649 155.76 995.089 156.952 995.089 158.504ZM986.785 158.72C986.801 159.68 987.041 160.44 987.505 161C987.969 161.544 988.753 161.816 989.857 161.816H989.953C991.057 161.816 991.841 161.552 992.305 161.024C992.785 160.48 993.025 159.704 993.025 158.696C993.041 157.704 992.809 156.92 992.329 156.344C991.865 155.768 991.081 155.48 989.977 155.48H989.881C988.777 155.48 987.977 155.768 987.481 156.344C987.001 156.904 986.769 157.696 986.785 158.72ZM1009.27 164.264C1009.27 165.832 1008.83 167.08 1007.95 168.008C1007.07 168.92 1005.8 169.376 1004.14 169.376C1002.47 169.376 1001.19 168.92 1000.3 168.008C999.401 167.08 998.953 165.832 998.953 164.264C998.953 162.712 999.401 161.52 1000.3 160.688C1001.19 159.856 1002.47 159.44 1004.14 159.44C1005.8 159.44 1007.07 159.856 1007.95 160.688C1008.83 161.52 1009.27 162.712 1009.27 164.264ZM1000.99 164.48C1001.01 165.44 1001.24 166.2 1001.69 166.76C1002.15 167.304 1002.94 167.576 1004.04 167.576H1004.16C1005.26 167.576 1006.05 167.312 1006.51 166.784C1006.98 166.24 1007.22 165.464 1007.23 164.456C1007.23 163.464 1007 162.68 1006.54 162.104C1006.07 161.528 1005.29 161.24 1004.18 161.24H1004.09C1002.97 161.24 1002.17 161.528 1001.69 162.104C1001.21 162.664 1000.98 163.456 1000.99 164.48Z" fill="#8D96A5"/>
<defs>
<linearGradient id="paint0_linear_10096_20978" x1="303" y1="123" x2="303" y2="224" gradientUnits="userSpaceOnUse">
<stop stop-color="#FFF338"/>
<stop offset="1" stop-color="#FFF338" stop-opacity="0"/>
</linearGradient>
<linearGradient id="paint1_linear_10096_20978" x1="168" y1="44" x2="168" y2="224" gradientUnits="userSpaceOnUse">
<stop stop-color="#FFF338"/>
<stop offset="1" stop-color="#FFF338" stop-opacity="0"/>
</linearGradient>
<linearGradient id="paint2_linear_10096_20978" x1="438" y1="131" x2="438" y2="224" gradientUnits="userSpaceOnUse">
<stop stop-color="#FFF338"/>
<stop offset="1" stop-color="#FFF338" stop-opacity="0"/>
</linearGradient>
<linearGradient id="paint3_linear_10096_20978" x1="573" y1="134" x2="573" y2="224" gradientUnits="userSpaceOnUse">
<stop stop-color="#FFF338"/>
<stop offset="1" stop-color="#FFF338" stop-opacity="0"/>
</linearGradient>
<linearGradient id="paint4_linear_10096_20978" x1="843" y1="180" x2="843" y2="224" gradientUnits="userSpaceOnUse">
<stop stop-color="#FFF338"/>
<stop offset="1" stop-color="#FFF338" stop-opacity="0"/>
</linearGradient>
<linearGradient id="paint5_linear_10096_20978" x1="708" y1="180" x2="708" y2="224" gradientUnits="userSpaceOnUse">
<stop stop-color="#FFF338"/>
<stop offset="1" stop-color="#FFF338" stop-opacity="0"/>
</linearGradient>
<linearGradient id="paint6_linear_10096_20978" x1="978" y1="189" x2="978" y2="224" gradientUnits="userSpaceOnUse">
<stop stop-color="#FFF338"/>
<stop offset="1" stop-color="#FFF338" stop-opacity="0"/>
</linearGradient>
</defs>
</svg>
