<svg width="1320" height="372" viewBox="0 0 1320 372" fill="none" xmlns="http://www.w3.org/2000/svg">
<path d="M635.935 349.03H639.697V361H638.221V350.398H635.935V349.03ZM649.166 354.592C649.682 354.868 650.09 355.27 650.39 355.798C650.69 356.326 650.84 356.908 650.84 357.544C650.84 358.612 650.444 359.494 649.652 360.19C648.86 360.874 647.84 361.216 646.592 361.216C645.752 361.216 645.008 361.066 644.36 360.766C643.724 360.454 643.232 360.022 642.884 359.47C642.536 358.906 642.362 358.264 642.362 357.544C642.362 357.124 642.428 356.728 642.56 356.356C642.704 355.972 642.902 355.63 643.154 355.33C643.406 355.03 643.706 354.784 644.054 354.592C643.67 354.316 643.364 353.95 643.136 353.494C642.908 353.026 642.794 352.534 642.794 352.018C642.794 351.07 643.142 350.302 643.838 349.714C644.546 349.114 645.464 348.814 646.592 348.814C647.036 348.814 647.456 348.868 647.852 348.976C648.248 349.072 648.596 349.216 648.896 349.408C649.208 349.588 649.472 349.81 649.688 350.074C649.916 350.326 650.09 350.62 650.21 350.956C650.33 351.292 650.39 351.646 650.39 352.018C650.39 352.366 650.336 352.708 650.228 353.044C650.132 353.368 649.988 353.662 649.796 353.926C649.616 354.19 649.406 354.412 649.166 354.592ZM646.592 350.092C645.896 350.092 645.332 350.272 644.9 350.632C644.468 350.992 644.252 351.454 644.252 352.018C644.252 352.606 644.468 353.08 644.9 353.44C645.332 353.8 645.896 353.98 646.592 353.98C647.276 353.98 647.834 353.8 648.266 353.44C648.698 353.08 648.914 352.606 648.914 352.018C648.914 351.454 648.698 350.992 648.266 350.632C647.846 350.272 647.288 350.092 646.592 350.092ZM646.592 359.902C647.408 359.902 648.068 359.686 648.572 359.254C649.088 358.822 649.346 358.264 649.346 357.58C649.346 356.884 649.088 356.326 648.572 355.906C648.068 355.474 647.408 355.258 646.592 355.258C645.788 355.258 645.128 355.474 644.612 355.906C644.108 356.326 643.856 356.884 643.856 357.58C643.856 358.036 643.97 358.438 644.198 358.786C644.426 359.134 644.75 359.41 645.17 359.614C645.59 359.806 646.064 359.902 646.592 359.902ZM653.021 356.716V355.24H658.727V356.716H653.021ZM662.973 359.578H668.085V361H660.039V360.514C661.899 358.57 663.249 357.106 664.089 356.122C664.929 355.126 665.481 354.37 665.745 353.854C666.009 353.338 666.141 352.81 666.141 352.27C666.141 351.97 666.087 351.694 665.979 351.442C665.883 351.19 665.739 350.974 665.547 350.794C665.367 350.614 665.145 350.476 664.881 350.38C664.617 350.284 664.329 350.236 664.017 350.236C663.573 350.236 663.183 350.326 662.847 350.506C662.511 350.674 662.253 350.914 662.073 351.226C661.893 351.538 661.803 351.892 661.803 352.288V352.576H660.327V352.288C660.327 351.604 660.477 350.998 660.777 350.47C661.089 349.942 661.521 349.534 662.073 349.246C662.637 348.958 663.285 348.814 664.017 348.814C665.085 348.814 665.955 349.138 666.627 349.786C667.299 350.422 667.635 351.25 667.635 352.27C667.635 352.858 667.527 353.416 667.311 353.944C667.095 354.472 666.651 355.18 665.979 356.068C665.319 356.944 664.317 358.114 662.973 359.578ZM678.028 357.148V358.48H676.768V361H675.328V358.48H669.19V358.12L673.402 349.03H674.95L671.206 357.148H675.346L675.58 353.458H676.768V357.148H678.028Z" fill="#8D96A5"/>
<path d="M531.917 124.206C533.021 124.206 533.975 124.578 534.779 125.322C535.583 126.054 535.985 126.99 535.985 128.13C535.985 129.318 535.583 130.296 534.779 131.064C533.975 131.832 532.955 132.216 531.719 132.216C530.459 132.216 529.427 131.832 528.623 131.064C527.819 130.296 527.417 129.318 527.417 128.13C527.417 127.038 527.855 125.712 528.731 124.152L531.125 119.922H532.763C531.311 122.502 530.447 124.062 530.171 124.602C530.723 124.338 531.305 124.206 531.917 124.206ZM529.703 130.038C530.231 130.542 530.897 130.794 531.701 130.794C532.505 130.794 533.171 130.548 533.699 130.056C534.227 129.552 534.491 128.91 534.491 128.13C534.491 127.626 534.371 127.17 534.131 126.762C533.891 126.354 533.555 126.042 533.123 125.826C532.703 125.598 532.229 125.484 531.701 125.484C531.173 125.484 530.693 125.598 530.261 125.826C529.841 126.054 529.511 126.372 529.271 126.78C529.031 127.176 528.911 127.626 528.911 128.13C528.911 128.898 529.175 129.534 529.703 130.038ZM542.135 132.216C540.719 132.216 539.591 131.658 538.751 130.542C537.923 129.426 537.509 127.914 537.509 126.006C537.509 124.098 537.923 122.592 538.751 121.488C539.579 120.372 540.707 119.814 542.135 119.814C543.563 119.814 544.691 120.372 545.519 121.488C546.347 122.592 546.761 124.098 546.761 126.006C546.761 127.914 546.341 129.426 545.501 130.542C544.673 131.658 543.551 132.216 542.135 132.216ZM542.135 130.794C543.107 130.794 543.869 130.374 544.421 129.534C544.985 128.682 545.267 127.506 545.267 126.006C545.267 124.518 544.985 123.354 544.421 122.514C543.869 121.662 543.107 121.236 542.135 121.236C541.499 121.236 540.941 121.428 540.461 121.812C539.993 122.184 539.633 122.73 539.381 123.45C539.129 124.17 539.003 125.022 539.003 126.006C539.003 127.506 539.279 128.682 539.831 129.534C540.395 130.374 541.163 130.794 542.135 130.794ZM555.901 124.782C555.049 124.782 554.353 124.518 553.813 123.99C553.273 123.45 553.003 122.766 553.003 121.938C553.003 121.098 553.273 120.414 553.813 119.886C554.353 119.358 555.043 119.094 555.883 119.094C556.735 119.094 557.425 119.358 557.953 119.886C558.493 120.414 558.763 121.098 558.763 121.938C558.763 122.766 558.493 123.45 557.953 123.99C557.425 124.518 556.741 124.782 555.901 124.782ZM554.965 132.072L562.615 119.382H564.235L556.585 132.072H554.965ZM554.749 123.108C555.049 123.408 555.427 123.558 555.883 123.558C556.351 123.558 556.735 123.408 557.035 123.108C557.347 122.796 557.503 122.406 557.503 121.938C557.503 121.47 557.347 121.086 557.035 120.786C556.735 120.474 556.351 120.318 555.883 120.318C555.427 120.318 555.049 120.474 554.749 120.786C554.449 121.086 554.299 121.47 554.299 121.938C554.299 122.406 554.449 122.796 554.749 123.108ZM565.621 131.316C565.093 131.832 564.409 132.09 563.569 132.09C562.729 132.09 562.039 131.832 561.499 131.316C560.971 130.788 560.707 130.11 560.707 129.282C560.707 128.442 560.971 127.764 561.499 127.248C562.039 126.72 562.729 126.456 563.569 126.456C564.409 126.456 565.093 126.72 565.621 127.248C566.161 127.764 566.431 128.442 566.431 129.282C566.431 130.11 566.161 130.788 565.621 131.316ZM562.417 130.416C562.717 130.716 563.101 130.866 563.569 130.866C564.037 130.866 564.415 130.716 564.703 130.416C565.003 130.116 565.153 129.732 565.153 129.264C565.153 128.964 565.087 128.694 564.955 128.454C564.823 128.214 564.631 128.028 564.379 127.896C564.139 127.752 563.869 127.68 563.569 127.68C563.101 127.68 562.717 127.83 562.417 128.13C562.129 128.43 561.985 128.814 561.985 129.282C561.985 129.738 562.129 130.116 562.417 130.416Z" fill="#8D96A5"/>
<path d="M536.032 196.148V197.48H534.772V200H533.332V197.48H527.194V197.12L531.406 188.03H532.954L529.21 196.148H533.35L533.584 192.458H534.772V196.148H536.032ZM542.135 200.216C540.719 200.216 539.591 199.658 538.751 198.542C537.923 197.426 537.509 195.914 537.509 194.006C537.509 192.098 537.923 190.592 538.751 189.488C539.579 188.372 540.707 187.814 542.135 187.814C543.563 187.814 544.691 188.372 545.519 189.488C546.347 190.592 546.761 192.098 546.761 194.006C546.761 195.914 546.341 197.426 545.501 198.542C544.673 199.658 543.551 200.216 542.135 200.216ZM542.135 198.794C543.107 198.794 543.869 198.374 544.421 197.534C544.985 196.682 545.267 195.506 545.267 194.006C545.267 192.518 544.985 191.354 544.421 190.514C543.869 189.662 543.107 189.236 542.135 189.236C541.499 189.236 540.941 189.428 540.461 189.812C539.993 190.184 539.633 190.73 539.381 191.45C539.129 192.17 539.003 193.022 539.003 194.006C539.003 195.506 539.279 196.682 539.831 197.534C540.395 198.374 541.163 198.794 542.135 198.794ZM555.901 192.782C555.049 192.782 554.353 192.518 553.813 191.99C553.273 191.45 553.003 190.766 553.003 189.938C553.003 189.098 553.273 188.414 553.813 187.886C554.353 187.358 555.043 187.094 555.883 187.094C556.735 187.094 557.425 187.358 557.953 187.886C558.493 188.414 558.763 189.098 558.763 189.938C558.763 190.766 558.493 191.45 557.953 191.99C557.425 192.518 556.741 192.782 555.901 192.782ZM554.965 200.072L562.615 187.382H564.235L556.585 200.072H554.965ZM554.749 191.108C555.049 191.408 555.427 191.558 555.883 191.558C556.351 191.558 556.735 191.408 557.035 191.108C557.347 190.796 557.503 190.406 557.503 189.938C557.503 189.47 557.347 189.086 557.035 188.786C556.735 188.474 556.351 188.318 555.883 188.318C555.427 188.318 555.049 188.474 554.749 188.786C554.449 189.086 554.299 189.47 554.299 189.938C554.299 190.406 554.449 190.796 554.749 191.108ZM565.621 199.316C565.093 199.832 564.409 200.09 563.569 200.09C562.729 200.09 562.039 199.832 561.499 199.316C560.971 198.788 560.707 198.11 560.707 197.282C560.707 196.442 560.971 195.764 561.499 195.248C562.039 194.72 562.729 194.456 563.569 194.456C564.409 194.456 565.093 194.72 565.621 195.248C566.161 195.764 566.431 196.442 566.431 197.282C566.431 198.11 566.161 198.788 565.621 199.316ZM562.417 198.416C562.717 198.716 563.101 198.866 563.569 198.866C564.037 198.866 564.415 198.716 564.703 198.416C565.003 198.116 565.153 197.732 565.153 197.264C565.153 196.964 565.087 196.694 564.955 196.454C564.823 196.214 564.631 196.028 564.379 195.896C564.139 195.752 563.869 195.68 563.569 195.68C563.101 195.68 562.717 195.83 562.417 196.13C562.129 196.43 561.985 196.814 561.985 197.282C561.985 197.738 562.129 198.116 562.417 198.416Z" fill="#8D96A5"/>
<path d="M530.662 266.578H535.774V268H527.728V267.514C529.588 265.57 530.938 264.106 531.778 263.122C532.618 262.126 533.17 261.37 533.434 260.854C533.698 260.338 533.83 259.81 533.83 259.27C533.83 258.97 533.776 258.694 533.668 258.442C533.572 258.19 533.428 257.974 533.236 257.794C533.056 257.614 532.834 257.476 532.57 257.38C532.306 257.284 532.018 257.236 531.706 257.236C531.262 257.236 530.872 257.326 530.536 257.506C530.2 257.674 529.942 257.914 529.762 258.226C529.582 258.538 529.492 258.892 529.492 259.288V259.576H528.016V259.288C528.016 258.604 528.166 257.998 528.466 257.47C528.778 256.942 529.21 256.534 529.762 256.246C530.326 255.958 530.974 255.814 531.706 255.814C532.774 255.814 533.644 256.138 534.316 256.786C534.988 257.422 535.324 258.25 535.324 259.27C535.324 259.858 535.216 260.416 535 260.944C534.784 261.472 534.34 262.18 533.668 263.068C533.008 263.944 532.006 265.114 530.662 266.578ZM542.135 268.216C540.719 268.216 539.591 267.658 538.751 266.542C537.923 265.426 537.509 263.914 537.509 262.006C537.509 260.098 537.923 258.592 538.751 257.488C539.579 256.372 540.707 255.814 542.135 255.814C543.563 255.814 544.691 256.372 545.519 257.488C546.347 258.592 546.761 260.098 546.761 262.006C546.761 263.914 546.341 265.426 545.501 266.542C544.673 267.658 543.551 268.216 542.135 268.216ZM542.135 266.794C543.107 266.794 543.869 266.374 544.421 265.534C544.985 264.682 545.267 263.506 545.267 262.006C545.267 260.518 544.985 259.354 544.421 258.514C543.869 257.662 543.107 257.236 542.135 257.236C541.499 257.236 540.941 257.428 540.461 257.812C539.993 258.184 539.633 258.73 539.381 259.45C539.129 260.17 539.003 261.022 539.003 262.006C539.003 263.506 539.279 264.682 539.831 265.534C540.395 266.374 541.163 266.794 542.135 266.794ZM555.901 260.782C555.049 260.782 554.353 260.518 553.813 259.99C553.273 259.45 553.003 258.766 553.003 257.938C553.003 257.098 553.273 256.414 553.813 255.886C554.353 255.358 555.043 255.094 555.883 255.094C556.735 255.094 557.425 255.358 557.953 255.886C558.493 256.414 558.763 257.098 558.763 257.938C558.763 258.766 558.493 259.45 557.953 259.99C557.425 260.518 556.741 260.782 555.901 260.782ZM554.965 268.072L562.615 255.382H564.235L556.585 268.072H554.965ZM554.749 259.108C555.049 259.408 555.427 259.558 555.883 259.558C556.351 259.558 556.735 259.408 557.035 259.108C557.347 258.796 557.503 258.406 557.503 257.938C557.503 257.47 557.347 257.086 557.035 256.786C556.735 256.474 556.351 256.318 555.883 256.318C555.427 256.318 555.049 256.474 554.749 256.786C554.449 257.086 554.299 257.47 554.299 257.938C554.299 258.406 554.449 258.796 554.749 259.108ZM565.621 267.316C565.093 267.832 564.409 268.09 563.569 268.09C562.729 268.09 562.039 267.832 561.499 267.316C560.971 266.788 560.707 266.11 560.707 265.282C560.707 264.442 560.971 263.764 561.499 263.248C562.039 262.72 562.729 262.456 563.569 262.456C564.409 262.456 565.093 262.72 565.621 263.248C566.161 263.764 566.431 264.442 566.431 265.282C566.431 266.11 566.161 266.788 565.621 267.316ZM562.417 266.416C562.717 266.716 563.101 266.866 563.569 266.866C564.037 266.866 564.415 266.716 564.703 266.416C565.003 266.116 565.153 265.732 565.153 265.264C565.153 264.964 565.087 264.694 564.955 264.454C564.823 264.214 564.631 264.028 564.379 263.896C564.139 263.752 563.869 263.68 563.569 263.68C563.101 263.68 562.717 263.83 562.417 264.13C562.129 264.43 561.985 264.814 561.985 265.282C561.985 265.738 562.129 266.116 562.417 266.416Z" fill="#8D96A5"/>
<path d="M542.135 337.421C540.719 337.421 539.591 336.863 538.751 335.747C537.923 334.631 537.509 333.119 537.509 331.211C537.509 329.303 537.923 327.797 538.751 326.693C539.579 325.577 540.707 325.019 542.135 325.019C543.563 325.019 544.691 325.577 545.519 326.693C546.347 327.797 546.761 329.303 546.761 331.211C546.761 333.119 546.341 334.631 545.501 335.747C544.673 336.863 543.551 337.421 542.135 337.421ZM542.135 335.999C543.107 335.999 543.869 335.579 544.421 334.739C544.985 333.887 545.267 332.711 545.267 331.211C545.267 329.723 544.985 328.559 544.421 327.719C543.869 326.867 543.107 326.441 542.135 326.441C541.499 326.441 540.941 326.633 540.461 327.017C539.993 327.389 539.633 327.935 539.381 328.655C539.129 329.375 539.003 330.227 539.003 331.211C539.003 332.711 539.279 333.887 539.831 334.739C540.395 335.579 541.163 335.999 542.135 335.999ZM555.901 329.987C555.049 329.987 554.353 329.723 553.813 329.195C553.273 328.655 553.003 327.971 553.003 327.143C553.003 326.303 553.273 325.619 553.813 325.091C554.353 324.563 555.043 324.299 555.883 324.299C556.735 324.299 557.425 324.563 557.953 325.091C558.493 325.619 558.763 326.303 558.763 327.143C558.763 327.971 558.493 328.655 557.953 329.195C557.425 329.723 556.741 329.987 555.901 329.987ZM554.965 337.277L562.615 324.587H564.235L556.585 337.277H554.965ZM554.749 328.313C555.049 328.613 555.427 328.763 555.883 328.763C556.351 328.763 556.735 328.613 557.035 328.313C557.347 328.001 557.503 327.611 557.503 327.143C557.503 326.675 557.347 326.291 557.035 325.991C556.735 325.679 556.351 325.523 555.883 325.523C555.427 325.523 555.049 325.679 554.749 325.991C554.449 326.291 554.299 326.675 554.299 327.143C554.299 327.611 554.449 328.001 554.749 328.313ZM565.621 336.521C565.093 337.037 564.409 337.295 563.569 337.295C562.729 337.295 562.039 337.037 561.499 336.521C560.971 335.993 560.707 335.315 560.707 334.487C560.707 333.647 560.971 332.969 561.499 332.453C562.039 331.925 562.729 331.661 563.569 331.661C564.409 331.661 565.093 331.925 565.621 332.453C566.161 332.969 566.431 333.647 566.431 334.487C566.431 335.315 566.161 335.993 565.621 336.521ZM562.417 335.621C562.717 335.921 563.101 336.071 563.569 336.071C564.037 336.071 564.415 335.921 564.703 335.621C565.003 335.321 565.153 334.937 565.153 334.469C565.153 334.169 565.087 333.899 564.955 333.659C564.823 333.419 564.631 333.233 564.379 333.101C564.139 332.957 563.869 332.885 563.569 332.885C563.101 332.885 562.717 333.035 562.417 333.335C562.129 333.635 561.985 334.019 561.985 334.487C561.985 334.943 562.129 335.321 562.417 335.621Z" fill="#8D96A5"/>
<path d="M582 127H1320" stroke="#BEBEBE"/>
<path d="M582 263H1320" stroke="#BEBEBE"/>
<path d="M582 195H1320" stroke="#BEBEBE"/>
<path d="M582 331H1320" stroke="#BEBEBE"/>
<path d="M622 284C622 279.582 625.582 276 630 276H684C688.418 276 692 279.582 692 284V331H622V284Z" fill="#FFF338"/>
<path d="M639.228 250.888V253H626.1V250.888H632.316V237.856L628.596 244.84H626.124L630.804 236.2H634.668V250.888H639.228ZM659.132 247.288C659.132 248.376 658.932 249.32 658.532 250.12C658.132 250.904 657.58 251.552 656.876 252.064C656.188 252.56 655.38 252.928 654.452 253.168C653.524 253.408 652.54 253.528 651.5 253.528C650.284 253.528 649.18 253.424 648.188 253.216C647.212 253.008 646.372 252.688 645.668 252.256C644.964 251.824 644.42 251.272 644.036 250.6C643.652 249.912 643.46 249.088 643.46 248.128H646.004C646.004 248.624 646.1 249.072 646.292 249.472C646.484 249.872 646.788 250.216 647.204 250.504C647.636 250.792 648.188 251.016 648.86 251.176C649.548 251.336 650.38 251.416 651.356 251.416C652.348 251.416 653.18 251.328 653.852 251.152C654.524 250.96 655.068 250.688 655.484 250.336C655.9 249.968 656.196 249.52 656.372 248.992C656.564 248.448 656.66 247.816 656.66 247.096C656.66 246.456 656.524 245.92 656.252 245.488C655.98 245.04 655.604 244.68 655.124 244.408C654.66 244.136 654.1 243.944 653.444 243.832C652.804 243.704 652.108 243.64 651.356 243.64C650.204 243.64 649.308 243.752 648.668 243.976C648.044 244.2 647.572 244.448 647.252 244.72C646.884 245.04 646.66 245.4 646.58 245.8L646.556 245.752V245.8H644.204V236.2H657.86V238.336H646.556V242.872C646.972 242.552 647.58 242.248 648.38 241.96C649.18 241.672 650.26 241.528 651.62 241.528C652.644 241.528 653.612 241.624 654.523 241.816C655.436 241.992 656.228 242.304 656.9 242.752C657.588 243.184 658.132 243.768 658.532 244.504C658.932 245.24 659.132 246.168 659.132 247.288ZM680.926 236.2L673.462 253H671.206L678.646 236.2H680.926ZM674.206 241.504C674.206 243.072 673.766 244.32 672.886 245.248C672.006 246.16 670.734 246.616 669.07 246.616C667.406 246.616 666.118 246.16 665.206 245.248C664.31 244.32 663.862 243.072 663.862 241.504C663.862 239.952 664.31 238.76 665.206 237.928C666.118 237.096 667.406 236.68 669.07 236.68C670.734 236.68 672.006 237.096 672.886 237.928C673.766 238.76 674.206 239.952 674.206 241.504ZM665.902 241.72C665.918 242.68 666.158 243.44 666.622 244C667.086 244.544 667.87 244.816 668.974 244.816H669.07C670.174 244.816 670.958 244.552 671.422 244.024C671.902 243.48 672.142 242.704 672.142 241.696C672.158 240.704 671.926 239.92 671.446 239.344C670.982 238.768 670.198 238.48 669.094 238.48H668.998C667.894 238.48 667.094 238.768 666.598 239.344C666.118 239.904 665.886 240.696 665.902 241.72ZM688.39 247.264C688.39 248.832 687.95 250.08 687.07 251.008C686.19 251.92 684.918 252.376 683.254 252.376C681.59 252.376 680.31 251.92 679.414 251.008C678.518 250.08 678.07 248.832 678.07 247.264C678.07 245.712 678.518 244.52 679.414 243.688C680.31 242.856 681.59 242.44 683.254 242.44C684.918 242.44 686.19 242.856 687.07 243.688C687.95 244.52 688.39 245.712 688.39 247.264ZM680.11 247.48C680.126 248.44 680.358 249.2 680.806 249.76C681.27 250.304 682.054 250.576 683.158 250.576H683.278C684.382 250.576 685.166 250.312 685.63 249.784C686.094 249.24 686.334 248.464 686.35 247.456C686.35 246.464 686.118 245.68 685.654 245.104C685.19 244.528 684.406 244.24 683.302 244.24H683.206C682.086 244.24 681.286 244.528 680.806 245.104C680.326 245.664 680.094 246.456 680.11 247.48Z" fill="#8D96A5"/>
<path d="M752.37 359.578H757.482V361H749.436V360.514C751.296 358.57 752.646 357.106 753.486 356.122C754.326 355.126 754.878 354.37 755.142 353.854C755.406 353.338 755.538 352.81 755.538 352.27C755.538 351.97 755.484 351.694 755.376 351.442C755.28 351.19 755.136 350.974 754.944 350.794C754.764 350.614 754.542 350.476 754.278 350.38C754.014 350.284 753.726 350.236 753.414 350.236C752.97 350.236 752.58 350.326 752.244 350.506C751.908 350.674 751.65 350.914 751.47 351.226C751.29 351.538 751.2 351.892 751.2 352.288V352.576H749.724V352.288C749.724 351.604 749.874 350.998 750.174 350.47C750.486 349.942 750.918 349.534 751.47 349.246C752.034 348.958 752.682 348.814 753.414 348.814C754.482 348.814 755.352 349.138 756.024 349.786C756.696 350.422 757.032 351.25 757.032 352.27C757.032 352.858 756.924 353.416 756.708 353.944C756.492 354.472 756.048 355.18 755.376 356.068C754.716 356.944 753.714 358.114 752.37 359.578ZM762.835 353.44C763.615 353.44 764.317 353.608 764.941 353.944C765.577 354.28 766.069 354.748 766.417 355.348C766.777 355.936 766.957 356.59 766.957 357.31C766.957 358.426 766.573 359.356 765.805 360.1C765.037 360.844 764.089 361.216 762.961 361.216C761.845 361.216 760.915 360.868 760.171 360.172C759.427 359.464 759.037 358.576 759.001 357.508H760.459C760.483 357.952 760.603 358.348 760.819 358.696C761.047 359.044 761.347 359.314 761.719 359.506C762.091 359.698 762.505 359.794 762.961 359.794C763.681 359.794 764.275 359.56 764.743 359.092C765.211 358.624 765.445 358.03 765.445 357.31C765.445 356.83 765.331 356.398 765.103 356.014C764.875 355.618 764.557 355.312 764.149 355.096C763.741 354.88 763.285 354.772 762.781 354.772H759.739L759.523 354.52L760.135 349.03H766.129V350.398H761.359L761.035 353.44H762.835ZM768.944 356.716V355.24H774.65V356.716H768.944ZM781.312 353.548C782.296 353.692 783.094 354.112 783.706 354.808C784.318 355.492 784.624 356.326 784.624 357.31C784.624 358.438 784.24 359.374 783.472 360.118C782.704 360.85 781.75 361.216 780.61 361.216C779.506 361.216 778.588 360.868 777.856 360.172C777.124 359.476 776.728 358.588 776.668 357.508H778.126C778.174 358.192 778.426 358.744 778.882 359.164C779.338 359.584 779.914 359.794 780.61 359.794C781.09 359.794 781.522 359.686 781.906 359.47C782.29 359.254 782.59 358.954 782.806 358.57C783.022 358.174 783.13 357.736 783.13 357.256C783.13 356.524 782.872 355.924 782.356 355.456C781.852 354.976 781.21 354.736 780.43 354.736H779.08V354.448L781.852 350.398H777.064V349.03H784.156V349.372L781.312 353.548ZM794.707 357.148V358.48H793.447V361H792.007V358.48H785.869V358.12L790.081 349.03H791.629L787.885 357.148H792.025L792.259 353.458H793.447V357.148H794.707Z" fill="#8D96A5"/>
<path d="M869.083 353.548C870.067 353.692 870.865 354.112 871.477 354.808C872.089 355.492 872.395 356.326 872.395 357.31C872.395 358.438 872.011 359.374 871.243 360.118C870.475 360.85 869.521 361.216 868.381 361.216C867.277 361.216 866.359 360.868 865.627 360.172C864.895 359.476 864.499 358.588 864.439 357.508H865.897C865.945 358.192 866.197 358.744 866.653 359.164C867.109 359.584 867.685 359.794 868.381 359.794C868.861 359.794 869.293 359.686 869.677 359.47C870.061 359.254 870.361 358.954 870.577 358.57C870.793 358.174 870.901 357.736 870.901 357.256C870.901 356.524 870.643 355.924 870.127 355.456C869.623 354.976 868.981 354.736 868.201 354.736H866.851V354.448L869.623 350.398H864.835V349.03H871.927V349.372L869.083 353.548ZM877.87 353.44C878.65 353.44 879.352 353.608 879.976 353.944C880.612 354.28 881.104 354.748 881.452 355.348C881.812 355.936 881.992 356.59 881.992 357.31C881.992 358.426 881.608 359.356 880.84 360.1C880.072 360.844 879.124 361.216 877.996 361.216C876.88 361.216 875.95 360.868 875.206 360.172C874.462 359.464 874.072 358.576 874.036 357.508H875.494C875.518 357.952 875.638 358.348 875.854 358.696C876.082 359.044 876.382 359.314 876.754 359.506C877.126 359.698 877.54 359.794 877.996 359.794C878.716 359.794 879.31 359.56 879.778 359.092C880.246 358.624 880.48 358.03 880.48 357.31C880.48 356.83 880.366 356.398 880.138 356.014C879.91 355.618 879.592 355.312 879.184 355.096C878.776 354.88 878.32 354.772 877.816 354.772H874.774L874.558 354.52L875.17 349.03H881.164V350.398H876.394L876.07 353.44H877.87ZM883.979 356.716V355.24H889.685V356.716H883.979ZM900.127 357.148V358.48H898.867V361H897.427V358.48H891.289V358.12L895.501 349.03H897.049L893.305 357.148H897.445L897.679 353.458H898.867V357.148H900.127ZM909.83 357.148V358.48H908.57V361H907.13V358.48H900.992V358.12L905.204 349.03H906.752L903.008 357.148H907.148L907.382 353.458H908.57V357.148H909.83Z" fill="#8D96A5"/>
<path d="M987.942 357.148V358.48H986.682V361H985.242V358.48H979.104V358.12L983.316 349.03H984.864L981.12 357.148H985.26L985.494 353.458H986.682V357.148H987.942ZM993.037 353.44C993.817 353.44 994.519 353.608 995.143 353.944C995.779 354.28 996.271 354.748 996.619 355.348C996.979 355.936 997.159 356.59 997.159 357.31C997.159 358.426 996.775 359.356 996.007 360.1C995.239 360.844 994.291 361.216 993.163 361.216C992.047 361.216 991.117 360.868 990.373 360.172C989.629 359.464 989.239 358.576 989.203 357.508H990.661C990.685 357.952 990.805 358.348 991.021 358.696C991.249 359.044 991.549 359.314 991.921 359.506C992.293 359.698 992.707 359.794 993.163 359.794C993.883 359.794 994.477 359.56 994.945 359.092C995.413 358.624 995.647 358.03 995.647 357.31C995.647 356.83 995.533 356.398 995.305 356.014C995.077 355.618 994.759 355.312 994.351 355.096C993.943 354.88 993.487 354.772 992.983 354.772H989.941L989.725 354.52L990.337 349.03H996.331V350.398H991.561L991.237 353.44H993.037ZM999.146 356.716V355.24H1004.85V356.716H999.146ZM1010.69 353.44C1011.47 353.44 1012.17 353.608 1012.79 353.944C1013.43 354.28 1013.92 354.748 1014.27 355.348C1014.63 355.936 1014.81 356.59 1014.81 357.31C1014.81 358.426 1014.42 359.356 1013.66 360.1C1012.89 360.844 1011.94 361.216 1010.81 361.216C1009.7 361.216 1008.77 360.868 1008.02 360.172C1007.28 359.464 1006.89 358.576 1006.85 357.508H1008.31C1008.33 357.952 1008.45 358.348 1008.67 358.696C1008.9 359.044 1009.2 359.314 1009.57 359.506C1009.94 359.698 1010.36 359.794 1010.81 359.794C1011.53 359.794 1012.13 359.56 1012.59 359.092C1013.06 358.624 1013.3 358.03 1013.3 357.31C1013.3 356.83 1013.18 356.398 1012.95 356.014C1012.73 355.618 1012.41 355.312 1012 355.096C1011.59 354.88 1011.14 354.772 1010.63 354.772H1007.59L1007.37 354.52L1007.99 349.03H1013.98V350.398H1009.21L1008.89 353.44H1010.69ZM1024.75 357.148V358.48H1023.49V361H1022.05V358.48H1015.91V358.12L1020.12 349.03H1021.67L1017.93 357.148H1022.07L1022.3 353.458H1023.49V357.148H1024.75Z" fill="#8D96A5"/>
<path d="M1098.19 353.44C1098.97 353.44 1099.68 353.608 1100.3 353.944C1100.94 354.28 1101.43 354.748 1101.78 355.348C1102.14 355.936 1102.32 356.59 1102.32 357.31C1102.32 358.426 1101.93 359.356 1101.16 360.1C1100.4 360.844 1099.45 361.216 1098.32 361.216C1097.2 361.216 1096.27 360.868 1095.53 360.172C1094.79 359.464 1094.4 358.576 1094.36 357.508H1095.82C1095.84 357.952 1095.96 358.348 1096.18 358.696C1096.41 359.044 1096.71 359.314 1097.08 359.506C1097.45 359.698 1097.86 359.794 1098.32 359.794C1099.04 359.794 1099.63 359.56 1100.1 359.092C1100.57 358.624 1100.8 358.03 1100.8 357.31C1100.8 356.83 1100.69 356.398 1100.46 356.014C1100.23 355.618 1099.92 355.312 1099.51 355.096C1099.1 354.88 1098.64 354.772 1098.14 354.772H1095.1L1094.88 354.52L1095.49 349.03H1101.49V350.398H1096.72L1096.39 353.44H1098.19ZM1107.65 353.44C1108.43 353.44 1109.13 353.608 1109.76 353.944C1110.39 354.28 1110.88 354.748 1111.23 355.348C1111.59 355.936 1111.77 356.59 1111.77 357.31C1111.77 358.426 1111.39 359.356 1110.62 360.1C1109.85 360.844 1108.9 361.216 1107.78 361.216C1106.66 361.216 1105.73 360.868 1104.99 360.172C1104.24 359.464 1103.85 358.576 1103.82 357.508H1105.27C1105.3 357.952 1105.42 358.348 1105.63 358.696C1105.86 359.044 1106.16 359.314 1106.53 359.506C1106.91 359.698 1107.32 359.794 1107.78 359.794C1108.5 359.794 1109.09 359.56 1109.56 359.092C1110.03 358.624 1110.26 358.03 1110.26 357.31C1110.26 356.83 1110.15 356.398 1109.92 356.014C1109.69 355.618 1109.37 355.312 1108.96 355.096C1108.56 354.88 1108.1 354.772 1107.6 354.772H1104.55L1104.34 354.52L1104.95 349.03H1110.94V350.398H1106.17L1105.85 353.44H1107.65ZM1113.76 356.716V355.24H1119.47V356.716H1113.76ZM1126.07 353.206C1127.18 353.206 1128.13 353.578 1128.93 354.322C1129.74 355.054 1130.14 355.99 1130.14 357.13C1130.14 358.318 1129.74 359.296 1128.93 360.064C1128.13 360.832 1127.11 361.216 1125.87 361.216C1124.61 361.216 1123.58 360.832 1122.78 360.064C1121.97 359.296 1121.57 358.318 1121.57 357.13C1121.57 356.038 1122.01 354.712 1122.89 353.152L1125.28 348.922H1126.92C1125.47 351.502 1124.6 353.062 1124.33 353.602C1124.88 353.338 1125.46 353.206 1126.07 353.206ZM1123.86 359.038C1124.39 359.542 1125.05 359.794 1125.86 359.794C1126.66 359.794 1127.33 359.548 1127.85 359.056C1128.38 358.552 1128.65 357.91 1128.65 357.13C1128.65 356.626 1128.53 356.17 1128.29 355.762C1128.05 355.354 1127.71 355.042 1127.28 354.826C1126.86 354.598 1126.38 354.484 1125.86 354.484C1125.33 354.484 1124.85 354.598 1124.42 354.826C1124 355.054 1123.67 355.372 1123.43 355.78C1123.19 356.176 1123.07 356.626 1123.07 357.13C1123.07 357.898 1123.33 358.534 1123.86 359.038ZM1139.89 357.148V358.48H1138.63V361H1137.19V358.48H1131.05V358.12L1135.27 349.03H1136.81L1133.07 357.148H1137.21L1137.44 353.458H1138.63V357.148H1139.89Z" fill="#8D96A5"/>
<path d="M1222.91 353.206C1224.02 353.206 1224.97 353.578 1225.78 354.322C1226.58 355.054 1226.98 355.99 1226.98 357.13C1226.98 358.318 1226.58 359.296 1225.78 360.064C1224.97 360.832 1223.95 361.216 1222.72 361.216C1221.46 361.216 1220.42 360.832 1219.62 360.064C1218.82 359.296 1218.41 358.318 1218.41 357.13C1218.41 356.038 1218.85 354.712 1219.73 353.152L1222.12 348.922H1223.76C1222.31 351.502 1221.44 353.062 1221.17 353.602C1221.72 353.338 1222.3 353.206 1222.91 353.206ZM1220.7 359.038C1221.23 359.542 1221.89 359.794 1222.7 359.794C1223.5 359.794 1224.17 359.548 1224.7 359.056C1225.22 358.552 1225.49 357.91 1225.49 357.13C1225.49 356.626 1225.37 356.17 1225.13 355.762C1224.89 355.354 1224.55 355.042 1224.12 354.826C1223.7 354.598 1223.23 354.484 1222.7 354.484C1222.17 354.484 1221.69 354.598 1221.26 354.826C1220.84 355.054 1220.51 355.372 1220.27 355.78C1220.03 356.176 1219.91 356.626 1219.91 357.13C1219.91 357.898 1220.17 358.534 1220.7 359.038ZM1232.13 353.44C1232.91 353.44 1233.61 353.608 1234.23 353.944C1234.87 354.28 1235.36 354.748 1235.71 355.348C1236.07 355.936 1236.25 356.59 1236.25 357.31C1236.25 358.426 1235.86 359.356 1235.1 360.1C1234.33 360.844 1233.38 361.216 1232.25 361.216C1231.14 361.216 1230.21 360.868 1229.46 360.172C1228.72 359.464 1228.33 358.576 1228.29 357.508H1229.75C1229.77 357.952 1229.89 358.348 1230.11 358.696C1230.34 359.044 1230.64 359.314 1231.01 359.506C1231.38 359.698 1231.8 359.794 1232.25 359.794C1232.97 359.794 1233.57 359.56 1234.03 359.092C1234.5 358.624 1234.74 358.03 1234.74 357.31C1234.74 356.83 1234.62 356.398 1234.39 356.014C1234.17 355.618 1233.85 355.312 1233.44 355.096C1233.03 354.88 1232.58 354.772 1232.07 354.772H1229.03L1228.81 354.52L1229.43 349.03H1235.42V350.398H1230.65L1230.33 353.44H1232.13ZM1245.85 354.106V355.528H1242.48V359.056H1240.97V355.528H1237.59V354.106H1240.97V350.668H1242.48V354.106H1245.85Z" fill="#8D96A5"/>
<path d="M737 185C737 180.582 740.582 177 745 177H799C803.418 177 807 180.582 807 185V331H737V185Z" fill="#FFF338"/>
<path d="M754.656 137.2V154H752.304V147.664H740.016V137.2H742.368V145.504H752.304V137.2H754.656ZM775.112 148.288C775.112 149.44 774.912 150.416 774.512 151.216C774.112 152 773.56 152.64 772.856 153.136C772.168 153.632 771.352 153.992 770.408 154.216C769.48 154.44 768.472 154.552 767.384 154.552C766.312 154.552 765.28 154.456 764.288 154.264C763.312 154.072 762.448 153.696 761.696 153.136C760.96 152.576 760.376 151.784 759.944 150.76C759.528 149.736 759.336 148.384 759.368 146.704C759.368 145.216 759.464 143.856 759.656 142.624C759.864 141.392 760.264 140.336 760.856 139.456C761.464 138.56 762.32 137.872 763.424 137.392C764.528 136.896 765.984 136.648 767.792 136.648C768.944 136.648 769.936 136.8 770.768 137.104C771.616 137.392 772.312 137.768 772.856 138.232C773.416 138.68 773.824 139.184 774.08 139.744C774.352 140.288 774.488 140.816 774.488 141.328L771.968 141.352C771.872 140.872 771.648 140.44 771.296 140.056C771.008 139.736 770.576 139.44 770 139.168C769.424 138.896 768.632 138.76 767.624 138.76C766.456 138.76 765.496 138.92 764.744 139.24C764.008 139.56 763.424 139.984 762.992 140.512C762.56 141.024 762.256 141.616 762.08 142.288C761.92 142.944 761.832 143.624 761.816 144.328C761.928 144.248 762.112 144.12 762.368 143.944C762.64 143.752 763 143.56 763.448 143.368C763.896 143.176 764.448 143.008 765.104 142.864C765.76 142.72 766.528 142.648 767.408 142.648C768.496 142.648 769.504 142.76 770.432 142.984C771.376 143.192 772.192 143.528 772.88 143.992C773.568 144.44 774.112 145.024 774.512 145.744C774.912 146.448 775.112 147.296 775.112 148.288ZM761.768 148.336C761.768 149.056 761.896 149.68 762.152 150.208C762.424 150.72 762.8 151.144 763.28 151.48C763.76 151.816 764.32 152.064 764.96 152.224C765.616 152.368 766.328 152.44 767.096 152.44C767.88 152.44 768.608 152.384 769.28 152.272C769.968 152.16 770.56 151.952 771.056 151.648C771.552 151.344 771.936 150.92 772.208 150.376C772.496 149.832 772.64 149.128 772.64 148.264C772.64 147.096 772.168 146.216 771.224 145.624C770.296 145.016 768.92 144.712 767.096 144.712C766.296 144.712 765.568 144.792 764.912 144.952C764.256 145.112 763.696 145.352 763.232 145.672C762.768 145.976 762.408 146.352 762.152 146.8C761.896 147.248 761.768 147.76 761.768 148.336ZM796.77 137.2L789.306 154H787.05L794.49 137.2H796.77ZM790.05 142.504C790.05 144.072 789.61 145.32 788.73 146.248C787.85 147.16 786.578 147.616 784.914 147.616C783.25 147.616 781.962 147.16 781.05 146.248C780.154 145.32 779.706 144.072 779.706 142.504C779.706 140.952 780.154 139.76 781.05 138.928C781.962 138.096 783.25 137.68 784.914 137.68C786.578 137.68 787.85 138.096 788.73 138.928C789.61 139.76 790.05 140.952 790.05 142.504ZM781.746 142.72C781.762 143.68 782.002 144.44 782.466 145C782.93 145.544 783.714 145.816 784.818 145.816H784.914C786.018 145.816 786.802 145.552 787.266 145.024C787.746 144.48 787.986 143.704 787.986 142.696C788.002 141.704 787.77 140.92 787.29 140.344C786.826 139.768 786.042 139.48 784.938 139.48H784.842C783.738 139.48 782.938 139.768 782.442 140.344C781.962 140.904 781.73 141.696 781.746 142.72ZM804.234 148.264C804.234 149.832 803.794 151.08 802.914 152.008C802.034 152.92 800.762 153.376 799.098 153.376C797.434 153.376 796.154 152.92 795.258 152.008C794.362 151.08 793.914 149.832 793.914 148.264C793.914 146.712 794.362 145.52 795.258 144.688C796.154 143.856 797.434 143.44 799.098 143.44C800.762 143.44 802.034 143.856 802.914 144.688C803.794 145.52 804.234 146.712 804.234 148.264ZM795.954 148.48C795.97 149.44 796.202 150.2 796.65 150.76C797.114 151.304 797.898 151.576 799.002 151.576H799.122C800.226 151.576 801.01 151.312 801.474 150.784C801.938 150.24 802.178 149.464 802.194 148.456C802.194 147.464 801.962 146.68 801.498 146.104C801.034 145.528 800.25 145.24 799.146 145.24H799.05C797.93 145.24 797.13 145.528 796.65 146.104C796.17 146.664 795.938 147.456 795.954 148.48Z" fill="#8D96A5"/>
<path d="M852 261C852 256.582 855.582 253 860 253H914C918.418 253 922 256.582 922 261V331H852V261Z" fill="#FFF338"/>
<path d="M870.351 227.888V230H855.279V226.496C857.055 225.696 858.687 224.992 860.175 224.384C861.679 223.776 862.983 223.184 864.087 222.608C865.191 222.016 866.055 221.4 866.679 220.76C867.319 220.104 867.663 219.336 867.711 218.456C867.727 218.248 867.695 217.944 867.615 217.544C867.535 217.144 867.335 216.744 867.015 216.344C866.711 215.944 866.239 215.592 865.599 215.288C864.959 214.968 864.087 214.8 862.983 214.784C861.159 214.752 859.823 215.136 858.975 215.936C858.127 216.736 857.711 217.888 857.727 219.392H855.183C855.183 218.576 855.279 217.776 855.471 216.992C855.663 216.192 856.039 215.48 856.599 214.856C857.159 214.232 857.943 213.728 858.951 213.344C859.975 212.944 861.319 212.744 862.983 212.744C864.103 212.744 865.055 212.848 865.839 213.056C866.639 213.248 867.303 213.512 867.831 213.848C868.375 214.168 868.799 214.536 869.103 214.952C869.423 215.368 869.663 215.784 869.823 216.2C869.983 216.616 870.087 217.016 870.135 217.4C870.183 217.768 870.207 218.08 870.207 218.336C870.207 219.632 869.863 220.728 869.175 221.624C868.487 222.504 867.551 223.288 866.367 223.976C865.199 224.664 863.847 225.312 862.311 225.92C860.775 226.512 859.151 227.168 857.439 227.888H870.351ZM889.929 227.888V230H874.857V226.496C876.633 225.696 878.265 224.992 879.753 224.384C881.257 223.776 882.561 223.184 883.665 222.608C884.769 222.016 885.633 221.4 886.257 220.76C886.897 220.104 887.241 219.336 887.289 218.456C887.305 218.248 887.273 217.944 887.193 217.544C887.113 217.144 886.913 216.744 886.593 216.344C886.289 215.944 885.817 215.592 885.177 215.288C884.537 214.968 883.665 214.8 882.561 214.784C880.737 214.752 879.401 215.136 878.553 215.936C877.705 216.736 877.289 217.888 877.305 219.392H874.761C874.761 218.576 874.857 217.776 875.049 216.992C875.241 216.192 875.617 215.48 876.177 214.856C876.737 214.232 877.521 213.728 878.529 213.344C879.553 212.944 880.897 212.744 882.561 212.744C883.681 212.744 884.633 212.848 885.417 213.056C886.217 213.248 886.881 213.512 887.409 213.848C887.953 214.168 888.377 214.536 888.681 214.952C889.001 215.368 889.241 215.784 889.401 216.2C889.561 216.616 889.665 217.016 889.713 217.4C889.761 217.768 889.785 218.08 889.785 218.336C889.785 219.632 889.441 220.728 888.753 221.624C888.065 222.504 887.129 223.288 885.945 223.976C884.777 224.664 883.425 225.312 881.889 225.92C880.353 226.512 878.729 227.168 877.017 227.888H889.929ZM911.883 213.2L904.419 230H902.163L909.603 213.2H911.883ZM905.163 218.504C905.163 220.072 904.723 221.32 903.843 222.248C902.963 223.16 901.691 223.616 900.027 223.616C898.363 223.616 897.075 223.16 896.163 222.248C895.267 221.32 894.819 220.072 894.819 218.504C894.819 216.952 895.267 215.76 896.163 214.928C897.075 214.096 898.363 213.68 900.027 213.68C901.691 213.68 902.963 214.096 903.843 214.928C904.723 215.76 905.163 216.952 905.163 218.504ZM896.859 218.72C896.875 219.68 897.115 220.44 897.579 221C898.043 221.544 898.827 221.816 899.931 221.816H900.027C901.131 221.816 901.915 221.552 902.379 221.024C902.859 220.48 903.099 219.704 903.099 218.696C903.115 217.704 902.883 216.92 902.403 216.344C901.939 215.768 901.155 215.48 900.051 215.48H899.955C898.851 215.48 898.051 215.768 897.555 216.344C897.075 216.904 896.843 217.696 896.859 218.72ZM919.347 224.264C919.347 225.832 918.907 227.08 918.027 228.008C917.147 228.92 915.875 229.376 914.211 229.376C912.547 229.376 911.267 228.92 910.371 228.008C909.475 227.08 909.027 225.832 909.027 224.264C909.027 222.712 909.475 221.52 910.371 220.688C911.267 219.856 912.547 219.44 914.211 219.44C915.875 219.44 917.147 219.856 918.027 220.688C918.907 221.52 919.347 222.712 919.347 224.264ZM911.067 224.48C911.083 225.44 911.315 226.2 911.763 226.76C912.227 227.304 913.011 227.576 914.115 227.576H914.235C915.339 227.576 916.123 227.312 916.587 226.784C917.051 226.24 917.291 225.464 917.307 224.456C917.307 223.464 917.075 222.68 916.611 222.104C916.147 221.528 915.363 221.24 914.259 221.24H914.163C913.043 221.24 912.243 221.528 911.763 222.104C911.283 222.664 911.051 223.456 911.067 224.48Z" fill="#8D96A5"/>
<path d="M1082 322C1082 317.582 1085.58 314 1090 314H1144C1148.42 314 1152 317.582 1152 322V331H1082V322Z" fill="#FFF338"/>
<path d="M1110.13 285.288C1110.13 286.376 1109.93 287.32 1109.53 288.12C1109.13 288.904 1108.58 289.552 1107.87 290.064C1107.18 290.56 1106.38 290.928 1105.45 291.168C1104.52 291.408 1103.54 291.528 1102.5 291.528C1101.28 291.528 1100.18 291.424 1099.18 291.216C1098.21 291.008 1097.37 290.688 1096.66 290.256C1095.96 289.824 1095.42 289.272 1095.03 288.6C1094.65 287.912 1094.46 287.088 1094.46 286.128H1097C1097 286.624 1097.1 287.072 1097.29 287.472C1097.48 287.872 1097.78 288.216 1098.2 288.504C1098.63 288.792 1099.18 289.016 1099.86 289.176C1100.54 289.336 1101.38 289.416 1102.35 289.416C1103.34 289.416 1104.18 289.328 1104.85 289.152C1105.52 288.96 1106.06 288.688 1106.48 288.336C1106.9 287.968 1107.19 287.52 1107.37 286.992C1107.56 286.448 1107.66 285.816 1107.66 285.096C1107.66 284.456 1107.52 283.92 1107.25 283.488C1106.98 283.04 1106.6 282.68 1106.12 282.408C1105.66 282.136 1105.1 281.944 1104.44 281.832C1103.8 281.704 1103.1 281.64 1102.35 281.64C1101.2 281.64 1100.3 281.752 1099.66 281.976C1099.04 282.2 1098.57 282.448 1098.25 282.72C1097.88 283.04 1097.66 283.4 1097.58 283.8L1097.55 283.752V283.8H1095.2V274.2H1108.86V276.336H1097.55V280.872C1097.97 280.552 1098.58 280.248 1099.38 279.96C1100.18 279.672 1101.26 279.528 1102.62 279.528C1103.64 279.528 1104.61 279.624 1105.52 279.816C1106.43 279.992 1107.22 280.304 1107.9 280.752C1108.58 281.184 1109.13 281.768 1109.53 282.504C1109.93 283.24 1110.13 284.168 1110.13 285.288ZM1131.92 274.2L1124.46 291H1122.2L1129.64 274.2H1131.92ZM1125.2 279.504C1125.2 281.072 1124.76 282.32 1123.88 283.248C1123 284.16 1121.73 284.616 1120.07 284.616C1118.4 284.616 1117.11 284.16 1116.2 283.248C1115.31 282.32 1114.86 281.072 1114.86 279.504C1114.86 277.952 1115.31 276.76 1116.2 275.928C1117.11 275.096 1118.4 274.68 1120.07 274.68C1121.73 274.68 1123 275.096 1123.88 275.928C1124.76 276.76 1125.2 277.952 1125.2 279.504ZM1116.9 279.72C1116.91 280.68 1117.15 281.44 1117.62 282C1118.08 282.544 1118.87 282.816 1119.97 282.816H1120.07C1121.17 282.816 1121.95 282.552 1122.42 282.024C1122.9 281.48 1123.14 280.704 1123.14 279.696C1123.15 278.704 1122.92 277.92 1122.44 277.344C1121.98 276.768 1121.19 276.48 1120.09 276.48H1119.99C1118.89 276.48 1118.09 276.768 1117.59 277.344C1117.11 277.904 1116.88 278.696 1116.9 279.72ZM1139.39 285.264C1139.39 286.832 1138.95 288.08 1138.07 289.008C1137.19 289.92 1135.91 290.376 1134.25 290.376C1132.59 290.376 1131.31 289.92 1130.41 289.008C1129.51 288.08 1129.07 286.832 1129.07 285.264C1129.07 283.712 1129.51 282.52 1130.41 281.688C1131.31 280.856 1132.59 280.44 1134.25 280.44C1135.91 280.44 1137.19 280.856 1138.07 281.688C1138.95 282.52 1139.39 283.712 1139.39 285.264ZM1131.11 285.48C1131.12 286.44 1131.35 287.2 1131.8 287.76C1132.27 288.304 1133.05 288.576 1134.15 288.576H1134.27C1135.38 288.576 1136.16 288.312 1136.63 287.784C1137.09 287.24 1137.33 286.464 1137.35 285.456C1137.35 284.464 1137.11 283.68 1136.65 283.104C1136.19 282.528 1135.4 282.24 1134.3 282.24H1134.2C1133.08 282.24 1132.28 282.528 1131.8 283.104C1131.32 283.664 1131.09 284.456 1131.11 285.48Z" fill="#8D96A5"/>
<path d="M967 305C967 300.582 970.582 297 975 297H1029C1033.42 297 1037 300.582 1037 305V331H967V305Z" fill="#FFF338"/>
<path d="M984.341 271.888V274H971.213V271.888H977.429V258.856L973.709 265.84H971.237L975.917 257.2H979.781V271.888H984.341ZM1005.16 265.336C1005.19 266.776 1005.04 268.064 1004.7 269.2C1004.36 270.336 1003.85 271.304 1003.16 272.104C1002.49 272.888 1001.63 273.496 1000.57 273.928C999.533 274.344 998.301 274.552 996.877 274.552C994.061 274.552 991.973 273.824 990.613 272.368C989.253 270.912 988.533 268.744 988.453 265.864C988.453 264.408 988.605 263.112 988.909 261.976C989.213 260.84 989.701 259.88 990.373 259.096C991.045 258.296 991.909 257.688 992.965 257.272C994.037 256.856 995.341 256.648 996.877 256.648C999.725 256.648 1001.8 257.392 1003.12 258.88C1004.43 260.352 1005.11 262.504 1005.16 265.336ZM990.925 265.6C990.925 267.952 991.405 269.696 992.365 270.832C993.341 271.952 994.797 272.512 996.733 272.512H997.045C998.981 272.512 1000.4 271.936 1001.29 270.784C1002.2 269.616 1002.66 267.888 1002.66 265.6C1002.66 263.312 1002.2 261.592 1001.29 260.44C1000.4 259.272 998.981 258.688 997.045 258.688H996.733C994.781 258.688 993.325 259.248 992.365 260.368C991.405 261.488 990.925 263.232 990.925 265.6ZM1026.81 257.2L1019.35 274H1017.09L1024.53 257.2H1026.81ZM1020.09 262.504C1020.09 264.072 1019.65 265.32 1018.77 266.248C1017.89 267.16 1016.62 267.616 1014.96 267.616C1013.29 267.616 1012 267.16 1011.09 266.248C1010.2 265.32 1009.75 264.072 1009.75 262.504C1009.75 260.952 1010.2 259.76 1011.09 258.928C1012 258.096 1013.29 257.68 1014.96 257.68C1016.62 257.68 1017.89 258.096 1018.77 258.928C1019.65 259.76 1020.09 260.952 1020.09 262.504ZM1011.79 262.72C1011.8 263.68 1012.04 264.44 1012.51 265C1012.97 265.544 1013.76 265.816 1014.86 265.816H1014.96C1016.06 265.816 1016.84 265.552 1017.31 265.024C1017.79 264.48 1018.03 263.704 1018.03 262.696C1018.04 261.704 1017.81 260.92 1017.33 260.344C1016.87 259.768 1016.08 259.48 1014.98 259.48H1014.88C1013.78 259.48 1012.98 259.768 1012.48 260.344C1012 260.904 1011.77 261.696 1011.79 262.72ZM1034.28 268.264C1034.28 269.832 1033.84 271.08 1032.96 272.008C1032.08 272.92 1030.8 273.376 1029.14 273.376C1027.48 273.376 1026.2 272.92 1025.3 272.008C1024.4 271.08 1023.96 269.832 1023.96 268.264C1023.96 266.712 1024.4 265.52 1025.3 264.688C1026.2 263.856 1027.48 263.44 1029.14 263.44C1030.8 263.44 1032.08 263.856 1032.96 264.688C1033.84 265.52 1034.28 266.712 1034.28 268.264ZM1026 268.48C1026.01 269.44 1026.24 270.2 1026.69 270.76C1027.16 271.304 1027.94 271.576 1029.04 271.576H1029.16C1030.27 271.576 1031.05 271.312 1031.52 270.784C1031.98 270.24 1032.22 269.464 1032.24 268.456C1032.24 267.464 1032 266.68 1031.54 266.104C1031.08 265.528 1030.29 265.24 1029.19 265.24H1029.09C1027.97 265.24 1027.17 265.528 1026.69 266.104C1026.21 266.664 1025.98 267.456 1026 268.48Z" fill="#8D96A5"/>
<path d="M1197 331C1197 327.134 1200.13 324 1204 324H1260C1263.87 324 1267 327.134 1267 331V331H1197V331Z" fill="#FFF338"/>
<path d="M1225.14 298.888V301H1210.07V297.496C1211.84 296.696 1213.48 295.992 1214.96 295.384C1216.47 294.776 1217.77 294.184 1218.88 293.608C1219.98 293.016 1220.84 292.4 1221.47 291.76C1222.11 291.104 1222.45 290.336 1222.5 289.456C1222.52 289.248 1222.48 288.944 1222.4 288.544C1222.32 288.144 1222.12 287.744 1221.8 287.344C1221.5 286.944 1221.03 286.592 1220.39 286.288C1219.75 285.968 1218.88 285.8 1217.77 285.784C1215.95 285.752 1214.61 286.136 1213.76 286.936C1212.92 287.736 1212.5 288.888 1212.52 290.392H1209.97C1209.97 289.576 1210.07 288.776 1210.26 287.992C1210.45 287.192 1210.83 286.48 1211.39 285.856C1211.95 285.232 1212.73 284.728 1213.74 284.344C1214.76 283.944 1216.11 283.744 1217.77 283.744C1218.89 283.744 1219.84 283.848 1220.63 284.056C1221.43 284.248 1222.09 284.512 1222.62 284.848C1223.16 285.168 1223.59 285.536 1223.89 285.952C1224.21 286.368 1224.45 286.784 1224.61 287.2C1224.77 287.616 1224.88 288.016 1224.92 288.4C1224.97 288.768 1225 289.08 1225 289.336C1225 290.632 1224.65 291.728 1223.96 292.624C1223.28 293.504 1222.34 294.288 1221.16 294.976C1219.99 295.664 1218.64 296.312 1217.1 296.92C1215.56 297.512 1213.94 298.168 1212.23 298.888H1225.14ZM1247.09 284.2L1239.63 301H1237.37L1244.81 284.2H1247.09ZM1240.37 289.504C1240.37 291.072 1239.93 292.32 1239.05 293.248C1238.17 294.16 1236.9 294.616 1235.24 294.616C1233.57 294.616 1232.29 294.16 1231.37 293.248C1230.48 292.32 1230.03 291.072 1230.03 289.504C1230.03 287.952 1230.48 286.76 1231.37 285.928C1232.29 285.096 1233.57 284.68 1235.24 284.68C1236.9 284.68 1238.17 285.096 1239.05 285.928C1239.93 286.76 1240.37 287.952 1240.37 289.504ZM1232.07 289.72C1232.09 290.68 1232.33 291.44 1232.79 292C1233.25 292.544 1234.04 292.816 1235.14 292.816H1235.24C1236.34 292.816 1237.13 292.552 1237.59 292.024C1238.07 291.48 1238.31 290.704 1238.31 289.696C1238.33 288.704 1238.09 287.92 1237.61 287.344C1237.15 286.768 1236.37 286.48 1235.26 286.48H1235.17C1234.06 286.48 1233.26 286.768 1232.77 287.344C1232.29 287.904 1232.05 288.696 1232.07 289.72ZM1254.56 295.264C1254.56 296.832 1254.12 298.08 1253.24 299.008C1252.36 299.92 1251.09 300.376 1249.42 300.376C1247.76 300.376 1246.48 299.92 1245.58 299.008C1244.69 298.08 1244.24 296.832 1244.24 295.264C1244.24 293.712 1244.69 292.52 1245.58 291.688C1246.48 290.856 1247.76 290.44 1249.42 290.44C1251.09 290.44 1252.36 290.856 1253.24 291.688C1254.12 292.52 1254.56 293.712 1254.56 295.264ZM1246.28 295.48C1246.29 296.44 1246.53 297.2 1246.97 297.76C1247.44 298.304 1248.22 298.576 1249.33 298.576H1249.45C1250.55 298.576 1251.33 298.312 1251.8 297.784C1252.26 297.24 1252.5 296.464 1252.52 295.456C1252.52 294.464 1252.29 293.68 1251.82 293.104C1251.36 292.528 1250.57 292.24 1249.47 292.24H1249.37C1248.25 292.24 1247.45 292.528 1246.97 293.104C1246.49 293.664 1246.26 294.456 1246.28 295.48Z" fill="#8D96A5"/>
<path d="M543.53 17L542.27 13.976H536.222L534.98 17H533.306L538.454 4.4H539.93L545.24 17H543.53ZM539.228 6.578L536.816 12.536H541.676L539.228 6.578ZM554.81 7.28H555.836V15.632C555.836 17.204 555.41 18.44 554.558 19.34C553.706 20.24 552.542 20.69 551.066 20.69C549.878 20.69 548.876 20.396 548.06 19.808C547.256 19.22 546.722 18.41 546.458 17.378H547.988C548.204 17.978 548.588 18.446 549.14 18.782C549.704 19.118 550.346 19.286 551.066 19.286C552.05 19.286 552.836 18.974 553.424 18.35C554.024 17.738 554.324 16.898 554.324 15.83V15.236C553.4 16.208 552.224 16.694 550.796 16.694C549.44 16.694 548.3 16.232 547.376 15.308C546.464 14.384 546.008 13.244 546.008 11.888C546.008 11 546.218 10.19 546.638 9.458C547.058 8.714 547.634 8.132 548.366 7.712C549.098 7.28 549.908 7.064 550.796 7.064C551.552 7.064 552.254 7.22 552.902 7.532C553.562 7.832 554.114 8.252 554.558 8.792L554.81 7.28ZM550.958 15.218C551.594 15.218 552.17 15.074 552.686 14.786C553.202 14.498 553.604 14.102 553.892 13.598C554.18 13.094 554.324 12.524 554.324 11.888C554.324 10.916 554.006 10.118 553.37 9.494C552.734 8.858 551.93 8.54 550.958 8.54C549.986 8.54 549.176 8.858 548.528 9.494C547.892 10.13 547.574 10.928 547.574 11.888C547.574 12.836 547.892 13.628 548.528 14.264C549.176 14.9 549.986 15.218 550.958 15.218ZM568.001 12.176C568.001 12.308 567.989 12.494 567.965 12.734H559.667C559.787 13.634 560.159 14.36 560.783 14.912C561.407 15.452 562.175 15.722 563.087 15.722C563.759 15.722 564.353 15.578 564.869 15.29C565.397 14.99 565.817 14.57 566.129 14.03H567.731C567.323 15.038 566.711 15.824 565.895 16.388C565.079 16.94 564.143 17.216 563.087 17.216C561.683 17.216 560.507 16.73 559.559 15.758C558.611 14.786 558.137 13.58 558.137 12.14C558.137 10.688 558.611 9.482 559.559 8.522C560.507 7.55 561.683 7.064 563.087 7.064C564.539 7.064 565.721 7.556 566.633 8.54C567.545 9.524 568.001 10.736 568.001 12.176ZM563.087 8.522C562.511 8.522 561.983 8.636 561.503 8.864C561.035 9.092 560.645 9.422 560.333 9.854C560.021 10.274 559.811 10.76 559.703 11.312H566.453C566.345 10.748 566.135 10.256 565.823 9.836C565.511 9.404 565.121 9.08 564.653 8.864C564.185 8.636 563.663 8.522 563.087 8.522ZM582.825 3.806H584.355V17H583.185L582.969 15.614C582.009 16.682 580.767 17.216 579.243 17.216C577.779 17.216 576.573 16.736 575.625 15.776C574.689 14.804 574.221 13.592 574.221 12.14C574.221 10.676 574.689 9.464 575.625 8.504C576.573 7.544 577.779 7.064 579.243 7.064C580.683 7.064 581.877 7.544 582.825 8.504V3.806ZM576.795 14.714C577.467 15.398 578.313 15.74 579.333 15.74C580.365 15.74 581.223 15.398 581.907 14.714C582.591 14.018 582.933 13.16 582.933 12.14C582.933 11.108 582.591 10.25 581.907 9.566C581.235 8.882 580.383 8.54 579.351 8.54C578.847 8.54 578.373 8.636 577.929 8.828C577.485 9.008 577.107 9.254 576.795 9.566C576.483 9.878 576.237 10.262 576.057 10.718C575.877 11.162 575.787 11.636 575.787 12.14C575.787 13.172 576.123 14.03 576.795 14.714ZM587.386 5.588V3.842H589.042V5.588H587.386ZM587.458 17V7.28H588.988V17H587.458ZM595.142 17.216C594.374 17.216 593.702 17.09 593.126 16.838C592.55 16.574 592.1 16.202 591.776 15.722C591.452 15.23 591.278 14.66 591.254 14.012H592.748C592.784 14.576 593.024 15.014 593.468 15.326C593.912 15.638 594.482 15.794 595.178 15.794C595.862 15.794 596.414 15.662 596.834 15.398C597.254 15.122 597.464 14.75 597.464 14.282C597.464 14.102 597.434 13.94 597.374 13.796C597.326 13.652 597.236 13.526 597.104 13.418C596.972 13.31 596.84 13.22 596.708 13.148C596.576 13.076 596.396 13.01 596.168 12.95C595.952 12.89 595.76 12.848 595.592 12.824C595.436 12.788 595.22 12.746 594.944 12.698C594.632 12.65 594.392 12.608 594.224 12.572C594.056 12.536 593.828 12.482 593.54 12.41C593.252 12.326 593.024 12.242 592.856 12.158C592.688 12.074 592.502 11.96 592.298 11.816C592.094 11.672 591.938 11.516 591.83 11.348C591.722 11.18 591.626 10.97 591.542 10.718C591.47 10.466 591.434 10.184 591.434 9.872C591.434 9.464 591.518 9.086 591.686 8.738C591.866 8.39 592.112 8.096 592.424 7.856C592.748 7.604 593.138 7.412 593.594 7.28C594.05 7.136 594.548 7.064 595.088 7.064C596.192 7.064 597.074 7.334 597.734 7.874C598.394 8.414 598.736 9.146 598.76 10.07H597.32C597.296 9.722 597.188 9.428 596.996 9.188C596.816 8.936 596.558 8.75 596.222 8.63C595.898 8.498 595.514 8.432 595.07 8.432C594.626 8.432 594.242 8.492 593.918 8.612C593.594 8.72 593.342 8.882 593.162 9.098C592.994 9.314 592.91 9.56 592.91 9.836C592.91 10.028 592.958 10.202 593.054 10.358C593.15 10.502 593.258 10.622 593.378 10.718C593.498 10.802 593.684 10.886 593.936 10.97C594.188 11.042 594.398 11.096 594.566 11.132C594.746 11.156 594.998 11.198 595.322 11.258C595.658 11.306 595.904 11.348 596.06 11.384C596.228 11.408 596.462 11.462 596.762 11.546C597.074 11.618 597.314 11.696 597.482 11.78C597.65 11.864 597.842 11.984 598.058 12.14C598.286 12.284 598.454 12.452 598.562 12.644C598.67 12.824 598.766 13.052 598.85 13.328C598.934 13.592 598.976 13.886 598.976 14.21C598.976 15.122 598.622 15.854 597.914 16.406C597.218 16.946 596.294 17.216 595.142 17.216ZM605.218 15.578H606.28V17H605.02C603.976 17 603.154 16.7 602.554 16.1C601.954 15.488 601.654 14.654 601.654 13.598V8.666H599.944V8.396L602.95 5.228H603.184V7.28H606.226V8.666H603.184V13.544C603.184 13.988 603.262 14.36 603.418 14.66C603.574 14.96 603.802 15.188 604.102 15.344C604.414 15.5 604.786 15.578 605.218 15.578ZM612.769 7.226H613.633V8.684H612.643C611.767 8.684 611.083 8.954 610.591 9.494C610.111 10.022 609.871 10.766 609.871 11.726V17H608.341V7.28H609.421L609.673 8.756C610.381 7.736 611.413 7.226 612.769 7.226ZM615.212 5.588V3.842H616.868V5.588H615.212ZM615.284 17V7.28H616.814V17H615.284ZM625.02 7.064C626.472 7.064 627.666 7.544 628.602 8.504C629.55 9.464 630.024 10.676 630.024 12.14C630.024 13.592 629.55 14.804 628.602 15.776C627.666 16.736 626.472 17.216 625.02 17.216C623.496 17.216 622.248 16.682 621.276 15.614L621.078 17H619.89V3.806H621.42V8.504C622.368 7.544 623.568 7.064 625.02 7.064ZM624.894 15.74C625.578 15.74 626.19 15.584 626.73 15.272C627.27 14.96 627.69 14.534 627.99 13.994C628.302 13.442 628.458 12.824 628.458 12.14C628.458 11.108 628.122 10.25 627.45 9.566C626.778 8.882 625.926 8.54 624.894 8.54C623.874 8.54 623.022 8.888 622.338 9.584C621.654 10.268 621.312 11.12 621.312 12.14C621.312 12.536 621.366 12.92 621.474 13.292C621.594 13.664 621.762 14 621.978 14.3C622.194 14.588 622.446 14.84 622.734 15.056C623.034 15.272 623.364 15.44 623.724 15.56C624.096 15.68 624.486 15.74 624.894 15.74ZM636.493 17.216C635.185 17.216 634.135 16.826 633.343 16.046C632.563 15.254 632.173 14.204 632.173 12.896V7.28H633.703V12.644C633.703 13.28 633.817 13.832 634.045 14.3C634.273 14.756 634.597 15.11 635.017 15.362C635.437 15.614 635.929 15.74 636.493 15.74C637.357 15.74 638.035 15.464 638.527 14.912C639.019 14.36 639.265 13.604 639.265 12.644V7.28H640.795V12.896C640.795 14.204 640.405 15.254 639.625 16.046C638.845 16.826 637.801 17.216 636.493 17.216ZM647.74 15.578H648.802V17H647.542C646.498 17 645.676 16.7 645.076 16.1C644.476 15.488 644.176 14.654 644.176 13.598V8.666H642.466V8.396L645.472 5.228H645.706V7.28H648.748V8.666H645.706V13.544C645.706 13.988 645.784 14.36 645.94 14.66C646.096 14.96 646.324 15.188 646.624 15.344C646.936 15.5 647.308 15.578 647.74 15.578ZM650.79 5.588V3.842H652.446V5.588H650.79ZM650.862 17V7.28H652.392V17H650.862ZM659.842 17.216C658.882 17.216 658.006 17 657.214 16.568C656.422 16.124 655.804 15.518 655.36 14.75C654.916 13.97 654.694 13.1 654.694 12.14C654.694 10.676 655.18 9.464 656.152 8.504C657.136 7.544 658.366 7.064 659.842 7.064C660.814 7.064 661.69 7.286 662.47 7.73C663.262 8.162 663.88 8.768 664.324 9.548C664.78 10.316 665.008 11.18 665.008 12.14C665.008 13.592 664.516 14.804 663.532 15.776C662.548 16.736 661.318 17.216 659.842 17.216ZM657.268 14.732C657.952 15.404 658.81 15.74 659.842 15.74C660.886 15.74 661.744 15.404 662.416 14.732C663.1 14.048 663.442 13.184 663.442 12.14C663.442 11.096 663.1 10.238 662.416 9.566C661.744 8.882 660.886 8.54 659.842 8.54C658.81 8.54 657.952 8.882 657.268 9.566C656.596 10.238 656.26 11.096 656.26 12.14C656.26 13.184 656.596 14.048 657.268 14.732ZM672.193 7.064C673.333 7.064 674.239 7.448 674.911 8.216C675.595 8.984 675.937 9.974 675.937 11.186V17H674.407V11.546C674.407 10.886 674.305 10.328 674.101 9.872C673.909 9.416 673.615 9.068 673.219 8.828C672.835 8.588 672.361 8.468 671.797 8.468C670.969 8.468 670.273 8.78 669.709 9.404C669.145 10.016 668.863 10.778 668.863 11.69V17H667.333V7.28H668.413L668.719 8.81C668.959 8.438 669.253 8.126 669.601 7.874C669.949 7.61 670.345 7.412 670.789 7.28C671.233 7.136 671.701 7.064 672.193 7.064Z" fill="white"/>
<path d="M6.804 10.754H13.554C13.518 12.65 12.912 14.204 11.736 15.416C10.572 16.616 9.078 17.216 7.254 17.216C5.406 17.216 3.876 16.604 2.664 15.38C1.464 14.144 0.864 12.584 0.864 10.7C0.864 8.828 1.464 7.28 2.664 6.056C3.876 4.82 5.394 4.202 7.218 4.202C8.226 4.202 9.162 4.4 10.026 4.796C10.902 5.18 11.628 5.72 12.204 6.416C12.792 7.112 13.176 7.904 13.356 8.792H11.736C11.556 8.192 11.25 7.664 10.818 7.208C10.386 6.74 9.858 6.38 9.234 6.128C8.622 5.876 7.962 5.75 7.254 5.75C6.342 5.75 5.52 5.96 4.788 6.38C4.068 6.8 3.504 7.388 3.096 8.144C2.688 8.9 2.484 9.752 2.484 10.7C2.484 12.164 2.922 13.358 3.798 14.282C4.686 15.206 5.838 15.668 7.254 15.668C8.022 15.668 8.724 15.524 9.36 15.236C10.008 14.948 10.542 14.546 10.962 14.03C11.394 13.514 11.688 12.92 11.844 12.248H6.804V10.754ZM24.9993 12.176C24.9993 12.308 24.9873 12.494 24.9633 12.734H16.6653C16.7853 13.634 17.1573 14.36 17.7813 14.912C18.4053 15.452 19.1733 15.722 20.0853 15.722C20.7573 15.722 21.3513 15.578 21.8673 15.29C22.3953 14.99 22.8153 14.57 23.1273 14.03H24.7293C24.3213 15.038 23.7093 15.824 22.8933 16.388C22.0773 16.94 21.1413 17.216 20.0853 17.216C18.6813 17.216 17.5053 16.73 16.5573 15.758C15.6093 14.786 15.1353 13.58 15.1353 12.14C15.1353 10.688 15.6093 9.482 16.5573 8.522C17.5053 7.55 18.6813 7.064 20.0853 7.064C21.5373 7.064 22.7193 7.556 23.6313 8.54C24.5433 9.524 24.9993 10.736 24.9993 12.176ZM20.0853 8.522C19.5093 8.522 18.9813 8.636 18.5013 8.864C18.0333 9.092 17.6433 9.422 17.3313 9.854C17.0193 10.274 16.8093 10.76 16.7013 11.312H23.4513C23.3433 10.748 23.1333 10.256 22.8213 9.836C22.5093 9.404 22.1193 9.08 21.6513 8.864C21.1833 8.636 20.6613 8.522 20.0853 8.522ZM32.1424 7.064C33.2824 7.064 34.1884 7.448 34.8604 8.216C35.5444 8.984 35.8864 9.974 35.8864 11.186V17H34.3564V11.546C34.3564 10.886 34.2544 10.328 34.0504 9.872C33.8584 9.416 33.5644 9.068 33.1684 8.828C32.7844 8.588 32.3104 8.468 31.7464 8.468C30.9184 8.468 30.2224 8.78 29.6584 9.404C29.0944 10.016 28.8124 10.778 28.8124 11.69V17H27.2824V7.28H28.3624L28.6684 8.81C28.9084 8.438 29.2024 8.126 29.5504 7.874C29.8984 7.61 30.2944 7.412 30.7384 7.28C31.1824 7.136 31.6504 7.064 32.1424 7.064ZM46.6612 3.806H48.1912V17H47.0212L46.8052 15.614C45.8452 16.682 44.6032 17.216 43.0792 17.216C41.6152 17.216 40.4092 16.736 39.4612 15.776C38.5252 14.804 38.0572 13.592 38.0572 12.14C38.0572 10.676 38.5252 9.464 39.4612 8.504C40.4092 7.544 41.6152 7.064 43.0792 7.064C44.5192 7.064 45.7132 7.544 46.6612 8.504V3.806ZM40.6312 14.714C41.3032 15.398 42.1492 15.74 43.1692 15.74C44.2012 15.74 45.0592 15.398 45.7432 14.714C46.4272 14.018 46.7692 13.16 46.7692 12.14C46.7692 11.108 46.4272 10.25 45.7432 9.566C45.0712 8.882 44.2192 8.54 43.1872 8.54C42.6832 8.54 42.2092 8.636 41.7652 8.828C41.3212 9.008 40.9432 9.254 40.6312 9.566C40.3192 9.878 40.0732 10.262 39.8932 10.718C39.7132 11.162 39.6232 11.636 39.6232 12.14C39.6232 13.172 39.9592 14.03 40.6312 14.714ZM60.3841 12.176C60.3841 12.308 60.3721 12.494 60.3481 12.734H52.0501C52.1701 13.634 52.5421 14.36 53.1661 14.912C53.7901 15.452 54.5581 15.722 55.4701 15.722C56.1421 15.722 56.7361 15.578 57.2521 15.29C57.7801 14.99 58.2001 14.57 58.5121 14.03H60.1141C59.7061 15.038 59.0941 15.824 58.2781 16.388C57.4621 16.94 56.5261 17.216 55.4701 17.216C54.0661 17.216 52.8901 16.73 51.9421 15.758C50.9941 14.786 50.5201 13.58 50.5201 12.14C50.5201 10.688 50.9941 9.482 51.9421 8.522C52.8901 7.55 54.0661 7.064 55.4701 7.064C56.9221 7.064 58.1041 7.556 59.0161 8.54C59.9281 9.524 60.3841 10.736 60.3841 12.176ZM55.4701 8.522C54.8941 8.522 54.3661 8.636 53.8861 8.864C53.4181 9.092 53.0281 9.422 52.7161 9.854C52.4041 10.274 52.1941 10.76 52.0861 11.312H58.8361C58.7281 10.748 58.5181 10.256 58.2061 9.836C57.8941 9.404 57.5041 9.08 57.0361 8.864C56.5681 8.636 56.0461 8.522 55.4701 8.522ZM67.0951 7.226H67.9591V8.684H66.9691C66.0931 8.684 65.4091 8.954 64.9171 9.494C64.4371 10.022 64.1971 10.766 64.1971 11.726V17H62.6671V7.28H63.7471L63.9991 8.756C64.7071 7.736 65.7391 7.226 67.0951 7.226ZM81.6417 3.806H83.1717V17H82.0017L81.7857 15.614C80.8257 16.682 79.5837 17.216 78.0597 17.216C76.5957 17.216 75.3897 16.736 74.4417 15.776C73.5057 14.804 73.0377 13.592 73.0377 12.14C73.0377 10.676 73.5057 9.464 74.4417 8.504C75.3897 7.544 76.5957 7.064 78.0597 7.064C79.4997 7.064 80.6937 7.544 81.6417 8.504V3.806ZM75.6117 14.714C76.2837 15.398 77.1297 15.74 78.1497 15.74C79.1817 15.74 80.0397 15.398 80.7237 14.714C81.4077 14.018 81.7497 13.16 81.7497 12.14C81.7497 11.108 81.4077 10.25 80.7237 9.566C80.0517 8.882 79.1997 8.54 78.1677 8.54C77.6637 8.54 77.1897 8.636 76.7457 8.828C76.3017 9.008 75.9237 9.254 75.6117 9.566C75.2997 9.878 75.0537 10.262 74.8737 10.718C74.6937 11.162 74.6037 11.636 74.6037 12.14C74.6037 13.172 74.9397 14.03 75.6117 14.714ZM86.2026 5.588V3.842H87.8586V5.588H86.2026ZM86.2746 17V7.28H87.8046V17H86.2746ZM93.958 17.216C93.19 17.216 92.518 17.09 91.942 16.838C91.366 16.574 90.916 16.202 90.592 15.722C90.268 15.23 90.094 14.66 90.07 14.012H91.564C91.6 14.576 91.84 15.014 92.284 15.326C92.728 15.638 93.298 15.794 93.994 15.794C94.678 15.794 95.23 15.662 95.65 15.398C96.07 15.122 96.28 14.75 96.28 14.282C96.28 14.102 96.25 13.94 96.19 13.796C96.142 13.652 96.052 13.526 95.92 13.418C95.788 13.31 95.656 13.22 95.524 13.148C95.392 13.076 95.212 13.01 94.984 12.95C94.768 12.89 94.576 12.848 94.408 12.824C94.252 12.788 94.036 12.746 93.76 12.698C93.448 12.65 93.208 12.608 93.04 12.572C92.872 12.536 92.644 12.482 92.356 12.41C92.068 12.326 91.84 12.242 91.672 12.158C91.504 12.074 91.318 11.96 91.114 11.816C90.91 11.672 90.754 11.516 90.646 11.348C90.538 11.18 90.442 10.97 90.358 10.718C90.286 10.466 90.25 10.184 90.25 9.872C90.25 9.464 90.334 9.086 90.502 8.738C90.682 8.39 90.928 8.096 91.24 7.856C91.564 7.604 91.954 7.412 92.41 7.28C92.866 7.136 93.364 7.064 93.904 7.064C95.008 7.064 95.89 7.334 96.55 7.874C97.21 8.414 97.552 9.146 97.576 10.07H96.136C96.112 9.722 96.004 9.428 95.812 9.188C95.632 8.936 95.374 8.75 95.038 8.63C94.714 8.498 94.33 8.432 93.886 8.432C93.442 8.432 93.058 8.492 92.734 8.612C92.41 8.72 92.158 8.882 91.978 9.098C91.81 9.314 91.726 9.56 91.726 9.836C91.726 10.028 91.774 10.202 91.87 10.358C91.966 10.502 92.074 10.622 92.194 10.718C92.314 10.802 92.5 10.886 92.752 10.97C93.004 11.042 93.214 11.096 93.382 11.132C93.562 11.156 93.814 11.198 94.138 11.258C94.474 11.306 94.72 11.348 94.876 11.384C95.044 11.408 95.278 11.462 95.578 11.546C95.89 11.618 96.13 11.696 96.298 11.78C96.466 11.864 96.658 11.984 96.874 12.14C97.102 12.284 97.27 12.452 97.378 12.644C97.486 12.824 97.582 13.052 97.666 13.328C97.75 13.592 97.792 13.886 97.792 14.21C97.792 15.122 97.438 15.854 96.73 16.406C96.034 16.946 95.11 17.216 93.958 17.216ZM104.035 15.578H105.097V17H103.837C102.793 17 101.971 16.7 101.371 16.1C100.771 15.488 100.471 14.654 100.471 13.598V8.666H98.7607V8.396L101.767 5.228H102.001V7.28H105.043V8.666H102.001V13.544C102.001 13.988 102.079 14.36 102.235 14.66C102.391 14.96 102.619 15.188 102.919 15.344C103.231 15.5 103.603 15.578 104.035 15.578ZM111.585 7.226H112.449V8.684H111.459C110.583 8.684 109.899 8.954 109.407 9.494C108.927 10.022 108.687 10.766 108.687 11.726V17H107.157V7.28H108.237L108.489 8.756C109.197 7.736 110.229 7.226 111.585 7.226ZM114.029 5.588V3.842H115.685V5.588H114.029ZM114.101 17V7.28H115.631V17H114.101ZM123.836 7.064C125.288 7.064 126.482 7.544 127.418 8.504C128.366 9.464 128.84 10.676 128.84 12.14C128.84 13.592 128.366 14.804 127.418 15.776C126.482 16.736 125.288 17.216 123.836 17.216C122.312 17.216 121.064 16.682 120.092 15.614L119.894 17H118.706V3.806H120.236V8.504C121.184 7.544 122.384 7.064 123.836 7.064ZM123.71 15.74C124.394 15.74 125.006 15.584 125.546 15.272C126.086 14.96 126.506 14.534 126.806 13.994C127.118 13.442 127.274 12.824 127.274 12.14C127.274 11.108 126.938 10.25 126.266 9.566C125.594 8.882 124.742 8.54 123.71 8.54C122.69 8.54 121.838 8.888 121.154 9.584C120.47 10.268 120.128 11.12 120.128 12.14C120.128 12.536 120.182 12.92 120.29 13.292C120.41 13.664 120.578 14 120.794 14.3C121.01 14.588 121.262 14.84 121.55 15.056C121.85 15.272 122.18 15.44 122.54 15.56C122.912 15.68 123.302 15.74 123.71 15.74ZM135.309 17.216C134.001 17.216 132.951 16.826 132.159 16.046C131.379 15.254 130.989 14.204 130.989 12.896V7.28H132.519V12.644C132.519 13.28 132.633 13.832 132.861 14.3C133.089 14.756 133.413 15.11 133.833 15.362C134.253 15.614 134.745 15.74 135.309 15.74C136.173 15.74 136.851 15.464 137.343 14.912C137.835 14.36 138.081 13.604 138.081 12.644V7.28H139.611V12.896C139.611 14.204 139.221 15.254 138.441 16.046C137.661 16.826 136.617 17.216 135.309 17.216ZM146.556 15.578H147.618V17H146.358C145.314 17 144.492 16.7 143.892 16.1C143.292 15.488 142.992 14.654 142.992 13.598V8.666H141.282V8.396L144.288 5.228H144.522V7.28H147.564V8.666H144.522V13.544C144.522 13.988 144.6 14.36 144.756 14.66C144.912 14.96 145.14 15.188 145.44 15.344C145.752 15.5 146.124 15.578 146.556 15.578ZM149.607 5.588V3.842H151.263V5.588H149.607ZM149.679 17V7.28H151.209V17H149.679ZM158.658 17.216C157.698 17.216 156.822 17 156.03 16.568C155.238 16.124 154.62 15.518 154.176 14.75C153.732 13.97 153.51 13.1 153.51 12.14C153.51 10.676 153.996 9.464 154.968 8.504C155.952 7.544 157.182 7.064 158.658 7.064C159.63 7.064 160.506 7.286 161.286 7.73C162.078 8.162 162.696 8.768 163.14 9.548C163.596 10.316 163.824 11.18 163.824 12.14C163.824 13.592 163.332 14.804 162.348 15.776C161.364 16.736 160.134 17.216 158.658 17.216ZM156.084 14.732C156.768 15.404 157.626 15.74 158.658 15.74C159.702 15.74 160.56 15.404 161.232 14.732C161.916 14.048 162.258 13.184 162.258 12.14C162.258 11.096 161.916 10.238 161.232 9.566C160.56 8.882 159.702 8.54 158.658 8.54C157.626 8.54 156.768 8.882 156.084 9.566C155.412 10.238 155.076 11.096 155.076 12.14C155.076 13.184 155.412 14.048 156.084 14.732ZM171.01 7.064C172.15 7.064 173.056 7.448 173.728 8.216C174.412 8.984 174.754 9.974 174.754 11.186V17H173.224V11.546C173.224 10.886 173.122 10.328 172.918 9.872C172.726 9.416 172.432 9.068 172.036 8.828C171.652 8.588 171.178 8.468 170.614 8.468C169.786 8.468 169.09 8.78 168.526 9.404C167.962 10.016 167.68 10.778 167.68 11.69V17H166.15V7.28H167.23L167.536 8.81C167.776 8.438 168.07 8.126 168.418 7.874C168.766 7.61 169.162 7.412 169.606 7.28C170.05 7.136 170.518 7.064 171.01 7.064Z" fill="white"/>
<circle cx="163" cy="190" r="107" stroke="#FFF338" stroke-width="30"/>
<path d="M163 83C222.094 83 270 130.906 270 190C270 249.094 222.094 297 163 297C131.633 297 103.418 283.503 83.8472 262" stroke="#FB6A01" stroke-width="30"/>
<path opacity="0.56" d="M192.802 349.894H187.294V354.052H192.334V355.528H187.294V361H185.728V348.4H192.802V349.894ZM203.954 356.176C203.954 356.308 203.942 356.494 203.918 356.734H195.62C195.74 357.634 196.112 358.36 196.736 358.912C197.36 359.452 198.128 359.722 199.04 359.722C199.712 359.722 200.306 359.578 200.822 359.29C201.35 358.99 201.77 358.57 202.082 358.03H203.684C203.276 359.038 202.664 359.824 201.848 360.388C201.032 360.94 200.096 361.216 199.04 361.216C197.636 361.216 196.46 360.73 195.512 359.758C194.564 358.786 194.09 357.58 194.09 356.14C194.09 354.688 194.564 353.482 195.512 352.522C196.46 351.55 197.636 351.064 199.04 351.064C200.492 351.064 201.674 351.556 202.586 352.54C203.498 353.524 203.954 354.736 203.954 356.176ZM199.04 352.522C198.464 352.522 197.936 352.636 197.456 352.864C196.988 353.092 196.598 353.422 196.286 353.854C195.974 354.274 195.764 354.76 195.656 355.312H202.406C202.298 354.748 202.088 354.256 201.776 353.836C201.464 353.404 201.074 353.08 200.606 352.864C200.138 352.636 199.616 352.522 199.04 352.522ZM216.965 351.064C217.649 351.064 218.249 351.226 218.765 351.55C219.281 351.862 219.677 352.3 219.953 352.864C220.241 353.428 220.385 354.07 220.385 354.79V361H218.855V355.258C218.855 354.682 218.765 354.184 218.585 353.764C218.417 353.344 218.165 353.026 217.829 352.81C217.505 352.582 217.115 352.468 216.659 352.468C215.951 352.468 215.339 352.774 214.823 353.386C214.319 353.986 214.067 354.73 214.067 355.618V361H212.573V355.258C212.573 354.382 212.375 353.698 211.979 353.206C211.595 352.714 211.055 352.468 210.359 352.468C210.011 352.468 209.675 352.552 209.351 352.72C209.039 352.876 208.763 353.092 208.523 353.368C208.295 353.644 208.109 353.98 207.965 354.376C207.833 354.76 207.767 355.174 207.767 355.618V361H206.237V351.28H207.335L207.587 352.612C207.767 352.372 207.971 352.156 208.199 351.964C208.439 351.772 208.691 351.61 208.955 351.478C209.219 351.346 209.501 351.244 209.801 351.172C210.101 351.1 210.401 351.064 210.701 351.064C211.385 351.064 211.985 351.232 212.501 351.568C213.017 351.892 213.407 352.342 213.671 352.918C213.911 352.534 214.205 352.204 214.553 351.928C214.901 351.652 215.279 351.442 215.687 351.298C216.107 351.142 216.533 351.064 216.965 351.064ZM231.621 351.28H232.845V361H231.567L231.405 359.524C230.949 360.064 230.391 360.484 229.731 360.784C229.083 361.072 228.369 361.216 227.589 361.216C226.161 361.216 224.967 360.736 224.007 359.776C223.047 358.804 222.567 357.592 222.567 356.14C222.567 354.688 223.047 353.482 224.007 352.522C224.967 351.55 226.161 351.064 227.589 351.064C228.381 351.064 229.101 351.214 229.749 351.514C230.409 351.814 230.967 352.234 231.423 352.774L231.621 351.28ZM225.141 358.714C225.825 359.398 226.683 359.74 227.715 359.74C228.747 359.74 229.599 359.398 230.271 358.714C230.943 358.03 231.279 357.172 231.279 356.14C231.279 355.108 230.943 354.25 230.271 353.566C229.599 352.882 228.747 352.54 227.715 352.54C226.683 352.54 225.825 352.888 225.141 353.584C224.469 354.268 224.133 355.12 224.133 356.14C224.133 357.16 224.469 358.018 225.141 358.714ZM235.927 361V347.806H237.457V361H235.927ZM249.622 356.176C249.622 356.308 249.61 356.494 249.586 356.734H241.288C241.408 357.634 241.78 358.36 242.404 358.912C243.028 359.452 243.796 359.722 244.708 359.722C245.38 359.722 245.974 359.578 246.49 359.29C247.018 358.99 247.438 358.57 247.75 358.03H249.352C248.944 359.038 248.332 359.824 247.516 360.388C246.7 360.94 245.764 361.216 244.708 361.216C243.304 361.216 242.128 360.73 241.18 359.758C240.232 358.786 239.758 357.58 239.758 356.14C239.758 354.688 240.232 353.482 241.18 352.522C242.128 351.55 243.304 351.064 244.708 351.064C246.16 351.064 247.342 351.556 248.254 352.54C249.166 353.524 249.622 354.736 249.622 356.176ZM244.708 352.522C244.132 352.522 243.604 352.636 243.124 352.864C242.656 353.092 242.266 353.422 241.954 353.854C241.642 354.274 241.432 354.76 241.324 355.312H248.074C247.966 354.748 247.756 354.256 247.444 353.836C247.132 353.404 246.742 353.08 246.274 352.864C245.806 352.636 245.284 352.522 244.708 352.522ZM256.31 356.716V355.24H262.016V356.716H256.31ZM273.389 353.548C274.373 353.692 275.171 354.112 275.783 354.808C276.395 355.492 276.701 356.326 276.701 357.31C276.701 358.438 276.317 359.374 275.549 360.118C274.781 360.85 273.827 361.216 272.687 361.216C271.583 361.216 270.665 360.868 269.933 360.172C269.201 359.476 268.805 358.588 268.745 357.508H270.203C270.251 358.192 270.503 358.744 270.959 359.164C271.415 359.584 271.991 359.794 272.687 359.794C273.167 359.794 273.599 359.686 273.983 359.47C274.367 359.254 274.667 358.954 274.883 358.57C275.099 358.174 275.207 357.736 275.207 357.256C275.207 356.524 274.949 355.924 274.433 355.456C273.929 354.976 273.287 354.736 272.507 354.736H271.157V354.448L273.929 350.398H269.141V349.03H276.233V349.372L273.389 353.548ZM282.216 348.814C283.464 348.814 284.484 349.198 285.276 349.966C286.08 350.734 286.482 351.712 286.482 352.9C286.482 354.076 286.056 355.402 285.204 356.878L282.81 361.018H281.172C282.624 358.498 283.482 356.968 283.746 356.428C283.206 356.692 282.63 356.824 282.018 356.824C280.878 356.824 279.918 356.446 279.138 355.69C278.358 354.934 277.968 354.004 277.968 352.9C277.968 351.712 278.364 350.734 279.156 349.966C279.96 349.198 280.98 348.814 282.216 348.814ZM282.234 355.528C282.762 355.528 283.236 355.414 283.656 355.186C284.076 354.958 284.4 354.646 284.628 354.25C284.868 353.842 284.988 353.392 284.988 352.9C284.988 352.132 284.724 351.496 284.196 350.992C283.68 350.488 283.026 350.236 282.234 350.236C281.43 350.236 280.764 350.488 280.236 350.992C279.72 351.484 279.462 352.12 279.462 352.9C279.462 353.668 279.72 354.298 280.236 354.79C280.764 355.282 281.43 355.528 282.234 355.528ZM295.509 353.782C294.657 353.782 293.961 353.518 293.421 352.99C292.881 352.45 292.611 351.766 292.611 350.938C292.611 350.098 292.881 349.414 293.421 348.886C293.961 348.358 294.651 348.094 295.491 348.094C296.343 348.094 297.033 348.358 297.561 348.886C298.101 349.414 298.371 350.098 298.371 350.938C298.371 351.766 298.101 352.45 297.561 352.99C297.033 353.518 296.349 353.782 295.509 353.782ZM294.573 361.072L302.223 348.382H303.843L296.193 361.072H294.573ZM294.357 352.108C294.657 352.408 295.035 352.558 295.491 352.558C295.959 352.558 296.343 352.408 296.643 352.108C296.955 351.796 297.111 351.406 297.111 350.938C297.111 350.47 296.955 350.086 296.643 349.786C296.343 349.474 295.959 349.318 295.491 349.318C295.035 349.318 294.657 349.474 294.357 349.786C294.057 350.086 293.907 350.47 293.907 350.938C293.907 351.406 294.057 351.796 294.357 352.108ZM305.229 360.316C304.701 360.832 304.017 361.09 303.177 361.09C302.337 361.09 301.647 360.832 301.107 360.316C300.579 359.788 300.315 359.11 300.315 358.282C300.315 357.442 300.579 356.764 301.107 356.248C301.647 355.72 302.337 355.456 303.177 355.456C304.017 355.456 304.701 355.72 305.229 356.248C305.769 356.764 306.039 357.442 306.039 358.282C306.039 359.11 305.769 359.788 305.229 360.316ZM302.025 359.416C302.325 359.716 302.709 359.866 303.177 359.866C303.645 359.866 304.023 359.716 304.311 359.416C304.611 359.116 304.761 358.732 304.761 358.264C304.761 357.964 304.695 357.694 304.563 357.454C304.431 357.214 304.239 357.028 303.987 356.896C303.747 356.752 303.477 356.68 303.177 356.68C302.709 356.68 302.325 356.83 302.025 357.13C301.737 357.43 301.593 357.814 301.593 358.282C301.593 358.738 301.737 359.116 302.025 359.416Z" fill="white"/>
<circle cx="171" cy="355" r="5" fill="#FFF338"/>
<path opacity="0.56" d="M34.416 361H32.814L31.176 351.154L26.82 360.676H26.406L22.05 351.172L20.412 361H18.792L20.916 348.4H22.428L26.604 357.652L30.78 348.4H32.328L34.416 361ZM44.9667 351.28H46.1907V361H44.9127L44.7507 359.524C44.2947 360.064 43.7367 360.484 43.0767 360.784C42.4287 361.072 41.7147 361.216 40.9347 361.216C39.5067 361.216 38.3127 360.736 37.3527 359.776C36.3927 358.804 35.9127 357.592 35.9127 356.14C35.9127 354.688 36.3927 353.482 37.3527 352.522C38.3127 351.55 39.5067 351.064 40.9347 351.064C41.7267 351.064 42.4467 351.214 43.0947 351.514C43.7547 351.814 44.3127 352.234 44.7687 352.774L44.9667 351.28ZM38.4867 358.714C39.1707 359.398 40.0287 359.74 41.0607 359.74C42.0927 359.74 42.9447 359.398 43.6167 358.714C44.2887 358.03 44.6247 357.172 44.6247 356.14C44.6247 355.108 44.2887 354.25 43.6167 353.566C42.9447 352.882 42.0927 352.54 41.0607 352.54C40.0287 352.54 39.1707 352.888 38.4867 353.584C37.8147 354.268 37.4787 355.12 37.4787 356.14C37.4787 357.16 37.8147 358.018 38.4867 358.714ZM49.2726 361V347.806H50.8026V361H49.2726ZM62.9681 356.176C62.9681 356.308 62.9561 356.494 62.9321 356.734H54.6341C54.7541 357.634 55.1261 358.36 55.7501 358.912C56.3741 359.452 57.1421 359.722 58.0541 359.722C58.7261 359.722 59.3201 359.578 59.8361 359.29C60.3641 358.99 60.7841 358.57 61.0961 358.03H62.6981C62.2901 359.038 61.6781 359.824 60.8621 360.388C60.0461 360.94 59.1101 361.216 58.0541 361.216C56.6501 361.216 55.4741 360.73 54.5261 359.758C53.5781 358.786 53.1041 357.58 53.1041 356.14C53.1041 354.688 53.5781 353.482 54.5261 352.522C55.4741 351.55 56.6501 351.064 58.0541 351.064C59.5061 351.064 60.6881 351.556 61.6001 352.54C62.5121 353.524 62.9681 354.736 62.9681 356.176ZM58.0541 352.522C57.4781 352.522 56.9501 352.636 56.4701 352.864C56.0021 353.092 55.6121 353.422 55.3001 353.854C54.9881 354.274 54.7781 354.76 54.6701 355.312H61.4201C61.3121 354.748 61.1021 354.256 60.7901 353.836C60.4781 353.404 60.0881 353.08 59.6201 352.864C59.1521 352.636 58.6301 352.522 58.0541 352.522ZM69.6561 356.716V355.24H75.3621V356.716H69.6561ZM86.6804 353.206C87.7844 353.206 88.7384 353.578 89.5424 354.322C90.3464 355.054 90.7484 355.99 90.7484 357.13C90.7484 358.318 90.3464 359.296 89.5424 360.064C88.7384 360.832 87.7184 361.216 86.4824 361.216C85.2224 361.216 84.1904 360.832 83.3864 360.064C82.5824 359.296 82.1804 358.318 82.1804 357.13C82.1804 356.038 82.6184 354.712 83.4944 353.152L85.8884 348.922H87.5264C86.0744 351.502 85.2104 353.062 84.9344 353.602C85.4864 353.338 86.0684 353.206 86.6804 353.206ZM84.4664 359.038C84.9944 359.542 85.6604 359.794 86.4644 359.794C87.2684 359.794 87.9344 359.548 88.4624 359.056C88.9904 358.552 89.2544 357.91 89.2544 357.13C89.2544 356.626 89.1344 356.17 88.8944 355.762C88.6544 355.354 88.3184 355.042 87.8864 354.826C87.4664 354.598 86.9924 354.484 86.4644 354.484C85.9364 354.484 85.4564 354.598 85.0244 354.826C84.6044 355.054 84.2744 355.372 84.0344 355.78C83.7944 356.176 83.6744 356.626 83.6744 357.13C83.6744 357.898 83.9384 358.534 84.4664 359.038ZM91.136 349.03H94.898V361H93.422V350.398H91.136V349.03ZM104.794 353.782C103.942 353.782 103.246 353.518 102.706 352.99C102.166 352.45 101.896 351.766 101.896 350.938C101.896 350.098 102.166 349.414 102.706 348.886C103.246 348.358 103.936 348.094 104.776 348.094C105.628 348.094 106.318 348.358 106.846 348.886C107.386 349.414 107.656 350.098 107.656 350.938C107.656 351.766 107.386 352.45 106.846 352.99C106.318 353.518 105.634 353.782 104.794 353.782ZM103.858 361.072L111.508 348.382H113.128L105.478 361.072H103.858ZM103.642 352.108C103.942 352.408 104.32 352.558 104.776 352.558C105.244 352.558 105.628 352.408 105.928 352.108C106.24 351.796 106.396 351.406 106.396 350.938C106.396 350.47 106.24 350.086 105.928 349.786C105.628 349.474 105.244 349.318 104.776 349.318C104.32 349.318 103.942 349.474 103.642 349.786C103.342 350.086 103.192 350.47 103.192 350.938C103.192 351.406 103.342 351.796 103.642 352.108ZM114.514 360.316C113.986 360.832 113.302 361.09 112.462 361.09C111.622 361.09 110.932 360.832 110.392 360.316C109.864 359.788 109.6 359.11 109.6 358.282C109.6 357.442 109.864 356.764 110.392 356.248C110.932 355.72 111.622 355.456 112.462 355.456C113.302 355.456 113.986 355.72 114.514 356.248C115.054 356.764 115.324 357.442 115.324 358.282C115.324 359.11 115.054 359.788 114.514 360.316ZM111.31 359.416C111.61 359.716 111.994 359.866 112.462 359.866C112.93 359.866 113.308 359.716 113.596 359.416C113.896 359.116 114.046 358.732 114.046 358.264C114.046 357.964 113.98 357.694 113.848 357.454C113.716 357.214 113.524 357.028 113.272 356.896C113.032 356.752 112.762 356.68 112.462 356.68C111.994 356.68 111.61 356.83 111.31 357.13C111.022 357.43 110.878 357.814 110.878 358.282C110.878 358.738 111.022 359.116 111.31 359.416Z" fill="white"/>
<circle cx="5" cy="355" r="5" fill="#FB6A01"/>
</svg>
